<!-- Generator: Adobe Illustrator 22.1.0, SVG Export Plug-In  -->
<svg version="1.1"
	 xmlns="http://www.w3.org/2000/svg" xmlns:xlink="http://www.w3.org/1999/xlink" xmlns:a="http://ns.adobe.com/AdobeSVGViewerExtensions/3.0/"
	 x="0px" y="0px" width="457.8px" height="232.2px" viewBox="0 0 457.8 232.2" style="enable-background:new 0 0 457.8 232.2;"
	 xml:space="preserve">
<style type="text/css">
	.st0{fill:#FFFFFF;}
</style>
<defs>
</defs>
<g>
	<g>
		<g>
			<path class="st0" d="M91.4,37.2c-0.3-5.4-0.6-12.1-0.6-17h-0.1c-1.4,4.6-3,9.6-5,14.9l-6.9,19.1h-3.9l-6.4-18.7
				c-1.9-5.5-3.4-10.6-4.5-15.3h-0.1c-0.1,4.9-0.4,11.5-0.8,17.4l-1,16.9h-4.8L60,15.1h6.5l6.7,19c1.6,4.8,2.9,9.2,4,13.3h0.1
				c1.1-4,2.5-8.3,4.2-13.3l7-19h6.5l2.5,39.3h-5L91.4,37.2z"/>
			<path class="st0" d="M127.6,47.7c0,2.5,0.1,4.8,0.4,6.8h-4.6l-0.5-3.6h-0.2c-1.5,2.2-4.6,4.2-8.6,4.2c-5.7,0-8.6-4-8.6-8.1
				c0-6.8,6.1-10.6,17-10.5v-0.6c0-2.3-0.6-6.6-6.4-6.5c-2.7,0-5.4,0.8-7.4,2.1l-1.2-3.4c2.3-1.5,5.8-2.5,9.3-2.5
				c8.7,0,10.8,5.9,10.8,11.6V47.7z M122.6,40c-5.6-0.1-12,0.9-12,6.4c0,3.4,2.2,4.9,4.8,4.9c3.7,0,6.1-2.3,6.9-4.7
				c0.2-0.5,0.2-1.1,0.2-1.6V40z M125.1,14l-7.1,8.3h-3.6l5.1-8.3H125.1z"/>
			<path class="st0" d="M137.5,49.2c1.6,0.9,4.3,2,6.8,2c3.7,0,5.4-1.8,5.4-4.2c0-2.5-1.5-3.7-5.2-5.1c-5.1-1.9-7.5-4.7-7.5-8
				c0-4.6,3.7-8.3,9.7-8.3c2.9,0,5.4,0.8,6.9,1.8l-1.2,3.7c-1.1-0.6-3.2-1.6-5.8-1.6c-3,0-4.7,1.8-4.7,3.9c0,2.3,1.6,3.4,5.3,4.8
				c4.8,1.8,7.4,4.3,7.4,8.5c0,5-3.9,8.5-10.5,8.5c-3.1,0-6-0.8-7.9-2L137.5,49.2z"/>
			<path class="st0" d="M198.2,47.7c0,2.5,0.1,4.8,0.4,6.8H194l-0.5-3.6h-0.2c-1.5,2.2-4.6,4.2-8.6,4.2c-5.7,0-8.6-4-8.6-8.1
				c0-6.8,6.1-10.6,17-10.5v-0.6c0-2.3-0.6-6.6-6.4-6.5c-2.7,0-5.4,0.8-7.4,2.1l-1.2-3.4c2.3-1.5,5.8-2.5,9.3-2.5
				c8.7,0,10.8,5.9,10.8,11.6V47.7z M193.2,40c-5.6-0.1-12,0.9-12,6.4c0,3.4,2.2,4.9,4.8,4.9c3.7,0,6.1-2.3,6.9-4.7
				c0.2-0.5,0.2-1.1,0.2-1.6V40z"/>
			<path class="st0" d="M208.8,13h5.1v41.4h-5.1V13z"/>
			<path class="st0" d="M224.9,13h5.1v41.4h-5.1V13z"/>
			<path class="st0" d="M260.9,47.7c0,2.5,0.1,4.8,0.4,6.8h-4.6l-0.5-3.6h-0.2c-1.5,2.2-4.6,4.2-8.6,4.2c-5.7,0-8.6-4-8.6-8.1
				c0-6.8,6.1-10.6,17-10.5v-0.6c0-2.3-0.6-6.6-6.4-6.5c-2.7,0-5.4,0.8-7.4,2.1l-1.2-3.4c2.3-1.5,5.8-2.5,9.3-2.5
				c8.7,0,10.8,5.9,10.8,11.6V47.7z M255.9,40c-5.6-0.1-12,0.9-12,6.4c0,3.4,2.2,4.9,4.8,4.9c3.7,0,6.1-2.3,6.9-4.7
				c0.2-0.5,0.2-1.1,0.2-1.6V40z M258.4,14l-7.1,8.3h-3.6l5.1-8.3H258.4z"/>
			<path class="st0" d="M310.6,13v34.1c0,2.5,0.1,5.4,0.2,7.3h-4.6l-0.2-4.9h-0.1c-1.6,3.2-5,5.5-9.6,5.5c-6.8,0-12.1-5.8-12.1-14.4
				c-0.1-9.5,5.8-15.2,12.7-15.2c4.4,0,7.3,2,8.5,4.3h0.1V13H310.6z M305.5,37.7c0-0.7-0.1-1.5-0.2-2.2c-0.8-3.2-3.6-5.9-7.4-5.9
				c-5.3,0-8.5,4.7-8.5,10.9c0,5.8,2.9,10.5,8.3,10.5c3.4,0,6.6-2.3,7.5-6.2c0.2-0.6,0.2-1.3,0.2-2.2V37.7z"/>
			<path class="st0" d="M324.4,41.3c0.1,6.9,4.5,9.7,9.6,9.7c3.7,0,6-0.6,7.8-1.5l0.9,3.7c-1.8,0.8-5,1.8-9.5,1.8
				c-8.6,0-13.9-5.8-13.9-14.2c0-8.5,5.1-15.2,13.3-15.2c9.2,0,11.6,8.1,11.6,13.3c0,1.1-0.1,1.8-0.2,2.4H324.4z M339.4,37.6
				c0.1-3.3-1.3-8.3-7.1-8.3c-5.3,0-7.5,4.8-7.9,8.3H339.4z"/>
			<path class="st0" d="M391.4,46.7c0,3,0.1,5.5,0.2,7.8h-4.6l-0.3-4.6h-0.1c-1.3,2.3-4.3,5.3-9.3,5.3c-4.4,0-9.7-2.5-9.7-12.4V26.2
				h5.1v15.6c0,5.4,1.7,9,6.3,9c3.4,0,5.8-2.4,6.8-4.7c0.3-0.7,0.5-1.6,0.5-2.6V26.2h5.1V46.7z"/>
			<path class="st0" d="M402.2,33.9c0-3-0.1-5.3-0.2-7.6h4.6l0.3,4.6h0.1c1.4-2.6,4.7-5.3,9.3-5.3c3.9,0,10,2.3,10,12v16.9h-5.1
				V38.2c0-4.6-1.7-8.4-6.5-8.4c-3.3,0-6,2.4-6.9,5.3c-0.2,0.6-0.4,1.6-0.4,2.4v17h-5.1V33.9z"/>
			<path class="st0" d="M456.9,47.7c0,2.5,0.1,4.8,0.4,6.8h-4.6l-0.5-3.6H452c-1.5,2.2-4.6,4.2-8.6,4.2c-5.7,0-8.6-4-8.6-8.1
				c0-6.8,6.1-10.6,17-10.5v-0.6c0-2.3-0.6-6.6-6.4-6.5c-2.7,0-5.4,0.8-7.4,2.1l-1.2-3.4c2.3-1.5,5.8-2.5,9.3-2.5
				c8.7,0,10.8,5.9,10.8,11.6V47.7z M451.9,40c-5.6-0.1-12,0.9-12,6.4c0,3.4,2.2,4.9,4.8,4.9c3.7,0,6.1-2.3,6.9-4.7
				c0.2-0.5,0.2-1.1,0.2-1.6V40z"/>
			<path class="st0" d="M58.1,94.1c0-3.3-0.1-6.2-0.2-8.8h4.5l0.2,5.5h0.2c1.3-3.8,4.4-6.2,7.9-6.2c0.5,0,0.9,0.1,1.4,0.1v4.8
				c-0.5-0.1-1.1-0.1-1.8-0.1c-3.6,0-6.2,2.7-6.9,6.5c-0.1,0.8-0.2,1.6-0.2,2.4v15.1h-5.1V94.1z"/>
			<path class="st0" d="M78.3,100.3c0.1,6.9,4.5,9.7,9.6,9.7c3.7,0,6-0.6,7.8-1.5l0.9,3.7c-1.8,0.8-5,1.8-9.5,1.8
				c-8.6,0-13.9-5.8-13.9-14.2c0-8.5,5.1-15.2,13.3-15.2c9.2,0,11.6,8.1,11.6,13.3c0,1.1-0.1,1.8-0.2,2.4H78.3z M93.3,96.6
				c0.1-3.3-1.3-8.3-7.1-8.3c-5.3,0-7.5,4.8-7.9,8.3H93.3z"/>
			<path class="st0" d="M103.5,92.9c0-3-0.1-5.3-0.2-7.6h4.6l0.3,4.6h0.1c1.4-2.6,4.7-5.3,9.3-5.3c3.9,0,10,2.3,10,12v16.9h-5.1
				V97.2c0-4.6-1.7-8.4-6.5-8.4c-3.3,0-6,2.4-6.9,5.3c-0.2,0.6-0.4,1.6-0.4,2.4v17h-5.1V92.9z"/>
			<path class="st0" d="M146.2,114.1c-7.6,0-13.5-5.6-13.5-14.5c0-9.5,6.2-15,14-15c8.1,0,13.6,5.9,13.6,14.5
				C160.3,109.6,153,114.1,146.2,114.1L146.2,114.1z M146.5,110.3c4.9,0,8.6-4.6,8.6-11c0-4.8-2.4-10.8-8.5-10.8
				c-6,0-8.6,5.6-8.6,11C137.9,105.6,141.4,110.3,146.5,110.3L146.5,110.3z"/>
			<path class="st0" d="M167.2,85.2l5.5,15.8c0.9,2.6,1.7,5,2.3,7.3h0.2c0.6-2.3,1.5-4.7,2.4-7.3l5.5-15.8h5.4l-11.1,28.2h-4.9
				l-10.7-28.2H167.2z"/>
			<path class="st0" d="M211.8,106.7c0,2.5,0.1,4.8,0.4,6.8h-4.6l-0.5-3.6h-0.2c-1.5,2.2-4.6,4.2-8.6,4.2c-5.7,0-8.6-4-8.6-8.1
				c0-6.8,6.1-10.6,17-10.5v-0.6c0-2.3-0.6-6.6-6.4-6.5c-2.7,0-5.4,0.8-7.4,2.1l-1.2-3.4c2.3-1.5,5.8-2.5,9.3-2.5
				c8.7,0,10.8,5.9,10.8,11.6V106.7z M206.8,99.1c-5.6-0.1-12,0.9-12,6.4c0,3.4,2.2,4.9,4.8,4.9c3.7,0,6.1-2.3,6.9-4.7
				c0.2-0.5,0.2-1.1,0.2-1.6V99.1z"/>
			<path class="st0" d="M239,112.4c-1.3,0.6-4.3,1.6-8.1,1.6c-8.5,0-14.1-5.8-14.1-14.4c0-8.7,6-15.1,15.2-15.1c3,0,5.7,0.8,7.1,1.5
				l-1.2,3.9c-1.2-0.6-3.2-1.3-6-1.3c-6.5,0-10,4.8-10,10.7c0,6.5,4.2,10.6,9.8,10.6c2.9,0,4.8-0.7,6.3-1.3L239,112.4z"/>
			<path class="st0" d="M246.3,80.5c-1.9,0-3.1-1.5-3.1-3.2c0-1.8,1.3-3.2,3.2-3.2c1.9,0,3.2,1.4,3.2,3.2
				C249.5,79,248.3,80.5,246.3,80.5L246.3,80.5z M243.8,113.5V85.2h5.1v28.2H243.8z"/>
			<path class="st0" d="M267.8,114.1c-7.6,0-13.5-5.6-13.5-14.5c0-9.5,6.2-15,14-15c8.1,0,13.6,5.9,13.6,14.5
				C281.9,109.6,274.6,114.1,267.8,114.1L267.8,114.1z M268.1,110.3c4.9,0,8.6-4.6,8.6-11c0-4.8-2.4-10.8-8.5-10.8
				c-6,0-8.6,5.6-8.6,11C259.5,105.6,263,110.3,268.1,110.3L268.1,110.3z M275.8,73l-7.1,8.3H265l5.1-8.3H275.8z"/>
			<path class="st0" d="M287.2,92.9c0-3-0.1-5.3-0.2-7.6h4.6l0.3,4.6h0.1c1.4-2.6,4.7-5.3,9.3-5.3c3.9,0,10,2.3,10,12v16.9h-5.1
				V97.2c0-4.6-1.7-8.4-6.5-8.4c-3.3,0-6,2.4-6.9,5.3c-0.2,0.6-0.4,1.6-0.4,2.4v17h-5.1V92.9z"/>
			<path class="st0" d="M329.6,92.9c0-3-0.1-5.3-0.2-7.6h4.5l0.2,4.6h0.2c1.6-2.7,4.2-5.2,8.9-5.2c3.8,0,6.7,2.3,7.9,5.7h0.1
				c0.9-1.6,2-2.8,3.2-3.7c1.7-1.3,3.5-2,6.2-2c3.8,0,9.3,2.5,9.3,12.3v16.6h-5v-16c0-5.5-2-8.7-6.1-8.7c-3,0-5.2,2.2-6.1,4.6
				c-0.2,0.8-0.4,1.7-0.4,2.6v17.5h-5v-17c0-4.5-2-7.7-5.9-7.7c-3.2,0-5.5,2.6-6.4,5.1c-0.3,0.8-0.4,1.6-0.4,2.5v17h-5V92.9z"/>
			<path class="st0" d="M388.6,114.1c-7.6,0-13.5-5.6-13.5-14.5c0-9.5,6.2-15,14-15c8.1,0,13.6,5.9,13.6,14.5
				C402.7,109.6,395.4,114.1,388.6,114.1L388.6,114.1z M388.9,110.3c4.9,0,8.6-4.6,8.6-11c0-4.8-2.4-10.8-8.5-10.8
				c-6,0-8.6,5.6-8.6,11C380.4,105.6,383.9,110.3,388.9,110.3L388.9,110.3z"/>
			<path class="st0" d="M408,94.1c0-3.3-0.1-6.2-0.2-8.8h4.5l0.2,5.5h0.2c1.3-3.8,4.4-6.2,7.9-6.2c0.5,0,0.9,0.1,1.4,0.1v4.8
				c-0.5-0.1-1.1-0.1-1.8-0.1c-3.6,0-6.2,2.7-6.9,6.5c-0.1,0.8-0.2,1.6-0.2,2.4v15.1H408V94.1z"/>
			<path class="st0" d="M445.6,106.7c0,2.5,0.1,4.8,0.4,6.8h-4.6l-0.5-3.6h-0.2c-1.5,2.2-4.6,4.2-8.6,4.2c-5.7,0-8.6-4-8.6-8.1
				c0-6.8,6.1-10.6,17-10.5v-0.6c0-2.3-0.6-6.6-6.4-6.5c-2.7,0-5.4,0.8-7.4,2.1l-1.2-3.4c2.3-1.5,5.8-2.5,9.3-2.5
				c8.7,0,10.8,5.9,10.8,11.6V106.7z M440.5,99.1c-5.6-0.1-12,0.9-12,6.4c0,3.4,2.2,4.9,4.8,4.9c3.7,0,6.1-2.3,6.9-4.7
				c0.2-0.5,0.2-1.1,0.2-1.6V99.1z"/>
			<path class="st0" d="M452.6,72.1h5.1v41.4h-5.1V72.1z"/>
			<path class="st0" d="M81.7,164.8c0,3,0.1,5.5,0.2,7.8h-4.6l-0.3-4.6H77c-1.3,2.3-4.3,5.3-9.3,5.3c-4.4,0-9.7-2.5-9.7-12.4v-16.5
				h5.1v15.6c0,5.4,1.7,9,6.3,9c3.4,0,5.8-2.4,6.8-4.7c0.3-0.7,0.5-1.6,0.5-2.6v-17.3h5.1V164.8z"/>
			<path class="st0" d="M89.1,151.9c0-3-0.1-5.3-0.2-7.6h4.6l0.3,4.6h0.1c1.4-2.6,4.7-5.3,9.3-5.3c3.9,0,10,2.3,10,12v16.9H108
				v-16.3c0-4.6-1.7-8.4-6.5-8.4c-3.3,0-6,2.4-6.9,5.3c-0.2,0.6-0.4,1.6-0.4,2.4v17h-5.1V151.9z"/>
			<path class="st0" d="M140.2,165.8c0,2.5,0.1,4.8,0.4,6.8H136l-0.5-3.6h-0.2c-1.5,2.2-4.6,4.2-8.6,4.2c-5.7,0-8.6-4-8.6-8.1
				c0-6.8,6.1-10.6,17-10.5V154c0-2.3-0.6-6.6-6.4-6.5c-2.7,0-5.4,0.8-7.4,2.1l-1.2-3.4c2.3-1.5,5.8-2.5,9.3-2.5
				c8.7,0,10.8,5.9,10.8,11.6V165.8z M135.2,158.1c-5.6-0.1-12,0.9-12,6.4c0,3.4,2.2,4.9,4.8,4.9c3.7,0,6.1-2.3,6.9-4.7
				c0.2-0.5,0.2-1.1,0.2-1.6V158.1z"/>
			<path class="st0" d="M158.5,153.1c0-3.3-0.1-6.2-0.2-8.8h4.5l0.2,5.5h0.2c1.3-3.8,4.4-6.2,7.9-6.2c0.5,0,0.9,0.1,1.4,0.1v4.8
				c-0.5-0.1-1.1-0.1-1.8-0.1c-3.6,0-6.2,2.7-6.9,6.5c-0.1,0.8-0.2,1.6-0.2,2.4v15.1h-5.1V153.1z"/>
			<path class="st0" d="M178.7,159.3c0.1,6.9,4.5,9.7,9.6,9.7c3.7,0,6-0.6,7.8-1.5l0.9,3.7c-1.8,0.8-5,1.8-9.5,1.8
				c-8.6,0-13.9-5.8-13.9-14.2c0-8.5,5.1-15.2,13.3-15.2c9.2,0,11.6,8.1,11.6,13.3c0,1.1-0.1,1.8-0.2,2.4H178.7z M193.7,155.7
				c0.1-3.3-1.3-8.3-7.1-8.3c-5.3,0-7.5,4.8-7.9,8.3H193.7z"/>
			<path class="st0" d="M203.9,151.9c0-3-0.1-5.3-0.2-7.6h4.6l0.3,4.6h0.1c1.4-2.6,4.7-5.3,9.3-5.3c3.9,0,10,2.3,10,12v16.9h-5.1
				v-16.3c0-4.6-1.7-8.4-6.5-8.4c-3.3,0-6,2.4-6.9,5.3c-0.2,0.6-0.3,1.6-0.3,2.4v17h-5.1V151.9z"/>
			<path class="st0" d="M246.6,173.2c-7.6,0-13.5-5.6-13.5-14.5c0-9.5,6.2-15,14-15c8.1,0,13.6,5.9,13.6,14.5
				C260.7,168.6,253.4,173.2,246.6,173.2L246.6,173.2z M246.9,169.3c4.9,0,8.6-4.6,8.6-11c0-4.8-2.4-10.8-8.5-10.8
				c-6,0-8.6,5.6-8.6,11C238.3,164.7,241.8,169.3,246.9,169.3L246.9,169.3z"/>
			<path class="st0" d="M267.6,144.3l5.5,15.8c0.9,2.6,1.7,5,2.3,7.3h0.2c0.6-2.3,1.5-4.7,2.4-7.3l5.5-15.8h5.4l-11.1,28.2h-4.9
				l-10.7-28.2H267.6z"/>
			<path class="st0" d="M312.2,165.8c0,2.5,0.1,4.8,0.4,6.8H308l-0.5-3.6h-0.2c-1.5,2.2-4.6,4.2-8.6,4.2c-5.7,0-8.6-4-8.6-8.1
				c0-6.8,6.1-10.6,17-10.5V154c0-2.3-0.6-6.6-6.4-6.5c-2.7,0-5.4,0.8-7.4,2.1l-1.2-3.4c2.3-1.5,5.8-2.5,9.3-2.5
				c8.7,0,10.8,5.9,10.8,11.6V165.8z M307.2,158.1c-5.6-0.1-12,0.9-12,6.4c0,3.4,2.2,4.9,4.8,4.9c3.7,0,6.1-2.3,6.9-4.7
				c0.2-0.5,0.2-1.1,0.2-1.6V158.1z"/>
			<path class="st0" d="M339.4,171.5c-1.3,0.6-4.3,1.6-8.1,1.6c-8.5,0-14.1-5.8-14.1-14.4c0-8.7,6-15.1,15.2-15.1
				c3,0,5.7,0.8,7.1,1.5l-1.2,3.9c-1.2-0.6-3.2-1.3-6-1.3c-6.5,0-10,4.8-10,10.7c0,6.5,4.2,10.6,9.8,10.6c2.9,0,4.8-0.7,6.3-1.3
				L339.4,171.5z"/>
			<path class="st0" d="M346.7,139.5c-1.9,0-3.1-1.5-3.1-3.2c0-1.8,1.3-3.2,3.2-3.2c1.9,0,3.2,1.4,3.2,3.2
				C349.9,138,348.7,139.5,346.7,139.5L346.7,139.5z M344.2,172.5v-28.2h5.1v28.2H344.2z"/>
			<path class="st0" d="M368.2,173.2c-7.6,0-13.5-5.6-13.5-14.5c0-9.5,6.2-15,14-15c8.1,0,13.6,5.9,13.6,14.5
				C382.3,168.6,375,173.2,368.2,173.2L368.2,173.2z M368.4,169.3c4.9,0,8.6-4.6,8.6-11c0-4.8-2.4-10.8-8.5-10.8
				c-6,0-8.6,5.6-8.6,11C359.9,164.7,363.4,169.3,368.4,169.3L368.4,169.3z M376.2,132.1l-7.1,8.3h-3.6l5.1-8.3H376.2z"/>
			<path class="st0" d="M387.6,151.9c0-3-0.1-5.3-0.2-7.6h4.6l0.3,4.6h0.1c1.4-2.6,4.7-5.3,9.3-5.3c3.9,0,10,2.3,10,12v16.9h-5.1
				v-16.3c0-4.6-1.7-8.4-6.5-8.4c-3.3,0-6,2.4-6.9,5.3c-0.2,0.6-0.3,1.6-0.3,2.4v17h-5.1V151.9z"/>
			<path class="st0" d="M64.3,196.5v6.8h7.4v3.9h-7.4v15.2c0,3.5,1,5.5,3.9,5.5c1.4,0,2.2-0.1,3-0.4l0.2,3.9c-1,0.4-2.6,0.7-4.6,0.7
				c-2.4,0-4.3-0.8-5.5-2.2c-1.4-1.6-2-4.1-2-7.4v-15.4h-4.4v-3.9h4.4v-5.2L64.3,196.5z"/>
			<path class="st0" d="M87.4,232.2c-7.6,0-13.5-5.6-13.5-14.5c0-9.5,6.2-15,14-15c8.1,0,13.6,5.9,13.6,14.5
				C101.5,227.7,94.2,232.2,87.4,232.2L87.4,232.2z M87.6,228.4c4.9,0,8.6-4.6,8.6-11c0-4.8-2.4-10.8-8.5-10.8c-6,0-8.6,5.6-8.6,11
				C79.1,223.7,82.6,228.4,87.6,228.4L87.6,228.4z"/>
			<path class="st0" d="M113,196.5v6.8h7.4v3.9H113v15.2c0,3.5,1,5.5,3.9,5.5c1.4,0,2.2-0.1,3-0.4l0.2,3.9c-1,0.4-2.6,0.7-4.6,0.7
				c-2.4,0-4.3-0.8-5.5-2.2c-1.4-1.6-2-4.1-2-7.4v-15.4h-4.4v-3.9h4.4v-5.2L113,196.5z"/>
			<path class="st0" d="M144.8,224.8c0,2.5,0.1,4.8,0.4,6.8h-4.6l-0.5-3.6H140c-1.5,2.2-4.6,4.2-8.6,4.2c-5.7,0-8.6-4-8.6-8.1
				c0-6.8,6.1-10.6,17-10.5V213c0-2.3-0.6-6.6-6.4-6.5c-2.7,0-5.4,0.8-7.4,2.1l-1.2-3.4c2.3-1.5,5.8-2.5,9.3-2.5
				c8.7,0,10.8,5.9,10.8,11.6V224.8z M139.8,217.1c-5.6-0.1-12,0.9-12,6.4c0,3.4,2.2,4.9,4.8,4.9c3.7,0,6.1-2.3,6.9-4.7
				c0.2-0.5,0.2-1.1,0.2-1.6V217.1z"/>
			<path class="st0" d="M151.9,190.1h5.1v41.4h-5.1V190.1z"/>
			<path class="st0" d="M233.9,232.2c-2,0-3.4-1.6-3.4-3.7c0-2.1,1.5-3.7,3.5-3.7c2,0,3.4,1.5,3.4,3.7
				C237.5,230.6,236.1,232.2,233.9,232.2L233.9,232.2z"/>
		</g>
	</g>
	<path class="st0" d="M14.4,16.5c1.6,0.5,2.9,1.5,3.9,2.9c1,1.5,1.5,3.2,1.5,5.1c0,2.7-0.9,5-2.8,6.8c-1.9,1.9-4.1,2.8-6.8,2.8
		c-3.1,0-5.6-1-7.5-3.1C0.9,29,0,26.2,0,22.6C0,17,1.9,12,5.7,7.8C9.4,3.6,14.3,1,20.2,0v3.2c-2,2.1-3.4,4.2-4.4,6.2
		c-1,2-1.4,4.1-1.4,6.2V16.5z M42.8,16.5c1.6,0.5,2.9,1.5,3.9,2.9c1,1.5,1.4,3.2,1.4,5.1c0,2.7-0.9,5-2.8,6.8
		c-1.9,1.9-4.1,2.8-6.8,2.8c-3.1,0-5.6-1-7.4-3.1c-1.8-2.1-2.8-4.9-2.8-8.5C28.4,17,30.2,12,34,7.8C37.8,3.6,42.6,1,48.5,0v3.2
		c-1.9,2.1-3.4,4.2-4.3,6.2c-1,2-1.4,4.1-1.4,6.2V16.5z"/>
	<path class="st0" d="M176.1,206.9c-1.6-0.5-2.9-1.4-3.9-2.9c-0.9-1.5-1.4-3.2-1.4-5.2c0-2.7,0.9-4.9,2.8-6.8
		c1.9-1.8,4.1-2.8,6.8-2.8c3.1,0,5.6,1,7.4,3.1c1.8,2,2.8,4.9,2.8,8.4c0,5.7-1.9,10.6-5.7,14.9c-3.8,4.3-8.6,6.9-14.6,7.9v-3.3
		c2-2.1,3.4-4.2,4.4-6.2c1-2,1.4-4.1,1.4-6.1V206.9z M204.4,206.9c-1.6-0.5-2.9-1.4-3.9-2.9c-1-1.5-1.4-3.2-1.4-5.2
		c0-2.6,0.9-4.9,2.8-6.7c1.9-1.9,4.1-2.8,6.8-2.8c3.1,0,5.6,1,7.4,3.1c1.8,2,2.7,4.9,2.7,8.4c0,5.7-1.9,10.6-5.7,14.9
		c-3.8,4.3-8.6,6.9-14.5,7.9v-3.3c1.9-2.1,3.4-4.2,4.3-6.2c1-2,1.4-4.1,1.4-6.1V206.9z"/>
</g>
</svg>
