<!-- Generator: Adobe Illustrator 22.1.0, SVG Export Plug-In  -->
<svg version="1.1"
	 xmlns="http://www.w3.org/2000/svg" xmlns:xlink="http://www.w3.org/1999/xlink" xmlns:a="http://ns.adobe.com/AdobeSVGViewerExtensions/3.0/"
	 x="0px" y="0px" width="437.8px" height="86.3px" viewBox="0 0 437.8 86.3" style="enable-background:new 0 0 437.8 86.3;"
	 xml:space="preserve">
<style type="text/css">
	.st0{fill:#FFFFFF;}
</style>
<defs>
</defs>
<g>
	<path class="st0" d="M88.6,68.3c0.1-0.2,0.5-0.3,1.1-0.2s1.1,0.2,1.7,0.5s1,0.6,1.4,1c0.3,0.4,0.3,0.9,0,1.4
		c-0.8,1.3-1.9,2.6-3.2,4.1c-1.3,1.4-2.9,2.8-4.9,4c-1.9,1.2-4.2,2.2-6.8,3c-2.6,0.8-5.6,1.2-9,1.2c-2.7,0-5.4-0.4-8.1-1.2
		c-2.7-0.8-5.3-2-7.8-3.4c-2.5-1.5-4.9-3.2-7.2-5.2c-2.3-2-4.3-4.2-6.2-6.5c-1.9-2.4-3.6-4.8-5-7.4c-1.4-2.6-2.6-5.3-3.4-8
		c-0.7,1.9-1.3,3.8-1.7,5.6c-0.5,1.8-0.7,3.6-0.7,5.2c0,1,0.1,2,0.4,2.8c0.3,0.9,0.5,1.6,0.8,2.3l-0.1-0.1c0.2,0.5,0.3,0.9,0.5,1.3
		c0.1,0.4,0.2,0.8,0.2,1.1c0,0.6-0.2,1.1-0.6,1.5c-0.4,0.3-1.2,0.5-2.3,0.5c-1.2,0-2.3-0.3-3.2-1c-1-0.6-1.8-1.5-2.4-2.4
		s-1.2-2.1-1.6-3.3s-0.6-2.4-0.6-3.5c0-1.2,0.1-2.6,0.4-4c0.2-1.4,0.6-2.8,1-4.3c0.4-1.5,1-3,1.6-4.5c0.6-1.5,1.2-3,1.9-4.5
		c-0.8-0.4-1.6-0.9-2.2-1.5c-0.6-0.6-1.1-1.2-1.5-1.8c-0.4-0.6-0.7-1.3-0.9-1.9c-0.2-0.6-0.3-1.2-0.3-1.7c0-0.7,0.2-1.3,0.5-2
		c0.4-0.7,0.8-1.3,1.4-1.8c0.6-0.5,1.3-1,2-1.3s1.6-0.5,2.4-0.5c0.6,0,1.3,0.1,2.1,0.4c0.7,0.2,1.4,0.6,2.1,1.1
		c0.7-1.3,1.4-2.5,2.1-3.6c0.7-1.1,1.3-2.2,1.9-3c0.3-0.5,0.5-0.9,0.7-1.3c0.2-0.4,0.4-0.8,0.6-1c0.2-0.4,0.4-0.7,0.6-0.9v-0.3
		c0-0.4,0-0.7,0-1.1s0.1-0.6,0.2-0.8c0.1-0.2,0.3-0.4,0.6-0.6c0.3-0.1,0.7-0.2,1.2-0.2c0.6,0,1.3,0.1,2,0.4c0.7,0.3,1.3,0.7,1.9,1.2
		c0.6,0.5,1,1.1,1.4,1.8c0.4,0.7,0.6,1.4,0.6,2.1c0,0.6-0.4,1.6-1.2,3.1c-0.8,1.5-1.7,3.2-2.9,5.2c-0.3,0.5-0.5,0.9-0.8,1.4
		s-0.5,0.8-0.7,1.2c-0.2,0.4-0.5,0.8-0.8,1.3c-0.3,0.5-0.6,1-0.9,1.7c2.3-0.6,4.5-1.5,6.7-2.6c2.2-1.1,4.3-2.4,6.2-3.8
		c1.9-1.4,3.7-3,5.4-4.6s3.1-3.3,4.2-5c1.2-1.7,2.1-3.4,2.8-5s1-3.2,1-4.6c0-1.8-0.8-3.3-2.3-4.4c-1.5-1.1-4-1.7-7.4-1.7
		c-4.2,0-8.3,0.7-12.2,2.1c-3.9,1.4-7.5,3.3-10.8,5.5c-3.3,2.2-6.3,4.7-9,7.5c-2.7,2.8-5,5.5-6.9,8.2c-1.9,2.7-3.4,5.2-4.4,7.4
		c-1,2.3-1.5,4.1-1.5,5.3c0,0.5,0.1,0.9,0.3,1.2c0.2,0.3,0.4,0.5,0.7,0.6c0.3,0.1,0.6,0.2,0.9,0.2c0.3,0,0.6,0,0.9-0.1
		c0.4,0,0.8-0.1,1.1-0.1c0.4,0,0.7,0,0.9,0.1c0.3,0.1,0.5,0.3,0.6,0.5c0.1,0.2,0.2,0.6,0.2,1c0,0.3-0.1,0.6-0.4,0.9
		c-0.3,0.3-0.7,0.6-1.1,0.8c-0.5,0.2-1,0.4-1.7,0.6C10.4,50,9.7,50.1,9,50.1c-1,0-2.1-0.1-3.1-0.4c-1-0.3-2-0.8-2.9-1.4
		c-0.9-0.7-1.6-1.6-2.1-2.7C0.3,44.3,0,42.9,0,41.1c0-2.3,0.7-4.7,2.1-7.4s3.3-5.4,5.7-8.2c2.4-2.8,5.3-5.4,8.6-8
		c3.3-2.6,6.9-4.9,10.8-6.9c3.9-2,7.9-3.6,12.2-4.8c4.3-1.2,8.6-1.8,13-1.8c3.6,0,6.7,0.3,9.3,0.9c2.6,0.6,4.7,1.5,6.3,2.5
		s2.8,2.4,3.6,3.8c0.8,1.5,1.1,3,1.1,4.7c0,1.8-0.5,3.8-1.4,5.8c-0.9,2-2.2,4.1-3.8,6.1c-1.6,2-3.6,4-5.9,5.9
		c-2.3,1.9-4.8,3.6-7.6,5.1c-2.8,1.5-5.7,2.8-8.9,3.9c-3.1,1.1-6.4,1.8-9.8,2.3c0.5,3,1.5,5.8,3,8.4c1.5,2.6,3.3,5,5.4,7.2
		c2.1,2.2,4.5,4.1,7,5.8s5.1,3.2,7.7,4.3c2.6,1.2,5.1,2.1,7.5,2.7c2.4,0.6,4.6,1,6.5,1s3.7-0.2,5.5-0.5c1.8-0.4,3.3-0.8,4.7-1.4
		s2.6-1.2,3.6-2S88.2,69,88.6,68.3z M26.7,40.2c0-0.1,0.1-0.1,0.1-0.2c0-0.1,0.1-0.1,0.2-0.2c-0.2-0.4-0.5-0.7-0.7-1
		c-0.3-0.3-0.5-0.6-0.8-0.8c-0.2-0.2-0.5-0.4-0.6-0.5c-0.2-0.1-0.3,0-0.3,0.1c0,0.5,0.2,1,0.5,1.5c0.3,0.5,0.8,1,1.6,1.3L26.7,40.2z
		"/>
	<path class="st0" d="M94.3,39.8c0.1-0.3,0.4-0.5,0.8-0.5s0.8,0.1,1.2,0.3s0.7,0.5,0.9,0.8c0.2,0.3,0.3,0.6,0.2,1
		c-0.2,0.5-0.6,1.2-1.1,2c-0.5,0.8-1.1,1.8-1.8,2.8c-0.7,1-1.5,2.1-2.5,3.2s-2,2.1-3.1,3c-1.1,0.9-2.3,1.8-3.6,2.4s-2.7,1.1-4.2,1.4
		c-1.6,2.2-3.4,4-5.4,5.5c-2,1.4-4.1,2.1-6.3,2.1c-1.2,0-2.3-0.2-3.4-0.7c-1.1-0.5-2.1-1.1-3-2c-0.9-0.9-1.6-2-2.1-3.4
		c-0.5-1.3-0.8-2.9-0.8-4.7c0-1.7,0.3-3.4,1-5.2c0.7-1.8,1.4-3.4,2.3-4.9c0.9-1.5,1.7-2.7,2.7-3.7c0.9-1,1.6-1.4,2.1-1.4
		c0.4,0,0.7,0,1.2,0.1c0.4,0.1,0.8,0.2,1.2,0.3c0.6-0.8,1.3-1.6,2-2.4c0.7-0.7,1.5-1.4,2.3-1.9c0.8-0.5,1.7-1,2.6-1.3
		c0.9-0.3,1.8-0.5,2.7-0.5c1.3,0,2.4,0.2,3.3,0.5c0.9,0.3,1.6,0.7,2.1,1.3c0.5,0.5,0.9,1.2,1.1,2c0.2,0.8,0.3,1.6,0.3,2.5
		c0,4.6-1,9.1-3.1,13.3c1.3-0.7,2.5-1.6,3.6-2.7c1.1-1.1,2.2-2.2,3.1-3.3c0.9-1.1,1.7-2.2,2.3-3.2C93.6,41.1,94,40.3,94.3,39.8z
		 M69.7,59.6c1.2,0,2.4-0.3,3.5-1c1.1-0.7,2.1-1.5,3-2.7c-1.3-0.4-2.6-0.9-3.8-1.6c-1.2-0.7-2.2-1.6-3-2.5c-0.5,1.1-0.8,2.2-1.1,3.2
		c-0.3,1-0.5,1.9-0.5,2.7c0,0.6,0.1,1.1,0.4,1.4S69,59.6,69.7,59.6z M75.8,49.6c0,0.8,0.2,1.5,0.6,2.1c0.4,0.6,1.1,0.9,2.1,1.1
		c0.7-1.2,1.3-2.5,1.9-3.8c0.6-1.3,1-2.6,1.4-3.8c0.4-1.3,0.7-2.5,0.9-3.6c0.2-1.1,0.3-2.1,0.3-3c0-1.4-0.2-2.1-0.5-2.1
		c-0.4,0-0.9,0.5-1.6,1.4s-1.5,2-2.3,3.4c-0.8,1.3-1.4,2.8-2,4.3C76.1,47,75.8,48.4,75.8,49.6z"/>
	<path class="st0" d="M114.9,39.8c0.1-0.3,0.4-0.4,0.8-0.4s0.8,0.1,1.2,0.2s0.7,0.4,1,0.6c0.3,0.3,0.3,0.5,0.2,0.8
		c-0.3,0.6-0.8,1.5-1.4,2.7c-0.6,1.2-1.3,2.5-2.2,4c-0.9,1.5-1.9,3-3,4.6c-1.1,1.6-2.4,3.1-3.8,4.5c-1.4,1.4-2.9,2.7-4.6,3.8
		c-1.6,1.1-3.4,2-5.2,2.5c-1.2,0.3-2.3,0.4-3.3,0.4h-0.3c-1.7,0-3-0.4-3.9-1.2c-0.9-0.8-1.6-1.7-1.9-2.7c-0.4-1-0.5-1.9-0.4-2.7
		c0.1-0.8,0.3-1.2,0.6-1.2c0.6,0,0.9,0.2,1.1,0.5c0.2,0.3,0.4,0.7,0.6,1.2c0.1,0.2,0.2,0.4,0.3,0.6c0.1,0.2,0.2,0.4,0.4,0.6
		c0.2,0.2,0.4,0.4,0.7,0.5c0.3,0.1,0.7,0.2,1.1,0.2c0.6,0,1.2-0.2,1.8-0.6c0.6-0.4,1.2-1,1.7-1.7s1-1.5,1.3-2.5s0.5-2,0.5-3.1
		c0-1-0.2-2-0.6-2.9c-0.4-0.9-0.9-1.8-1.4-2.7l0.1,0.1l-1-1.7c-0.2,0.4-0.4,0.8-0.6,1.3c-0.2,0.5-0.6,1.1-1.1,1.9
		c-0.1,0.3-0.4,0.4-0.8,0.3s-0.8-0.2-1.1-0.4s-0.7-0.4-0.9-0.7c-0.2-0.3-0.3-0.5-0.2-0.8c0.4-0.8,0.8-1.4,1.1-2
		c0.3-0.6,0.6-1.1,0.8-1.5c0.2-0.4,0.4-0.8,0.5-1.1c0.1-0.3,0.3-0.7,0.4-1l-0.1,0.1l0.4-0.9c-0.1-0.6-0.2-1.2-0.2-1.7
		c0-1.6,0.3-3,0.9-4.3c0.6-1.3,1.3-2.4,2.1-3.3s1.7-1.6,2.7-2.1c0.9-0.5,1.7-0.7,2.4-0.7c0.4,0,0.8,0,1.4,0.1s1.1,0.2,1.6,0.5
		c0.5,0.2,1,0.6,1.4,1c0.4,0.4,0.6,1,0.6,1.7c0,0.6-0.2,1.1-0.5,1.6c-0.4,0.5-0.8,1-1.3,1.5c-0.6,0.5-1.1,1.2-1.7,1.9
		c-0.5,0.7-0.8,1.6-0.8,2.7c0,1.2,0.2,2.4,0.7,3.3c0.4,1,0.9,2,1.4,3v-0.1c0.6,1,1.1,2.1,1.6,3.2s0.7,2.4,0.7,3.8c0,0.3,0,0.6,0,1
		s0,0.7,0,1c1-1.1,1.9-2.3,2.7-3.5c0.8-1.2,1.6-2.4,2.2-3.6c0.7-1.1,1.2-2.2,1.8-3.2c0.5-1,0.9-1.8,1.2-2.5L114.9,39.8L114.9,39.8z"
		/>
	<path class="st0" d="M109,53.3c0-1.5,0.3-3.1,0.8-4.7c0.5-1.6,1.2-3.3,2.1-4.9c0.9-1.6,2-3.1,3.2-4.5s2.6-2.7,4-3.8
		s2.9-1.9,4.5-2.6c1.6-0.6,3.1-1,4.7-1c1.3,0,2.5,0.2,3.4,0.6c0.9,0.4,1.7,0.8,2.3,1.4c0.6,0.6,1.1,1.2,1.4,1.9
		c0.3,0.7,0.5,1.4,0.7,2c0.1,0.7,0.2,1.2,0.1,1.8c0,0.5-0.1,0.9-0.2,1.1h0.1c-0.1,0.3-0.3,0.4-0.7,0.4c-0.3,0-0.7-0.1-1-0.2
		c-0.3-0.1-0.6-0.3-0.9-0.5s-0.4-0.3-0.3-0.5c0-0.1,0-0.3,0-0.6c0-0.3-0.1-0.6-0.3-1c-0.2-0.3-0.5-0.6-1-0.9
		c-0.4-0.3-1.1-0.4-1.9-0.4c-0.8,0-1.8,0.4-2.7,1.1c-1,0.7-1.9,1.7-2.9,2.9c-1,1.2-1.9,2.5-2.8,4c-0.9,1.5-1.7,3-2.3,4.6
		c-0.7,1.5-1.2,3-1.6,4.5s-0.6,2.7-0.6,3.7c0,1.3,0.4,1.9,1.1,1.9c0.9,0,1.8-0.4,2.7-1.2s1.8-1.8,2.7-3c0.9-1.2,1.7-2.5,2.4-4
		c0.7-1.4,1.4-2.8,2-4.1c0.6-1.3,1-2.5,1.3-3.4c0.3-1,0.5-1.6,0.5-2s0.2-0.5,0.5-0.6c0.4-0.1,0.8,0,1.3,0.1c0.5,0.1,1.1,0.3,1.7,0.6
		c0.6,0.3,1.2,0.6,1.7,0.9c0.5,0.3,1,0.7,1.3,1.1c0.4,0.4,0.5,0.7,0.5,1c0,0.4-0.2,1-0.6,1.9c-0.4,0.9-0.8,1.9-1.3,3
		c-0.4,0.8-0.7,1.6-1.1,2.4c-0.4,0.8-0.7,1.7-1,2.5c-0.3,0.8-0.5,1.6-0.7,2.3c-0.2,0.7-0.3,1.3-0.3,1.7c0,0.2,0,0.3-0.1,0.3
		c0.5,0,1.1-0.4,1.9-1.2c0.8-0.8,1.6-1.9,2.5-3.2c0.9-1.3,1.8-2.7,2.7-4.3c0.9-1.6,1.7-3.1,2.5-4.5s1.5-2.8,2.1-4
		c0.6-1.2,1-2.1,1.3-2.6c0.1-0.3,0.4-0.4,0.8-0.4s0.8,0.1,1.2,0.2c0.4,0.2,0.7,0.4,1,0.7c0.3,0.3,0.3,0.6,0.2,0.8
		c-0.3,0.7-0.8,1.8-1.6,3.2c-0.7,1.4-1.6,3-2.5,4.7c-1,1.7-2,3.4-3.1,5.2c-1.1,1.8-2.2,3.4-3.4,4.9s-2.3,2.6-3.4,3.6
		c-1.1,0.9-2.1,1.4-3,1.4c-1,0-1.9-0.3-2.7-0.8c-0.8-0.5-1.4-1.1-1.9-1.7c-0.6-0.7-1.2-1.5-1.6-2.5c-0.4,0.5-0.9,1-1.5,1.6
		c-0.6,0.6-1.2,1.1-1.8,1.6c-0.7,0.5-1.3,0.9-2.1,1.2c-0.7,0.3-1.4,0.5-2.1,0.5c-1.4,0-2.6-0.3-3.6-0.9c-1-0.6-1.9-1.4-2.6-2.4
		c-0.7-1-1.2-2.1-1.6-3.4S109,54.5,109,53.3z"/>
	<path class="st0" d="M166,39.8c0.1-0.3,0.4-0.4,0.8-0.4c0.4,0,0.8,0.1,1.2,0.2c0.4,0.2,0.7,0.4,1,0.6c0.3,0.3,0.3,0.5,0.2,0.8
		c-0.3,0.6-0.8,1.5-1.4,2.7c-0.6,1.2-1.3,2.5-2.2,4c-0.9,1.5-1.9,3-3,4.6s-2.4,3.1-3.8,4.5s-2.9,2.7-4.6,3.8c-1.6,1.1-3.4,2-5.2,2.5
		c-1.2,0.3-2.3,0.4-3.3,0.4h-0.3c-1.7,0-3-0.4-3.9-1.2c-0.9-0.8-1.6-1.7-1.9-2.7c-0.4-1-0.5-1.9-0.4-2.7c0.1-0.8,0.3-1.2,0.6-1.2
		c0.6,0,0.9,0.2,1.1,0.5c0.2,0.3,0.4,0.7,0.6,1.2c0.1,0.2,0.2,0.4,0.3,0.6c0.1,0.2,0.2,0.4,0.4,0.6c0.2,0.2,0.4,0.4,0.7,0.5
		c0.3,0.1,0.7,0.2,1.1,0.2c0.6,0,1.2-0.2,1.8-0.6s1.2-1,1.8-1.7c0.5-0.7,1-1.5,1.3-2.5c0.4-1,0.5-2,0.5-3.1c0-1-0.2-2-0.6-2.9
		c-0.4-0.9-0.9-1.8-1.4-2.7l0.1,0.1l-1-1.7c-0.2,0.4-0.4,0.8-0.6,1.3c-0.2,0.5-0.6,1.1-1.1,1.9c-0.1,0.3-0.4,0.4-0.8,0.3
		c-0.4-0.1-0.8-0.2-1.1-0.4s-0.7-0.4-0.9-0.7c-0.2-0.3-0.3-0.5-0.2-0.8c0.4-0.8,0.8-1.4,1.1-2c0.3-0.6,0.6-1.1,0.8-1.5
		c0.2-0.4,0.4-0.8,0.5-1.1c0.1-0.3,0.3-0.7,0.4-1l-0.1,0.1l0.4-0.9c-0.1-0.6-0.2-1.2-0.2-1.7c0-1.6,0.3-3,0.9-4.3
		c0.6-1.3,1.3-2.4,2.1-3.3c0.8-0.9,1.7-1.6,2.7-2.1c0.9-0.5,1.7-0.7,2.4-0.7c0.4,0,0.8,0,1.4,0.1c0.6,0.1,1.1,0.2,1.6,0.5
		c0.5,0.2,1,0.6,1.4,1c0.4,0.4,0.6,1,0.6,1.7c0,0.6-0.2,1.1-0.5,1.6c-0.4,0.5-0.8,1-1.3,1.5c-0.6,0.5-1.1,1.2-1.7,1.9
		c-0.5,0.7-0.8,1.6-0.8,2.7c0,1.2,0.2,2.4,0.7,3.3c0.4,1,0.9,2,1.4,3v-0.1c0.6,1,1.1,2.1,1.6,3.2c0.4,1.1,0.7,2.4,0.7,3.8
		c0,0.3,0,0.6,0,1c0,0.4,0,0.7,0,1c1-1.1,1.9-2.3,2.7-3.5c0.8-1.2,1.6-2.4,2.2-3.6c0.7-1.1,1.2-2.2,1.8-3.2c0.5-1,0.9-1.8,1.2-2.5
		L166,39.8L166,39.8z"/>
	<path class="st0" d="M257,69c0.4-0.7,0.8-1.1,1.2-1.1s0.8,0.1,1.1,0.4c0.4,0.3,0.8,0.8,1.1,1.3c-0.5,1.1-1.3,2.2-2.2,3.1
		c-0.8,0.8-1.9,1.5-3.3,2.1c-1.4,0.6-3.1,0.9-5.1,0.9c-2,0-4.1-0.4-6.3-1.1c-2.2-0.7-4.2-1.9-6-3.6c-1.8-1.6-3.3-3.7-4.5-6.3
		c-1.2-2.6-1.8-5.7-1.8-9.3c0-2.5,0.3-5,0.9-7.6c0.6-2.5,1.4-5,2.3-7.4c0.9-2.4,2-4.7,3.1-6.9c1.1-2.2,2.2-4.3,3.2-6.2v0.1
		c1.2-2.2,2.2-4,3-5.7s1.2-2.9,1.2-3.7c0-0.6-0.4-0.7-1.2-0.2c-0.8,0.5-1.9,1.4-3.2,2.7c-1.3,1.3-2.8,2.8-4.5,4.6
		c-1.7,1.8-3.4,3.7-5.1,5.7c-1.7,2-3.3,3.9-4.9,5.8c-1.6,1.9-2.9,3.6-4,5.1l-1,1.2l-0.1,0.2c-0.9,1.8-1.7,3.6-2.5,5.3
		c-0.8,1.8-1.5,3.4-2.1,4.8c-0.6,1.5-1.1,2.7-1.5,3.8c-0.4,1.1-0.5,1.9-0.5,2.5c0,0.7,0,1.2,0.1,1.6c0.1,0.4,0.2,0.8,0.3,1
		c0.1,0.2,0.2,0.4,0.4,0.6c0.1,0.1,0.3,0.2,0.4,0.3c0.3,0.2,0.5,0.5,0.7,0.7s0.3,0.6,0.3,1.1c0,0.2-0.2,0.4-0.7,0.5
		c-0.5,0.1-1,0.1-1.7-0.1c-0.7-0.1-1.5-0.4-2.3-0.7c-0.8-0.3-1.6-0.8-2.3-1.5c-0.7-0.7-1.3-1.5-1.8-2.5c-0.5-1-0.7-2.2-0.7-3.6
		c0-1.3,0.3-3.1,1-5.3c0.7-2.2,1.6-4.5,2.7-7.1c1.1-2.6,2.3-5.2,3.6-8c1.3-2.8,2.6-5.5,3.9-8.1c0.8-1.8,1.7-3.5,2.5-5.2
		c0.8-1.6,1.5-3.1,2.1-4.5c0.6-1.3,1.1-2.5,1.4-3.4c0.4-1,0.5-1.6,0.5-2c0-0.2,0-0.3,0.1-0.4c-0.6,0-1.5,0.5-2.6,1.4
		s-2.4,2.1-3.8,3.5s-3,3.1-4.6,5c-1.6,1.9-3.2,3.7-4.8,5.6c-1.6,1.9-3.1,3.8-4.5,5.5s-2.7,3.3-3.7,4.7c-1,2.1-2,4.1-3,6.1
		c-1,2-1.8,3.9-2.5,5.7c-0.7,1.8-1.3,3.4-1.8,4.9c-0.5,1.5-0.7,2.6-0.7,3.6c0,1.1,0.1,1.9,0.2,2.4c0.1,0.4,0.3,0.8,0.4,1
		c0.1,0.2,0.3,0.5,0.4,0.8s0.2,0.6,0.2,1c0,0.7-0.2,1.2-0.6,1.6s-1,0.5-1.7,0.5c-0.6,0-1.3-0.2-2-0.6c-0.8-0.4-1.5-1-2.2-1.9
		s-1.3-1.9-1.8-3.2c-0.5-1.3-0.7-2.8-0.7-4.6c0-1,0.3-2.3,0.8-3.9c0.5-1.6,1.2-3.4,2-5.4c0.8-2,1.8-4.2,2.9-6.6
		c1.1-2.4,2.2-4.8,3.4-7.3c1.3-2.8,2.6-5.5,3.9-8.3s2.4-5.4,3.4-7.9c1-2.5,1.8-4.8,2.5-6.8c0.6-2,1-3.7,1-5c0-1.4-0.4-2.1-1.3-2.1
		c-1.7,0-3.5,0.5-5.4,1.5c-1.9,1-3.8,2.4-5.7,4.1c-1.9,1.7-3.7,3.6-5.4,5.8s-3.3,4.4-4.6,6.7c-1.3,2.3-2.4,4.5-3.2,6.7
		s-1.2,4.1-1.2,5.9c0,1.7,0.1,3.1,0.2,4.3s0.4,2.1,0.6,2.9c0.2,0.8,0.5,1.4,0.7,1.8c0.2,0.4,0.5,0.8,0.7,1c0.2,0.3,0.3,0.5,0.5,0.8
		c0.2,0.2,0.2,0.5,0.2,0.9c0,0.4-0.2,0.8-0.7,1.1c-0.4,0.3-1.1,0.5-1.8,0.5s-1.7-0.2-2.8-0.6s-2.2-1.2-3.2-2.3
		c-1-1.1-1.9-2.6-2.6-4.5c-0.7-1.9-1.1-4.4-1.1-7.4c0-2.5,0.5-5.1,1.5-7.6c1-2.6,2.3-5.1,4-7.4s3.7-4.6,6-6.7
		c2.3-2.1,4.8-3.9,7.5-5.5c2.7-1.5,5.5-2.8,8.4-3.7c2.9-0.9,5.9-1.4,8.8-1.4c1.3,0,2.4,0.2,3.3,0.6c0.9,0.4,1.6,0.9,2.2,1.6
		c0.6,0.6,1,1.3,1.3,2.1c0.3,0.8,0.5,1.5,0.6,2.3c0.1,0.8,0.2,1.5,0.2,2.1c0,0.6,0,1.1,0,1.4c0,1.5-0.4,3.4-1.1,5.6
		c-0.7,2.2-1.7,4.7-2.8,7.3c1.7-2,3.4-3.9,5.2-5.7s3.5-3.5,5.2-4.9s3.4-2.5,5-3.4c1.6-0.8,3.1-1.3,4.4-1.3c1.8,0,3.1,0.5,4.1,1.6
		s1.5,2.8,1.5,5.2c0,0.4-0.1,1-0.4,1.9s-0.6,1.8-1.1,2.9c-0.5,1.1-1,2.4-1.7,3.7s-1.3,2.8-2.1,4.3c1.7-1.9,3.3-3.6,5-5.3
		c1.7-1.7,3.3-3.1,4.9-4.4c1.6-1.3,3.1-2.3,4.5-3s2.6-1.1,3.6-1.1c1.2,0,2.3,0.2,3.1,0.6c0.8,0.4,1.5,0.9,2,1.6
		c0.5,0.7,0.9,1.4,1.1,2.3c0.2,0.8,0.3,1.7,0.3,2.6c0,1.3-0.5,3-1.5,5c-1,2-2.2,4.2-3.7,6.7c-1,1.8-2.1,3.7-3.2,5.8
		c-1.1,2-2.1,4.1-3,6.3c-0.9,2.2-1.7,4.4-2.3,6.5c-0.6,2.2-0.9,4.3-0.9,6.5c0,2.9,0.4,5.3,1.3,7.1c0.9,1.8,2,3.3,3.2,4.3
		c1.3,1.1,2.6,1.8,3.9,2.2s2.6,0.6,3.6,0.6c1.9,0,3.3-0.3,4.2-0.9C256,70.2,256.7,69.6,257,69z"/>
	<path class="st0" d="M248.8,53.3c0-1.5,0.3-3.1,0.8-4.7c0.5-1.6,1.2-3.3,2.1-4.9c0.9-1.6,2-3.1,3.2-4.5c1.2-1.4,2.6-2.7,4-3.8
		s2.9-1.9,4.5-2.6c1.6-0.6,3.1-1,4.7-1c1.3,0,2.5,0.2,3.4,0.6c0.9,0.4,1.7,0.8,2.3,1.4c0.6,0.6,1.1,1.2,1.4,1.9
		c0.3,0.7,0.5,1.4,0.7,2c0.1,0.7,0.2,1.2,0.1,1.8c0,0.5-0.1,0.9-0.2,1.1h0.1c-0.1,0.3-0.3,0.4-0.7,0.4c-0.3,0-0.7-0.1-1-0.2
		c-0.3-0.1-0.6-0.3-0.9-0.5c-0.3-0.2-0.4-0.3-0.3-0.5c0-0.1,0-0.3,0-0.6c0-0.3-0.1-0.6-0.3-1c-0.2-0.3-0.5-0.6-1-0.9
		c-0.4-0.3-1.1-0.4-1.9-0.4c-0.8,0-1.8,0.4-2.7,1.1c-1,0.7-1.9,1.7-2.9,2.9c-1,1.2-1.9,2.5-2.8,4s-1.7,3-2.3,4.6
		c-0.7,1.5-1.2,3-1.6,4.5s-0.6,2.7-0.6,3.7c0,1.3,0.4,1.9,1.1,1.9c0.9,0,1.8-0.4,2.7-1.2c0.9-0.8,1.8-1.8,2.7-3
		c0.9-1.2,1.7-2.5,2.4-4c0.7-1.4,1.4-2.8,2-4.1s1-2.5,1.3-3.4s0.5-1.6,0.5-2s0.2-0.5,0.5-0.6c0.4-0.1,0.8,0,1.3,0.1
		c0.5,0.1,1.1,0.3,1.7,0.6c0.6,0.3,1.2,0.6,1.7,0.9s1,0.7,1.3,1.1s0.5,0.7,0.5,1c0,0.4-0.2,1-0.6,1.9c-0.4,0.9-0.8,1.9-1.3,3
		c-0.4,0.8-0.7,1.6-1.1,2.4c-0.4,0.8-0.7,1.7-1,2.5c-0.3,0.8-0.5,1.6-0.7,2.3s-0.3,1.3-0.3,1.7c0,0.2,0,0.3-0.1,0.3
		c0.5,0,1.1-0.4,1.9-1.2c0.8-0.8,1.6-1.9,2.5-3.2c0.9-1.3,1.8-2.7,2.7-4.3c0.9-1.6,1.7-3.1,2.5-4.5c0.8-1.5,1.5-2.8,2.1-4
		c0.6-1.2,1-2.1,1.3-2.6c0.1-0.3,0.4-0.4,0.8-0.4c0.4,0,0.8,0.1,1.2,0.2c0.4,0.2,0.7,0.4,1,0.7c0.3,0.3,0.3,0.6,0.2,0.8
		c-0.3,0.7-0.8,1.8-1.6,3.2c-0.7,1.4-1.6,3-2.5,4.7c-1,1.7-2,3.4-3.1,5.2c-1.1,1.8-2.2,3.4-3.4,4.9c-1.1,1.4-2.3,2.6-3.4,3.6
		c-1.1,0.9-2.1,1.4-3,1.4c-1,0-1.9-0.3-2.7-0.8c-0.8-0.5-1.4-1.1-1.9-1.7c-0.6-0.7-1.2-1.5-1.6-2.5c-0.4,0.5-0.9,1-1.5,1.6
		c-0.6,0.6-1.2,1.1-1.8,1.6c-0.7,0.5-1.3,0.9-2.1,1.2c-0.7,0.3-1.4,0.5-2.1,0.5c-1.4,0-2.6-0.3-3.6-0.9c-1-0.6-1.9-1.4-2.6-2.4
		c-0.7-1-1.2-2.1-1.6-3.4S248.8,54.5,248.8,53.3z"/>
	<path class="st0" d="M315.7,39.7c0.4-0.6,0.8-1.1,1.2-1.2c0.5-0.2,0.9-0.2,1.3-0.1c0.4,0.2,0.7,0.5,0.8,0.9c0.2,0.5,0.1,1-0.2,1.8
		c-0.6,1.4-1.5,2.9-2.7,4.4c-1.2,1.5-2.5,3-4.1,4.6c-1.5,1.5-3.2,3.1-5.1,4.7c-1.8,1.6-3.7,3.1-5.7,4.7c-0.9,1.9-1.9,4-2.9,6
		s-2.2,4.1-3.4,6.1c-1.2,2-2.4,3.9-3.7,5.7c-1.3,1.8-2.6,3.3-3.8,4.7c-1.3,1.3-2.6,2.4-3.8,3.2c-1.3,0.8-2.4,1.2-3.6,1.2
		c-1.6,0-3-0.2-4-0.6c-1.1-0.4-1.9-0.9-2.5-1.5c-0.6-0.6-1.1-1.2-1.3-1.9c-0.2-0.7-0.4-1.3-0.4-1.8c0-1.1,0.5-2.3,1.5-3.6
		c1-1.3,2.4-2.7,4.1-4.1c1.7-1.5,3.7-3,5.9-4.6s4.6-3.3,7.1-5.1l0.3-0.6c-0.7,0.5-1.3,0.9-2,1.2c-0.7,0.3-1.4,0.4-2.1,0.4
		c-1.4,0-2.6-0.3-3.6-0.9c-1-0.6-1.9-1.4-2.6-2.4c-0.7-1-1.2-2.1-1.6-3.4s-0.6-2.5-0.6-3.7c0-1.5,0.3-3.1,0.8-4.8
		c0.5-1.7,1.2-3.3,2.1-4.9c0.9-1.6,2-3.1,3.2-4.6c1.2-1.4,2.6-2.7,4-3.8c1.4-1.1,2.9-1.9,4.5-2.6c1.6-0.6,3.2-1,4.7-1
		c1.3,0,2.5,0.2,3.4,0.6s1.7,0.8,2.3,1.4c0.6,0.6,1.1,1.2,1.4,1.9s0.6,1.4,0.7,2c0.1,0.7,0.2,1.2,0.1,1.8s-0.1,0.9-0.2,1.2
		c-0.4,0.9-0.9,1.4-1.4,1.5c0.6,0.6,1,1.3,1.4,2c0.4,0.7,0.6,1.4,0.6,2.1c0,0.5-0.2,1.3-0.5,2.4c-0.3,1.1-0.7,2.3-1.2,3.6
		c2.5-2.1,4.8-4.2,6.8-6.3S314.6,41.8,315.7,39.7L315.7,39.7z M275.6,81.4c1,0,2-0.4,3-1.1c1.1-0.7,2.1-1.7,3.2-2.9
		c1.1-1.2,2.2-2.7,3.3-4.3c1.1-1.6,2.2-3.4,3.2-5.2c-1.9,1.4-3.6,2.8-5.3,4s-3.1,2.4-4.3,3.5c-1.2,1.1-2.2,2-2.9,2.9
		c-0.7,0.9-1.1,1.6-1.1,2.2C274.8,81.2,275.1,81.4,275.6,81.4z M302.5,40.1c0-0.1,0-0.3,0-0.6s-0.1-0.7-0.3-1c-0.2-0.4-0.5-0.7-1-1
		c-0.4-0.3-1.1-0.4-1.9-0.4c-0.8,0-1.8,0.4-2.7,1.1c-1,0.7-1.9,1.7-2.9,2.9c-1,1.2-1.9,2.6-2.8,4.1c-0.9,1.5-1.7,3-2.3,4.6
		c-0.7,1.6-1.2,3-1.6,4.5c-0.4,1.4-0.6,2.7-0.6,3.7c0,0.6,0.1,1.1,0.2,1.4c0.2,0.3,0.4,0.5,0.8,0.5c1,0,2-0.5,3.1-1.5
		c1-1,2-2.2,2.9-3.6c0.9-1.4,1.8-2.9,2.5-4.5c0.7-1.6,1.3-3,1.7-4.2v0.1c0.1-0.5,0.3-1,0.4-1.5c0.1-0.5,0.2-0.9,0.3-1.2v-0.2
		c0-1.1,0.2-1.9,0.6-2.4c0.4-0.5,0.9-0.7,1.6-0.7c0.6,0,1.2,0.2,1.8,0.6C302.4,40.6,302.4,40.3,302.5,40.1z"/>
	<path class="st0" d="M309.7,53.3c0-1.5,0.3-3.1,0.8-4.7c0.5-1.6,1.2-3.3,2.1-4.9c0.9-1.6,2-3.1,3.2-4.5s2.6-2.7,4-3.8
		s2.9-1.9,4.5-2.6c1.6-0.6,3.1-1,4.7-1c1.3,0,2.5,0.2,3.4,0.6s1.7,0.8,2.3,1.4c0.6,0.6,1.1,1.2,1.4,1.9c0.3,0.7,0.5,1.4,0.7,2
		c0.1,0.7,0.2,1.2,0.1,1.8s-0.1,0.9-0.2,1.1h0.1c-0.1,0.3-0.3,0.4-0.7,0.4c-0.3,0-0.7-0.1-1-0.2c-0.3-0.1-0.6-0.3-0.9-0.5
		c-0.3-0.2-0.4-0.3-0.3-0.5c0-0.1,0-0.3,0-0.6s-0.1-0.6-0.3-1s-0.5-0.6-1-0.9c-0.4-0.3-1.1-0.4-1.9-0.4c-0.8,0-1.8,0.4-2.7,1.1
		c-1,0.7-1.9,1.7-2.9,2.9c-1,1.2-1.9,2.5-2.8,4c-0.9,1.5-1.7,3-2.3,4.6c-0.7,1.5-1.2,3-1.6,4.5c-0.4,1.4-0.6,2.7-0.6,3.7
		c0,1.3,0.4,1.9,1.1,1.9c0.9,0,1.8-0.4,2.7-1.2s1.8-1.8,2.7-3c0.9-1.2,1.7-2.5,2.4-4c0.7-1.4,1.4-2.8,2-4.1s1-2.5,1.3-3.4
		c0.3-1,0.5-1.6,0.5-2s0.2-0.5,0.5-0.6c0.4-0.1,0.8,0,1.3,0.1c0.5,0.1,1.1,0.3,1.7,0.6c0.6,0.3,1.2,0.6,1.7,0.9
		c0.5,0.3,1,0.7,1.3,1.1s0.5,0.7,0.5,1c0,0.4-0.2,1-0.6,1.9c-0.4,0.9-0.8,1.9-1.3,3c-0.4,0.8-0.7,1.6-1.1,2.4
		c-0.4,0.8-0.7,1.7-1,2.5c-0.3,0.8-0.5,1.6-0.7,2.3s-0.3,1.3-0.3,1.7c0,0.2,0,0.3-0.1,0.3c0.5,0,1.1-0.4,1.9-1.2
		c0.8-0.8,1.6-1.9,2.5-3.2c0.9-1.3,1.8-2.7,2.7-4.3c0.9-1.6,1.8-3.1,2.5-4.5c0.8-1.5,1.5-2.8,2.1-4c0.6-1.2,1-2.1,1.3-2.6
		c0.1-0.3,0.4-0.4,0.8-0.4s0.8,0.1,1.2,0.2c0.4,0.2,0.7,0.4,1,0.7c0.3,0.3,0.3,0.6,0.2,0.8c-0.3,0.7-0.8,1.8-1.6,3.2
		c-0.7,1.4-1.6,3-2.5,4.7c-1,1.7-2,3.4-3.1,5.2c-1.1,1.8-2.2,3.4-3.4,4.9s-2.3,2.6-3.4,3.6c-1.1,0.9-2.1,1.4-3,1.4
		c-1,0-1.9-0.3-2.7-0.8c-0.8-0.5-1.4-1.1-1.9-1.7c-0.6-0.7-1.2-1.5-1.6-2.5c-0.4,0.5-0.9,1-1.5,1.6s-1.2,1.1-1.8,1.6
		c-0.7,0.5-1.3,0.9-2.1,1.2c-0.7,0.3-1.4,0.5-2.1,0.5c-1.4,0-2.6-0.3-3.6-0.9c-1-0.6-1.9-1.4-2.6-2.4c-0.7-1-1.2-2.1-1.6-3.4
		S309.7,54.5,309.7,53.3z"/>
	<path class="st0" d="M361.9,21.2c0,0.8-0.2,1.8-0.6,3.1c-0.4,1.3-1,2.7-1.7,4.3c-0.7,1.6-1.5,3.3-2.4,5.2c-0.9,1.9-1.8,3.8-2.8,5.7
		c-1,2-1.9,3.9-2.8,5.9c-0.9,1.9-1.8,3.7-2.5,5.4c-0.7,1.7-1.3,3.2-1.8,4.5c-0.4,1.3-0.7,2.4-0.7,3.1c0,0.2,0,0.4,0.1,0.4
		c0.6,0,1.4-0.4,2.3-1.2c0.9-0.8,1.8-1.8,2.8-3c1-1.2,2-2.6,3-4c1-1.5,2-2.9,2.9-4.3c0.9-1.4,1.7-2.7,2.3-3.8c0.7-1.1,1.1-2,1.4-2.5
		c0.1-0.3,0.4-0.4,0.8-0.5c0.4,0,0.8,0.1,1.2,0.2c0.4,0.2,0.7,0.4,1,0.7s0.3,0.6,0.2,0.8c-0.4,0.7-0.9,1.8-1.7,3.2s-1.7,2.9-2.8,4.6
		c-1.1,1.7-2.2,3.4-3.5,5.1c-1.3,1.8-2.6,3.3-4,4.7c-1.4,1.4-2.7,2.6-4.1,3.5c-1.3,0.9-2.6,1.4-3.8,1.4c-1.8,0-3.2-0.6-4.3-1.9
		c-1.1-1.3-1.7-3-1.7-5.2c0-0.8,0.2-1.9,0.7-3.4s1.1-3.3,2-5.2c0.8-1.9,1.7-4,2.7-6.2s2-4.4,3-6.6c1-2,1.9-4,2.8-5.9
		c0.9-1.9,1.7-3.7,2.4-5.4s1.3-3.1,1.7-4.3c0.4-1.2,0.6-2.1,0.6-2.7c0-0.6,0.4-0.8,1.1-0.7c0.7,0.1,1.6,0.4,2.5,0.9
		c0.9,0.5,1.7,1.2,2.5,1.9C361.5,19.7,361.9,20.5,361.9,21.2z"/>
	<path class="st0" d="M377.8,21.2c0,0.8-0.2,1.8-0.6,3.1c-0.4,1.3-1,2.7-1.7,4.3c-0.7,1.6-1.5,3.3-2.4,5.2c-0.9,1.9-1.8,3.8-2.8,5.7
		c-1,2-1.9,3.9-2.8,5.9c-0.9,1.9-1.8,3.7-2.5,5.4c-0.7,1.7-1.3,3.2-1.8,4.5c-0.4,1.3-0.7,2.4-0.7,3.1c0,0.2,0,0.4,0.1,0.4
		c0.6,0,1.4-0.4,2.3-1.2c0.9-0.8,1.8-1.8,2.8-3c1-1.2,2-2.6,3-4c1-1.5,2-2.9,2.9-4.3c0.9-1.4,1.7-2.7,2.3-3.8c0.7-1.1,1.1-2,1.4-2.5
		c0.1-0.3,0.4-0.4,0.8-0.5c0.4,0,0.8,0.1,1.2,0.2c0.4,0.2,0.7,0.4,1,0.7s0.3,0.6,0.2,0.8c-0.4,0.7-0.9,1.8-1.7,3.2s-1.7,2.9-2.8,4.6
		c-1.1,1.7-2.2,3.4-3.5,5.1c-1.3,1.8-2.6,3.3-4,4.7c-1.4,1.4-2.7,2.6-4.1,3.5c-1.3,0.9-2.6,1.4-3.8,1.4c-1.8,0-3.2-0.6-4.3-1.9
		c-1.1-1.3-1.7-3-1.7-5.2c0-0.8,0.2-1.9,0.7-3.4s1.1-3.3,2-5.2c0.8-1.9,1.7-4,2.7-6.2s2-4.4,3-6.6c1-2,1.9-4,2.8-5.9
		c0.9-1.9,1.7-3.7,2.4-5.4s1.3-3.1,1.7-4.3c0.4-1.2,0.6-2.1,0.6-2.7c0-0.6,0.4-0.8,1.1-0.7c0.7,0.1,1.6,0.4,2.5,0.9
		c0.9,0.5,1.7,1.2,2.5,1.9C377.4,19.7,377.8,20.5,377.8,21.2z"/>
	<path class="st0" d="M406.1,39.8c0.1-0.3,0.4-0.5,0.8-0.5c0.4,0,0.8,0.1,1.2,0.3c0.4,0.2,0.7,0.5,0.9,0.8c0.2,0.3,0.3,0.6,0.2,1
		c-0.2,0.5-0.6,1.2-1.1,2c-0.5,0.8-1.1,1.8-1.8,2.8c-0.7,1-1.5,2.1-2.5,3.2c-0.9,1.1-2,2.1-3.1,3c-1.1,0.9-2.3,1.8-3.6,2.4
		c-1.3,0.7-2.7,1.1-4.2,1.4c-1.6,2.2-3.4,4-5.4,5.5c-2,1.4-4.1,2.1-6.3,2.1c-1.2,0-2.3-0.2-3.4-0.7c-1.1-0.5-2.1-1.1-3-2
		c-0.9-0.9-1.6-2-2.1-3.4c-0.5-1.3-0.8-2.9-0.8-4.7c0-1.7,0.3-3.4,1-5.2s1.4-3.4,2.3-4.9c0.9-1.5,1.8-2.7,2.7-3.7
		c0.9-1,1.6-1.4,2.1-1.4c0.4,0,0.7,0,1.2,0.1c0.4,0.1,0.8,0.2,1.2,0.3c0.6-0.8,1.3-1.6,2-2.4c0.7-0.7,1.5-1.4,2.3-1.9
		c0.8-0.5,1.7-1,2.6-1.3s1.8-0.5,2.7-0.5c1.3,0,2.4,0.2,3.3,0.5c0.9,0.3,1.6,0.7,2.1,1.3c0.5,0.5,0.9,1.2,1.1,2
		c0.2,0.8,0.3,1.6,0.3,2.5c0,4.6-1,9.1-3.1,13.3c1.3-0.7,2.5-1.6,3.6-2.7c1.1-1.1,2.2-2.2,3.1-3.3s1.7-2.2,2.3-3.2
		C405.4,41.1,405.8,40.3,406.1,39.8z M381.5,59.6c1.2,0,2.4-0.3,3.5-1c1.1-0.7,2.1-1.5,3-2.7c-1.3-0.4-2.6-0.9-3.8-1.6
		c-1.2-0.7-2.2-1.6-3-2.5c-0.5,1.1-0.8,2.2-1.1,3.2c-0.3,1-0.5,1.9-0.5,2.7c0,0.6,0.1,1.1,0.4,1.4C380.3,59.5,380.8,59.6,381.5,59.6
		z M384.1,26.5c0.2,0,0.6-0.2,1.2-0.6c0.6-0.4,1.3-0.8,2-1.4c0.8-0.6,1.6-1.2,2.4-1.9c0.8-0.7,1.6-1.4,2.3-2
		c0.7-0.7,1.3-1.2,1.7-1.8c0.4-0.5,0.7-0.9,0.7-1.2c0-0.3,0.3-0.4,1-0.3c0.6,0.1,1.3,0.3,2.1,0.7s1.4,0.8,2.1,1.2
		c0.6,0.5,1,0.9,1,1.3c0,0.3-0.3,0.8-0.8,1.4c-0.5,0.6-1.3,1.2-2.1,1.9s-1.8,1.4-2.9,2.1c-1.1,0.7-2.2,1.4-3.3,2
		c-1.1,0.6-2.1,1.1-3,1.4s-1.7,0.6-2.4,0.6c-0.5,0-0.9-0.2-1.2-0.6s-0.5-0.8-0.7-1.2c-0.1-0.4-0.2-0.8-0.2-1.2
		C383.9,26.6,383.9,26.5,384.1,26.5z M387.6,49.6c0,0.8,0.2,1.5,0.6,2.1s1.1,0.9,2.1,1.1c0.7-1.2,1.3-2.5,1.9-3.8s1-2.6,1.4-3.8
		s0.7-2.5,0.9-3.6c0.2-1.1,0.3-2.1,0.3-3c0-1.4-0.2-2.1-0.5-2.1s-0.9,0.5-1.6,1.4s-1.5,2-2.3,3.4s-1.4,2.8-2,4.3
		C387.9,47,387.6,48.4,387.6,49.6z"/>
	<path class="st0" d="M434.3,39.7c0.4-0.6,0.8-1.1,1.3-1.2c0.5-0.2,0.9-0.2,1.3-0.1c0.4,0.2,0.7,0.5,0.8,0.9c0.2,0.5,0.1,1-0.2,1.7
		c-0.4,0.7-0.9,1.8-1.5,3.2c-0.7,1.4-1.5,2.9-2.4,4.6s-1.9,3.4-3,5.2c-1.1,1.8-2.2,3.3-3.4,4.8c-1.2,1.4-2.4,2.6-3.6,3.6
		c-1.2,0.9-2.4,1.4-3.5,1.4c-1.7,0-3.2-0.6-4.3-1.9c-1.1-1.3-1.7-3-1.7-5.2c0-0.7,0.1-1.7,0.5-2.7c0.3-1.1,0.7-2.3,1.2-3.5
		c0.5-1.3,1.1-2.6,1.7-4c0.6-1.4,1.2-2.7,1.8-4c-1.2,1.4-2.4,2.8-3.7,4.4c-1.3,1.6-2.5,3.1-3.7,4.6s-2.2,2.9-3,4.2
		c-0.9,1.3-1.5,2.4-2,3.3c0,0.2-0.1,0.3-0.1,0.5c0,0.1,0,0.2,0,0.3l0.1,0.4c0,0.1,0.1,0.2,0.1,0.4c0,0.1,0,0.3,0.1,0.4v-0.1
		c0.1,0.4,0.2,0.8,0.3,1.2c0.1,0.4,0.1,0.7,0,0.9c-0.1,0.3-0.2,0.5-0.5,0.6c-0.3,0.2-0.7,0.2-1.3,0.2c-0.7,0-1.4-0.2-2.1-0.5
		c-0.7-0.3-1.4-0.8-1.9-1.4c-0.6-0.6-1.1-1.4-1.5-2.2c-0.4-0.8-0.6-1.8-0.6-2.9c0-1,0.1-2,0.4-3c0.3-1.1,0.7-2.2,1.1-3.3
		c0.5-1.1,1-2.3,1.6-3.5c0.6-1.2,1.2-2.3,1.8-3.5c1-1.9,1.9-3.8,2.7-5.4s1.2-3,1.2-4.1c0-0.6,0.4-0.9,1.2-0.9c0.8,0,1.6,0.2,2.6,0.6
		c1,0.4,1.8,1,2.6,1.8c0.8,0.8,1.2,1.7,1.2,2.8c0,0.5-0.1,1.1-0.4,1.9s-0.6,1.6-1,2.5c1.1-1.3,2.2-2.6,3.3-3.8
		c1.1-1.2,2.1-2.3,3-3.3c0.9-1,1.8-1.8,2.5-2.4c0.7-0.6,1.2-0.9,1.5-0.9c0.1,0,0.2,0,0.3,0s0.3,0,0.4,0.1c0.4,0.1,0.9,0.4,1.4,0.8
		c0.5,0.4,1,0.8,1.5,1.3c0.5,0.5,0.8,1.1,1.1,1.7c0.3,0.6,0.5,1.2,0.5,1.9c0,0.5-0.3,1.4-0.9,2.7c-0.6,1.3-1.3,2.8-2.1,4.5
		c-0.6,1.2-1.2,2.5-1.9,3.9c-0.7,1.4-1.2,2.7-1.8,3.9c-0.5,1.3-1,2.4-1.3,3.5c-0.4,1.1-0.5,1.9-0.5,2.6c0,0.3,0,0.4,0.1,0.4
		c0.5,0,1.2-0.4,1.9-1.1s1.5-1.7,2.4-2.9s1.7-2.5,2.6-4c0.9-1.5,1.7-2.9,2.5-4.4c0.8-1.4,1.5-2.8,2.1-4.1c0.6-1.3,1.1-2.3,1.4-3
		V39.7z"/>
</g>
</svg>
