<!-- Generator: Adobe Illustrator 22.1.0, SVG Export Plug-In  -->
<svg version="1.1"
	 xmlns="http://www.w3.org/2000/svg" xmlns:xlink="http://www.w3.org/1999/xlink" xmlns:a="http://ns.adobe.com/AdobeSVGViewerExtensions/3.0/"
	 x="0px" y="0px" width="830px" height="614px" viewBox="0 0 830 614" style="enable-background:new 0 0 830 614;"
	 xml:space="preserve">
<style type="text/css">
	.st0{fill:url(#SVGID_1_);}
	.st1{fill:url(#SVGID_2_);}
	.st2{fill:#FFFFFF;}
	.st3{fill:url(#SVGID_3_);}
	.st4{fill:url(#SVGID_4_);}
</style>
<defs>
</defs>
<linearGradient id="SVGID_1_" gradientUnits="userSpaceOnUse" x1="153" y1="300.5" x2="780" y2="300.5">
	<stop  offset="0" style="stop-color:#FFFFFF"/>
	<stop  offset="9.553541e-02" style="stop-color:#F9F9F9"/>
	<stop  offset="0.2199" style="stop-color:#E9E9E9"/>
	<stop  offset="0.3602" style="stop-color:#CECECE"/>
	<stop  offset="0.5123" style="stop-color:#A9A9A9"/>
	<stop  offset="0.6738" style="stop-color:#787878"/>
	<stop  offset="0.8405" style="stop-color:#3E3E3E"/>
	<stop  offset="1" style="stop-color:#000000"/>
</linearGradient>
<path class="st0" d="M153,579c6-3,627-579,627-579l-16,601L153,579z"/>
<linearGradient id="SVGID_2_" gradientUnits="userSpaceOnUse" x1="0" y1="424" x2="830" y2="424">
	<stop  offset="0" style="stop-color:#FFFFFF"/>
	<stop  offset="9.553541e-02" style="stop-color:#F9F9F9"/>
	<stop  offset="0.2199" style="stop-color:#E9E9E9"/>
	<stop  offset="0.3602" style="stop-color:#CECECE"/>
	<stop  offset="0.5123" style="stop-color:#A9A9A9"/>
	<stop  offset="0.6738" style="stop-color:#787878"/>
	<stop  offset="0.8405" style="stop-color:#3E3E3E"/>
	<stop  offset="1" style="stop-color:#000000"/>
</linearGradient>
<polygon class="st1" points="830,234 0,576.4 801.7,614 "/>
<g>
	<path class="st2" d="M380.7,476.6c0.8,0,1.6,0.2,2.3,0.5s1.3,0.7,1.8,1.3s0.9,1.1,1.2,1.9c0.3,0.7,0.4,1.5,0.4,2.2
		c0,1.8-0.3,3.9-0.8,6.2c-0.5,2.3-1.3,4.7-2.2,7.2s-2.1,5-3.4,7.6s-2.8,5-4.5,7.4c-1.6,2.4-3.4,4.7-5.2,6.8
		c-1.9,2.1-3.8,3.9-5.9,5.5c-2,1.6-4.1,2.8-6.2,3.7c-2.1,0.9-4.3,1.4-6.4,1.4c-1.6,0-2.9-0.2-4-0.5s-1.9-0.8-2.6-1.4
		c-0.7-0.6-1.1-1.2-1.4-2s-0.4-1.5-0.4-2.2c0-0.3,0-0.6,0.1-1s0.1-0.6,0.2-1c0.4-1,0.8-1.7,1.3-2.1c0.5-0.4,1-0.6,1.5-0.6
		c0.8,0,1.4,0.3,1.8,0.9c0.4,0.6,0.5,1.3,0.1,2c-0.2,0.3-0.3,0.5-0.3,0.8c0,0.2-0.1,0.5-0.1,0.7c0,1.1,1.1,1.6,3.2,1.6
		c1.9,0,3.7-0.6,5.5-1.7s3.5-2.6,5.1-4.5c1.6-1.9,3.2-4,4.6-6.4c1.5-2.4,2.8-4.9,4.1-7.5c1.2-2.6,2.3-5.2,3.3-7.7
		c1-2.6,1.8-4.9,2.5-7.1c-1.1,1.4-2.4,2.9-3.8,4.5c-1.4,1.6-2.8,3.3-4.3,4.9c-1.5,1.6-3,3.2-4.6,4.7c-1.5,1.5-3,2.8-4.5,4
		c-1.4,1.2-2.8,2.1-4.1,2.8c-1.3,0.7-2.5,1-3.4,1c-3.3,0-5.8-1.5-7.8-4.4c-1.9-3-2.9-7.5-2.9-13.8c0-3.3,0.5-6.7,1.4-10.2
		c0.9-3.5,2.2-6.9,3.9-10.2s3.7-6.4,6-9.3c2.3-2.9,4.9-5.4,7.6-7.6s5.7-3.9,8.9-5.1c3.1-1.3,6.4-1.9,9.7-1.9c3.4,0,6,0.8,7.9,2.3
		c1.9,1.5,2.8,3.7,2.8,6.6c0,2-0.3,3.9-0.9,5.6c-0.6,1.8-1.3,3.4-2.2,4.7c-0.8,1.4-1.7,2.4-2.5,3.3c-0.8,0.8-1.4,1.2-1.8,1.2
		c-0.2,0-0.4-0.2-0.5-0.5c-0.1-0.3-0.2-0.7-0.1-1.1c0-0.4,0.1-0.8,0.2-1.1c0.1-0.3,0.2-0.5,0.3-0.5c0.2,0,0.5-0.3,0.7-0.8
		c0.3-0.5,0.5-1.2,0.7-2c0.2-0.8,0.4-1.7,0.6-2.7c0.2-1,0.3-2,0.3-3c0-0.5-0.1-1-0.2-1.6c-0.1-0.6-0.3-1.2-0.6-1.7
		c-0.3-0.5-0.6-1-1-1.3c-0.4-0.4-1-0.5-1.6-0.5c-3.1,0-6,0.8-8.7,2.4c-2.7,1.6-5.2,3.6-7.5,6.2c-2.3,2.5-4.3,5.4-6.1,8.7
		s-3.3,6.5-4.6,9.9c-1.3,3.3-2.2,6.6-2.9,9.7c-0.7,3.1-1,5.9-1,8.3c0,1.9,0.2,3.4,0.6,4.5s1,1.6,1.9,1.6c0.7,0,1.7-0.5,3-1.5
		c1.3-1,2.8-2.3,4.4-3.9c1.6-1.6,3.4-3.4,5.2-5.4c1.8-2,3.6-4,5.3-5.9c1.7-1.9,3.3-3.8,4.7-5.5c1.4-1.7,2.6-3.1,3.5-4.2
		c0-0.1,0-0.1,0-0.1c0,0,0,0,0-0.1c-0.1-0.4-0.2-0.7-0.2-1.1c-0.1-0.3,0-0.6,0.2-0.8c0.2-0.2,0.4-0.4,0.8-0.5
		C379.3,476.7,379.9,476.6,380.7,476.6z"/>
	<path class="st2" d="M423.4,478.1c0.1-0.3,0.4-0.5,0.8-0.5c0.4,0,0.8,0.1,1.2,0.3s0.7,0.5,0.9,0.8c0.2,0.3,0.3,0.6,0.2,1
		c-0.2,0.5-0.6,1.2-1.1,2c-0.5,0.8-1.1,1.8-1.8,2.8c-0.7,1-1.5,2.1-2.5,3.2s-2,2.1-3.1,3c-1.1,0.9-2.3,1.8-3.6,2.4s-2.7,1.1-4.2,1.4
		c-1.6,2.2-3.4,4-5.4,5.5c-2,1.4-4.1,2.1-6.3,2.1c-1.2,0-2.3-0.2-3.4-0.7c-1.1-0.5-2.1-1.1-3-2s-1.6-2-2.1-3.4
		c-0.5-1.3-0.8-2.9-0.8-4.7c0-1.7,0.3-3.4,1-5.2c0.7-1.8,1.4-3.4,2.3-4.9c0.9-1.5,1.7-2.7,2.7-3.7c0.9-1,1.6-1.4,2.1-1.4
		c0.4,0,0.7,0,1.2,0.1c0.4,0.1,0.8,0.2,1.2,0.3c0.6-0.8,1.3-1.6,2-2.4c0.7-0.7,1.5-1.4,2.3-1.9s1.7-1,2.6-1.3
		c0.9-0.3,1.8-0.5,2.7-0.5c1.3,0,2.4,0.2,3.3,0.5c0.9,0.3,1.6,0.7,2.1,1.3c0.5,0.5,0.9,1.2,1.1,2c0.2,0.8,0.3,1.6,0.3,2.5
		c0,4.6-1,9.1-3.1,13.3c1.3-0.7,2.5-1.6,3.6-2.7c1.1-1.1,2.2-2.2,3.1-3.3c0.9-1.1,1.7-2.2,2.3-3.2
		C422.6,479.4,423.1,478.7,423.4,478.1z M398.7,498c1.2,0,2.4-0.3,3.5-1c1.1-0.7,2.1-1.5,3-2.7c-1.3-0.4-2.6-0.9-3.8-1.6
		c-1.2-0.7-2.2-1.6-3-2.5c-0.5,1.1-0.8,2.2-1.1,3.2c-0.3,1-0.5,1.9-0.5,2.7c0,0.6,0.1,1.1,0.4,1.4C397.5,497.9,398,498,398.7,498z
		 M401.4,464.8c0.2,0,0.6-0.2,1.2-0.6c0.6-0.4,1.3-0.8,2-1.4c0.8-0.6,1.6-1.2,2.4-1.9c0.8-0.7,1.6-1.4,2.3-2
		c0.7-0.7,1.3-1.2,1.7-1.8c0.4-0.5,0.7-0.9,0.7-1.2c0-0.3,0.3-0.4,1-0.3c0.6,0.1,1.3,0.3,2.1,0.7s1.4,0.8,2.1,1.2
		c0.6,0.5,1,0.9,1,1.3c0,0.3-0.3,0.8-0.8,1.4c-0.5,0.6-1.3,1.2-2.1,1.9c-0.9,0.7-1.8,1.4-2.9,2.1s-2.2,1.4-3.3,2
		c-1.1,0.6-2.1,1.1-3,1.4c-1,0.4-1.8,0.6-2.4,0.6c-0.5,0-0.9-0.2-1.2-0.6c-0.3-0.4-0.5-0.8-0.7-1.2c-0.1-0.4-0.2-0.8-0.2-1.2
		S401.2,464.8,401.4,464.8z M404.9,488c0,0.8,0.2,1.5,0.6,2.1c0.4,0.6,1.1,0.9,2.1,1.1c0.7-1.2,1.3-2.5,1.9-3.8
		c0.6-1.3,1-2.6,1.4-3.8c0.4-1.3,0.7-2.5,0.9-3.6c0.2-1.1,0.3-2.1,0.3-3c0-1.4-0.2-2.1-0.5-2.1c-0.4,0-0.9,0.5-1.6,1.4
		s-1.5,2-2.3,3.4s-1.4,2.8-2,4.3C405.2,485.3,404.9,486.7,404.9,488z"/>
	<path class="st2" d="M467.6,478.1c0.1-0.3,0.4-0.4,0.8-0.4s0.8,0.1,1.2,0.2s0.7,0.4,1,0.6c0.3,0.3,0.3,0.5,0.2,0.8
		c-0.3,0.7-0.9,1.8-1.6,3.2c-0.8,1.4-1.7,2.9-2.7,4.6s-2.2,3.4-3.4,5.2c-1.2,1.8-2.5,3.4-3.8,4.8s-2.5,2.6-3.8,3.6
		c-1.3,0.9-2.4,1.4-3.4,1.4c-1.7,0-3.2-0.6-4.3-1.9c-1.1-1.3-1.7-3-1.7-5.2c0-0.7,0.2-1.7,0.5-2.8c0.3-1.1,0.7-2.3,1.2-3.6
		c0.5-1.3,1.1-2.7,1.7-4c0.6-1.4,1.3-2.7,1.9-4.1c-1.2,1.3-2.4,2.8-3.7,4.3c-1.3,1.5-2.5,3.1-3.7,4.6c-1.1,1.5-2.2,2.9-3.1,4.3
		c-0.9,1.4-1.6,2.5-2.1,3.5c0,0.2-0.1,0.3-0.1,0.5c0,0.1,0,0.3,0,0.4l0.1,0.4c0,0.1,0.1,0.2,0.1,0.4c0,0.1,0,0.3,0.1,0.4l-0.1-0.1
		c0.1,0.4,0.2,0.8,0.3,1.2c0.1,0.4,0.1,0.7,0,0.9c-0.1,0.3-0.3,0.5-0.5,0.6s-0.7,0.2-1.2,0.2c-0.7,0-1.4-0.2-2.1-0.5
		c-0.7-0.3-1.4-0.8-2-1.4c-0.6-0.6-1.1-1.4-1.4-2.2c-0.4-0.8-0.6-1.8-0.6-2.9c0-1,0.1-2,0.4-3c0.3-1.1,0.7-2.2,1.1-3.3
		c0.5-1.1,1-2.3,1.5-3.5c0.6-1.2,1.1-2.3,1.8-3.5c0.3-0.6,0.5-1,0.6-1.2c0.1-0.3,0.2-0.4,0.3-0.5c0.1-0.1,0.1-0.1,0-0.1
		c-1.2,1.3-2.5,2.8-3.8,4.4c-1.3,1.6-2.6,3.2-3.8,4.7c-1.2,1.6-2.3,3.1-3.3,4.5c-1,1.4-1.7,2.6-2.1,3.7c0,0.2-0.1,0.3-0.1,0.5
		c0,0.2,0,0.3,0,0.3c0,0.2,0,0.4,0.1,0.6s0.1,0.4,0.2,0.6c0.1,0.4,0.2,0.8,0.3,1.2c0.1,0.4,0.1,0.7,0,0.9c-0.1,0.3-0.2,0.5-0.5,0.6
		s-0.7,0.2-1.3,0.2c-0.7,0-1.4-0.2-2.1-0.5c-0.7-0.3-1.4-0.8-1.9-1.4c-0.6-0.6-1.1-1.4-1.5-2.2c-0.4-0.8-0.6-1.8-0.6-2.9
		c0-1,0.1-2,0.4-3s0.7-2.2,1.1-3.3c0.5-1.1,1-2.3,1.6-3.5c0.6-1.2,1.2-2.3,1.8-3.5c1-1.9,1.9-3.8,2.7-5.4c0.8-1.7,1.2-3,1.2-4.1
		c0-0.6,0.4-0.9,1.2-0.9c0.8,0,1.6,0.2,2.6,0.6c1,0.4,1.8,1,2.6,1.8c0.8,0.8,1.2,1.7,1.2,2.8c0,0.5-0.1,1.2-0.4,1.9
		c-0.2,0.7-0.6,1.5-1,2.4c1-1.2,2-2.4,3-3.6s2-2.2,2.9-3.2c0.9-1,1.7-1.8,2.4-2.4c0.7-0.6,1.3-1,1.7-1.2c0.5,0,1,0.1,1.7,0.4
		c0.7,0.3,1.3,0.7,1.9,1.2s1.1,1.2,1.6,1.9c0.4,0.7,0.7,1.6,0.7,2.5c0,0.5-0.1,1.1-0.3,1.8s-0.5,1.5-0.9,2.4
		c1.1-1.3,2.1-2.5,3.2-3.8c1.1-1.2,2.1-2.3,3-3.3c0.9-1,1.7-1.7,2.4-2.3c0.7-0.6,1.2-0.9,1.5-0.9c0.1,0,0.2,0,0.3,0s0.2,0,0.4,0.1
		c0.4,0.1,0.9,0.4,1.4,0.7c0.5,0.4,1,0.8,1.5,1.4s0.8,1.1,1.2,1.7c0.3,0.6,0.5,1.2,0.5,1.8c0,0.5-0.3,1.4-0.9,2.7
		c-0.6,1.3-1.3,2.8-2.1,4.5c-0.6,1.2-1.2,2.5-1.9,3.9c-0.7,1.4-1.2,2.7-1.8,3.9c-0.5,1.3-1,2.4-1.3,3.5c-0.4,1.1-0.5,1.9-0.5,2.6
		c0,0.3,0.1,0.4,0.2,0.4c0.5,0,1.2-0.4,2-1.2c0.8-0.8,1.7-1.9,2.7-3.1c1-1.3,2-2.7,3-4.2c1-1.5,2-3,2.8-4.5s1.7-2.8,2.3-3.9
		C466.8,479.6,467.3,478.7,467.6,478.1z"/>
	<path class="st2" d="M492.8,478.1c0.1-0.3,0.4-0.4,0.8-0.4s0.8,0.1,1.2,0.2c0.4,0.2,0.7,0.4,1,0.7c0.3,0.3,0.3,0.6,0.2,0.8
		c-0.4,0.7-0.9,1.8-1.6,3.2c-0.7,1.4-1.6,2.9-2.7,4.6s-2.3,3.4-3.7,5.2c-1.4,1.8-2.9,3.4-4.6,4.8c-1.7,1.4-3.4,2.6-5.4,3.6
		c-1.9,0.9-3.9,1.4-6,1.4c-1.8,0-3.3-0.4-4.6-1.1s-2.3-1.7-3.2-2.8c-0.8-1.1-1.5-2.4-1.9-3.7c-0.4-1.3-0.6-2.6-0.6-3.9
		c0-2.5,0.6-4.9,1.8-7.3c1.2-2.4,2.8-4.6,4.7-6.5c2-1.9,4.2-3.5,6.6-4.6c2.5-1.2,5-1.8,7.5-1.8c1.7,0,2.9,0.4,3.6,1.1
		c0.7,0.7,1.1,1.7,1.1,3c0,0.9-0.2,2-0.7,3.2c-0.5,1.2-1.1,2.4-1.9,3.7c-0.8,1.3-1.8,2.5-2.8,3.8s-2.2,2.4-3.4,3.4
		c-1.2,1-2.4,1.9-3.6,2.6c-1.2,0.7-2.4,1.2-3.6,1.5c-0.1,0.7-0.2,1.3-0.2,2c0,0.8,0.1,1.5,0.4,2c0.3,0.5,0.8,0.8,1.4,0.8
		c1.6,0,3.1-0.4,4.6-1.2c1.5-0.8,3-1.8,4.3-3c1.4-1.2,2.7-2.6,3.9-4.1c1.2-1.5,2.3-3,3.3-4.4c1-1.4,1.8-2.7,2.4-3.9
		C492,479.5,492.5,478.6,492.8,478.1z M483.2,474.1c-0.8,0-1.8,0.4-2.8,1.2c-1,0.8-2,1.9-3,3.2c-1,1.3-1.9,2.8-2.8,4.5
		c-0.9,1.7-1.6,3.3-2.2,4.9c1.3-0.6,2.6-1.6,3.9-2.8c1.3-1.2,2.5-2.5,3.6-3.8c1.1-1.3,1.9-2.7,2.6-3.9c0.7-1.3,1-2.3,1-3.1
		C483.5,474.2,483.4,474.1,483.2,474.1z"/>
	<path class="st2" d="M519.4,478c0.4-0.6,0.8-1.1,1.2-1.2c0.5-0.2,0.9-0.2,1.3-0.1c0.4,0.1,0.7,0.5,0.8,0.9c0.2,0.5,0.1,1.1-0.2,1.7
		c-0.6,1.4-1.5,2.9-2.5,4.3c-1,1.5-2.3,3-3.6,4.5c-1.4,1.5-2.9,3.1-4.5,4.6c-1.6,1.5-3.3,3.1-5,4.6c0.1,0.5,0.2,1,0.3,1.6
		c0.1,0.6,0.1,1.3,0.1,2.1c0,0.8-0.2,1.9-0.7,3.4c-0.5,1.4-1.1,3-1.9,4.8c-0.8,1.7-1.8,3.5-3,5.3c-1.1,1.8-2.4,3.4-3.8,4.9
		s-2.9,2.6-4.5,3.6c-1.6,0.9-3.3,1.4-5,1.4c-1.6,0-2.9-0.2-4-0.6c-1.1-0.4-1.9-0.9-2.5-1.5c-0.6-0.6-1.1-1.2-1.3-1.9
		c-0.2-0.7-0.4-1.3-0.4-1.8c0-1,0.4-2.2,1.2-3.4c0.8-1.2,2-2.6,3.4-4s3.1-2.9,5-4.5c1.9-1.6,3.9-3.2,6-4.9v0.1l4-3.3v-0.4v-0.7
		c-0.4,0-0.9,0.4-1.6,1c-0.7,0.6-1.3,1.2-1.9,1.8c-0.2,0.2-0.4,0.5-0.7,0.7c-0.2,0.2-0.4,0.4-0.6,0.6c-0.2,0.2-0.5,0.3-0.7,0.5
		c-0.2,0.1-0.4,0.2-0.5,0.2h-0.3c-0.1,0-0.1,0-0.2,0c-0.1,0-0.2,0-0.3-0.1c-0.5-0.1-1-0.3-1.5-0.6c-0.5-0.3-1-0.7-1.4-1.1
		c-0.4-0.4-0.8-0.9-1-1.4c-0.3-0.5-0.4-1-0.4-1.5c0-0.3,0.1-0.8,0.3-1.4c0.2-0.6,0.5-1.3,0.9-2s0.8-1.5,1.2-2.4
		c0.5-0.8,0.9-1.7,1.4-2.5c1.1-1.9,2.4-4,3.9-6.3c-0.4-0.2-0.9-0.6-1.4-1c-0.5-0.4-1-0.9-1.5-1.6c-0.5-0.6-0.8-1.4-1.2-2.3
		c-0.3-0.9-0.5-1.9-0.5-3c0-1.2,0.1-2.3,0.4-3.4c0.3-1.1,0.6-2.1,1.1-3s0.9-1.6,1.5-2.2s1.1-0.8,1.7-0.8c0.6,0,1.2,0.1,2,0.2
		c0.7,0.1,1.4,0.3,2.1,0.6c0.7,0.3,1.2,0.6,1.7,1.1c0.5,0.4,0.7,1,0.7,1.7c0,0.5-0.2,1.1-0.5,1.8c-0.3,0.6-0.7,1.3-1.1,2
		c-0.5,0.8-0.9,1.7-1.3,2.6s-0.6,1.8-0.6,2.6c0,0.6,0.1,1.1,0.2,1.6c0.2,0.4,0.4,0.8,0.6,1.1c0.3,0.3,0.6,0.6,0.9,0.8
		s0.6,0.4,0.9,0.6c0.6,0.4,1.1,0.7,1.5,1c0.4,0.3,0.6,0.8,0.6,1.5c0,0.9-0.4,2.1-1.1,3.6c-0.7,1.5-1.6,3.2-2.6,4.9
		c0.4-0.1,0.7-0.2,1-0.2c0.6,0,1.1,0.1,1.7,0.2c0.6,0.2,1.1,0.5,1.7,0.9c3-2.6,5.8-5.3,8.4-8C516,483.4,518,480.7,519.4,478
		L519.4,478z M484.6,518.3h-0.1c0.1,0,0.1,0.1,0.1,0.2V518.3z M497.5,505.4c-1.7,1.4-3.3,2.8-4.9,4.1c-1.5,1.3-2.9,2.5-4.1,3.6
		s-2.1,2.1-2.8,3c-0.7,0.9-1.1,1.6-1.1,2.1c1.3,0,2.6-0.5,3.9-1.3c1.2-0.8,2.4-1.8,3.5-3c1.1-1.2,2.1-2.6,3-4.1
		C495.9,508.4,496.7,506.9,497.5,505.4z"/>
	<path class="st2" d="M608.7,507.4c0.4-0.7,0.8-1.1,1.2-1.1s0.8,0.1,1.1,0.4c0.4,0.3,0.8,0.8,1.1,1.3c-0.5,1.1-1.3,2.2-2.2,3.1
		c-0.8,0.8-1.9,1.5-3.3,2.1c-1.4,0.6-3.1,0.9-5.1,0.9c-2,0-4.1-0.4-6.3-1.1s-4.2-1.9-6-3.6c-1.8-1.6-3.3-3.7-4.5-6.3
		s-1.8-5.7-1.8-9.3c0-2.5,0.3-5,0.9-7.6c0.6-2.5,1.4-5,2.3-7.4c0.9-2.4,2-4.7,3.1-6.9c1.1-2.2,2.2-4.3,3.2-6.2v0.1
		c1.2-2.2,2.2-4,3-5.7c0.8-1.6,1.2-2.9,1.2-3.7c0-0.6-0.4-0.7-1.2-0.2c-0.8,0.5-1.9,1.4-3.2,2.7c-1.3,1.3-2.8,2.8-4.5,4.6
		c-1.7,1.8-3.4,3.7-5.1,5.7s-3.3,3.9-4.9,5.8c-1.6,1.9-2.9,3.6-4,5.1l-1,1.2l-0.1,0.2c-0.9,1.8-1.7,3.6-2.5,5.3
		c-0.8,1.8-1.5,3.4-2.1,4.8c-0.6,1.5-1.1,2.7-1.5,3.8c-0.4,1.1-0.5,1.9-0.5,2.5c0,0.7,0,1.2,0.1,1.6s0.2,0.8,0.3,1
		c0.1,0.2,0.2,0.4,0.4,0.6c0.1,0.1,0.3,0.2,0.4,0.3c0.3,0.2,0.5,0.5,0.7,0.7c0.2,0.2,0.3,0.6,0.3,1.1c0,0.2-0.2,0.4-0.7,0.5
		c-0.5,0.1-1,0.1-1.8-0.1c-0.7-0.1-1.5-0.4-2.3-0.7s-1.6-0.8-2.3-1.5c-0.7-0.7-1.3-1.5-1.7-2.5c-0.5-1-0.7-2.2-0.7-3.6
		c0-1.3,0.3-3.1,1-5.3s1.6-4.5,2.7-7.1c1.1-2.6,2.3-5.2,3.6-8c1.3-2.8,2.6-5.5,3.9-8.1c0.8-1.8,1.7-3.5,2.5-5.2s1.5-3.1,2.1-4.5
		c0.6-1.3,1.1-2.5,1.4-3.4c0.4-1,0.5-1.6,0.5-2c0-0.2,0-0.3,0.1-0.4c-0.6,0-1.5,0.5-2.6,1.4c-1.1,0.9-2.4,2.1-3.8,3.5
		c-1.4,1.4-3,3.1-4.6,5c-1.6,1.9-3.2,3.7-4.8,5.6c-1.6,1.9-3.1,3.8-4.5,5.5s-2.7,3.3-3.7,4.7c-1,2.1-2,4.1-3,6.1
		c-1,2-1.8,3.9-2.5,5.7c-0.7,1.8-1.3,3.4-1.8,4.9c-0.5,1.5-0.7,2.6-0.7,3.6c0,1.1,0.1,1.9,0.2,2.4c0.1,0.4,0.3,0.8,0.4,1
		c0.1,0.2,0.3,0.5,0.4,0.8c0.1,0.3,0.2,0.6,0.2,1c0,0.7-0.2,1.2-0.6,1.6c-0.4,0.4-1,0.5-1.7,0.5c-0.6,0-1.3-0.2-2-0.6
		c-0.8-0.4-1.5-1-2.2-1.9c-0.7-0.8-1.3-1.9-1.7-3.2s-0.7-2.8-0.7-4.6c0-1,0.3-2.3,0.8-3.9c0.5-1.6,1.2-3.4,2-5.4
		c0.8-2,1.8-4.2,2.9-6.6c1.1-2.4,2.2-4.8,3.4-7.3c1.3-2.8,2.6-5.5,3.9-8.3c1.3-2.8,2.4-5.4,3.4-7.9s1.8-4.8,2.5-6.8c0.6-2,1-3.7,1-5
		c0-1.4-0.4-2.1-1.3-2.1c-1.7,0-3.5,0.5-5.4,1.5s-3.8,2.4-5.7,4.1c-1.9,1.7-3.7,3.6-5.4,5.8c-1.7,2.2-3.3,4.4-4.6,6.7
		c-1.3,2.3-2.4,4.5-3.2,6.7c-0.8,2.2-1.2,4.1-1.2,5.9c0,1.7,0.1,3.1,0.2,4.3c0.2,1.1,0.4,2.1,0.6,2.9c0.2,0.8,0.5,1.4,0.7,1.8
		c0.2,0.4,0.5,0.8,0.7,1c0.2,0.3,0.3,0.5,0.5,0.8c0.2,0.2,0.2,0.5,0.2,0.9c0,0.4-0.2,0.8-0.7,1.1c-0.4,0.3-1.1,0.5-1.8,0.5
		s-1.7-0.2-2.8-0.6s-2.2-1.2-3.2-2.3c-1-1.1-1.9-2.6-2.6-4.5c-0.7-1.9-1.1-4.4-1.1-7.4c0-2.5,0.5-5.1,1.5-7.6s2.3-5.1,4-7.4
		c1.7-2.4,3.7-4.6,6-6.7c2.3-2.1,4.8-3.9,7.5-5.5c2.7-1.5,5.5-2.8,8.4-3.7c2.9-0.9,5.9-1.4,8.8-1.4c1.3,0,2.4,0.2,3.3,0.6
		c0.9,0.4,1.6,0.9,2.2,1.6c0.6,0.6,1,1.3,1.3,2.1c0.3,0.8,0.5,1.5,0.6,2.3c0.1,0.8,0.2,1.5,0.2,2.1c0,0.6,0,1.1,0,1.4
		c0,1.5-0.4,3.4-1.1,5.6c-0.7,2.2-1.7,4.7-2.8,7.3c1.7-2,3.4-3.9,5.2-5.7c1.8-1.8,3.5-3.5,5.2-4.9s3.4-2.5,5-3.4s3.1-1.3,4.4-1.3
		c1.8,0,3.1,0.5,4.1,1.6c1,1.1,1.5,2.8,1.5,5.2c0,0.4-0.1,1-0.4,1.9c-0.3,0.8-0.6,1.8-1.1,2.9c-0.5,1.1-1,2.4-1.7,3.7
		c-0.6,1.4-1.3,2.8-2.1,4.3c1.7-1.9,3.3-3.6,5-5.3c1.7-1.7,3.3-3.1,4.9-4.4c1.6-1.3,3.1-2.3,4.5-3c1.4-0.7,2.6-1.1,3.6-1.1
		c1.2,0,2.3,0.2,3.1,0.6c0.8,0.4,1.5,0.9,2,1.6c0.5,0.7,0.9,1.4,1.1,2.3c0.2,0.8,0.3,1.7,0.3,2.6c0,1.3-0.5,3-1.5,5
		c-1,2-2.2,4.2-3.7,6.7c-1,1.8-2.1,3.7-3.2,5.8s-2.1,4.1-3,6.3c-0.9,2.2-1.7,4.4-2.3,6.5c-0.6,2.2-0.9,4.3-0.9,6.5
		c0,2.9,0.4,5.3,1.3,7.1c0.9,1.8,2,3.3,3.2,4.3c1.3,1.1,2.6,1.8,3.9,2.2c1.4,0.4,2.6,0.6,3.6,0.6c1.9,0,3.3-0.3,4.2-0.9
		C607.8,508.5,608.4,508,608.7,507.4z"/>
	<path class="st2" d="M634.7,478.1c0.1-0.3,0.4-0.5,0.8-0.5s0.8,0.1,1.2,0.3s0.7,0.5,0.9,0.8c0.2,0.3,0.3,0.6,0.2,1
		c-0.2,0.5-0.6,1.2-1.1,2c-0.5,0.8-1.1,1.8-1.8,2.8c-0.7,1-1.5,2.1-2.5,3.2s-2,2.1-3.1,3c-1.1,0.9-2.3,1.8-3.6,2.4s-2.7,1.1-4.2,1.4
		c-1.6,2.2-3.4,4-5.4,5.5c-2,1.4-4.1,2.1-6.3,2.1c-1.2,0-2.3-0.2-3.4-0.7c-1.1-0.5-2.1-1.1-3-2c-0.9-0.9-1.6-2-2.1-3.4
		c-0.5-1.3-0.8-2.9-0.8-4.7c0-1.7,0.3-3.4,1-5.2c0.7-1.8,1.4-3.4,2.3-4.9c0.9-1.5,1.7-2.7,2.7-3.7c0.9-1,1.6-1.4,2.1-1.4
		c0.4,0,0.7,0,1.2,0.1c0.4,0.1,0.8,0.2,1.2,0.3c0.6-0.8,1.3-1.6,2-2.4c0.7-0.7,1.5-1.4,2.3-1.9c0.8-0.5,1.7-1,2.6-1.3
		c0.9-0.3,1.8-0.5,2.7-0.5c1.3,0,2.4,0.2,3.3,0.5c0.9,0.3,1.6,0.7,2.1,1.3c0.5,0.5,0.9,1.2,1.1,2c0.2,0.8,0.3,1.6,0.3,2.5
		c0,4.6-1,9.1-3.1,13.3c1.3-0.7,2.5-1.6,3.6-2.7c1.1-1.1,2.2-2.2,3.1-3.3c0.9-1.1,1.7-2.2,2.3-3.2
		C634,479.4,634.4,478.7,634.7,478.1z M610.1,498c1.2,0,2.4-0.3,3.5-1c1.1-0.7,2.1-1.5,3-2.7c-1.3-0.4-2.6-0.9-3.8-1.6
		c-1.2-0.7-2.2-1.6-3-2.5c-0.5,1.1-0.8,2.2-1.1,3.2c-0.3,1-0.5,1.9-0.5,2.7c0,0.6,0.1,1.1,0.4,1.4S609.4,498,610.1,498z M616.2,488
		c0,0.8,0.2,1.5,0.6,2.1c0.4,0.6,1.1,0.9,2.1,1.1c0.7-1.2,1.3-2.5,1.9-3.8c0.6-1.3,1-2.6,1.4-3.8c0.4-1.3,0.7-2.5,0.9-3.6
		c0.2-1.1,0.3-2.1,0.3-3c0-1.4-0.2-2.1-0.5-2.1c-0.4,0-0.9,0.5-1.6,1.4s-1.5,2-2.3,3.4c-0.8,1.3-1.4,2.8-2,4.3
		C616.5,485.3,616.2,486.7,616.2,488z"/>
	<path class="st2" d="M654.2,478.1c0.1-0.3,0.4-0.4,0.8-0.4c0.4,0,0.8,0.1,1.2,0.2c0.4,0.2,0.7,0.4,1,0.6c0.3,0.3,0.3,0.5,0.2,0.8
		c-0.3,0.7-0.8,1.8-1.5,3.2c-0.7,1.4-1.5,2.9-2.4,4.6c-0.9,1.7-2,3.4-3,5.2c-1.1,1.8-2.2,3.4-3.4,4.8s-2.3,2.6-3.5,3.6
		c-1.2,0.9-2.3,1.4-3.3,1.4s-1.9-0.2-2.8-0.6s-1.5-0.9-2.1-1.5c-0.6-0.6-1-1.3-1.4-2.1c-0.3-0.8-0.5-1.6-0.5-2.4
		c0-1,0.2-2.3,0.6-3.7s0.9-2.8,1.4-4.1c0.6-1.5,1.3-3.1,2.1-4.7c-0.3-0.2-0.6-0.4-0.9-0.6s-0.6-0.5-0.9-0.7
		c-0.3,0.6-0.6,1.2-0.9,1.8c-0.3,0.7-0.9,1.6-1.6,2.8c-0.1,0.2-0.4,0.4-0.8,0.3c-0.4,0-0.8-0.2-1.2-0.4s-0.7-0.5-1-0.7
		c-0.2-0.3-0.3-0.5-0.1-0.8v0.1c0.5-0.9,1-1.7,1.3-2.3c0.3-0.6,0.6-1.2,0.8-1.7c0.2-0.5,0.4-0.9,0.6-1.2c0.2-0.4,0.4-0.7,0.5-1.1
		c-0.2-0.4-0.3-0.9-0.4-1.5c-0.1-0.5-0.1-1.1-0.1-1.7c0-1.2,0.1-2.3,0.4-3.4c0.3-1.1,0.7-2.1,1.1-3c0.5-0.9,1-1.6,1.5-2.2
		c0.6-0.5,1.1-0.8,1.8-0.8c0.5,0,1.2,0.1,1.9,0.2c0.7,0.1,1.4,0.3,2.1,0.6c0.7,0.3,1.2,0.6,1.7,1.1c0.5,0.4,0.7,1,0.7,1.6
		c0,0.6-0.2,1.2-0.5,1.8s-0.7,1.3-1.1,2c-0.5,0.8-0.9,1.7-1.4,2.6c-0.4,0.9-0.6,1.8-0.6,2.6c0,0.6,0.1,1.1,0.2,1.6
		c0.2,0.4,0.4,0.8,0.6,1.1c0.3,0.3,0.6,0.6,0.9,0.8c0.3,0.2,0.6,0.4,0.9,0.6c0.6,0.3,1.1,0.6,1.5,1s0.6,0.8,0.6,1.5
		c0,0.4-0.2,1.1-0.5,1.9s-0.8,1.8-1.3,2.8c-0.3,0.7-0.7,1.5-1,2.3c-0.4,0.8-0.7,1.6-1,2.3s-0.5,1.5-0.7,2.1
		c-0.2,0.7-0.3,1.2-0.3,1.7c0,0.4,0.1,0.6,0.3,0.6c0.5,0,1.2-0.4,2-1.2c0.8-0.8,1.6-1.9,2.5-3.1c0.9-1.3,1.8-2.7,2.7-4.2
		c0.9-1.6,1.8-3.1,2.6-4.6c0.8-1.5,1.5-2.9,2.1-4.1C653.4,479.8,653.9,478.9,654.2,478.1L654.2,478.1z"/>
	<path class="st2" d="M672.5,477.9c0.1-0.2,0.4-0.4,0.8-0.4c0.4,0,0.8,0.1,1.2,0.2c0.4,0.2,0.7,0.4,1,0.7c0.3,0.3,0.3,0.6,0.2,0.8
		c-0.4,0.8-0.9,1.9-1.7,3.3c-0.8,1.4-1.7,3-2.7,4.7c-1,1.7-2.2,3.4-3.4,5.2c-1.2,1.8-2.5,3.4-3.8,4.8c-1.3,1.4-2.7,2.6-4.1,3.5
		c-1.4,0.9-2.8,1.4-4.1,1.4c-1.8,0-3.2-0.6-4.3-1.9c-1.1-1.3-1.7-3-1.7-5.2c0-0.8,0.2-1.8,0.5-3c0.4-1.2,0.8-2.5,1.4-3.9
		c0.6-1.4,1.2-2.8,1.9-4.3c0.7-1.5,1.4-2.9,2-4.3c0.8-1.8,1.6-3.4,2.2-4.7c0.6-1.3,0.9-2.2,0.9-2.6c0-0.6,0.4-0.8,1.1-0.8
		c0.7,0.1,1.5,0.3,2.3,0.8c0.8,0.5,1.6,1.1,2.3,1.8s1.1,1.5,1.1,2.3c0,0.2-0.1,0.6-0.3,1.1c-0.2,0.5-0.4,1.1-0.7,1.7s-0.6,1.4-1,2.1
		c-0.4,0.8-0.7,1.5-1.1,2.3c-0.6,1.2-1.2,2.5-1.8,3.9s-1.3,2.7-1.8,4c-0.5,1.3-1,2.4-1.4,3.5c-0.4,1.1-0.5,1.9-0.5,2.5
		c0,0.3,0.1,0.5,0.2,0.5c0.8,0,1.7-0.4,2.6-1.2c1-0.8,2-1.9,3-3.2c1-1.3,2.1-2.7,3.1-4.2c1-1.6,2-3.1,2.8-4.5c0.9-1.5,1.6-2.8,2.3-4
		C671.8,479.4,672.2,478.5,672.5,477.9L672.5,477.9z M656.6,464.8c0.2,0,0.6-0.2,1.2-0.6c0.6-0.4,1.3-0.8,2-1.4
		c0.8-0.6,1.6-1.2,2.4-1.9c0.8-0.7,1.6-1.4,2.3-2c0.7-0.7,1.3-1.2,1.7-1.8c0.4-0.5,0.7-0.9,0.7-1.2c0-0.3,0.3-0.4,1-0.3
		c0.6,0.1,1.3,0.3,2.1,0.7c0.7,0.4,1.4,0.8,2.1,1.2c0.6,0.5,1,0.9,1,1.3c0,0.3-0.3,0.8-0.8,1.4c-0.5,0.6-1.3,1.2-2.1,1.9
		c-0.9,0.7-1.8,1.4-2.9,2.1c-1.1,0.7-2.2,1.4-3.3,2c-1.1,0.6-2.1,1.1-3,1.4c-1,0.4-1.7,0.6-2.4,0.6c-0.5,0-0.9-0.2-1.2-0.6
		c-0.3-0.4-0.5-0.8-0.7-1.2c-0.1-0.4-0.2-0.8-0.2-1.2C656.3,465,656.4,464.8,656.6,464.8z"/>
	<path class="st2" d="M705,478.1c0.4-0.6,0.8-1.1,1.3-1.2c0.5-0.2,0.9-0.2,1.3-0.1c0.4,0.2,0.7,0.5,0.8,0.9c0.2,0.5,0.1,1-0.2,1.7
		c-0.4,0.7-0.9,1.8-1.5,3.2c-0.7,1.4-1.5,2.9-2.4,4.6s-1.9,3.4-3,5.2c-1.1,1.8-2.2,3.3-3.4,4.8c-1.2,1.4-2.4,2.6-3.6,3.6
		c-1.2,0.9-2.4,1.4-3.5,1.4c-1.7,0-3.2-0.6-4.3-1.9c-1.1-1.3-1.7-3-1.7-5.2c0-0.7,0.2-1.7,0.5-2.7c0.3-1.1,0.7-2.3,1.2-3.5
		c0.5-1.3,1.1-2.6,1.7-4c0.6-1.4,1.2-2.7,1.8-4c-1.2,1.4-2.4,2.8-3.7,4.4c-1.3,1.6-2.5,3.1-3.7,4.6c-1.1,1.5-2.2,2.9-3,4.2
		c-0.9,1.3-1.5,2.4-2,3.3c0,0.2-0.1,0.3-0.1,0.5c0,0.1,0,0.2,0,0.3l0.1,0.4c0,0.1,0.1,0.2,0.1,0.4c0,0.1,0,0.3,0.1,0.4v-0.1
		c0.1,0.4,0.2,0.8,0.3,1.2c0.1,0.4,0.1,0.7,0,0.9c-0.1,0.3-0.2,0.5-0.5,0.6c-0.3,0.2-0.7,0.2-1.3,0.2c-0.7,0-1.4-0.2-2.1-0.5
		c-0.7-0.3-1.4-0.8-1.9-1.4c-0.6-0.6-1.1-1.4-1.5-2.2c-0.4-0.8-0.6-1.8-0.6-2.9c0-1,0.1-2,0.4-3s0.7-2.2,1.1-3.3
		c0.5-1.1,1-2.3,1.6-3.5c0.6-1.2,1.2-2.3,1.8-3.5c1-1.9,1.9-3.8,2.7-5.4c0.8-1.7,1.2-3,1.2-4.1c0-0.6,0.4-0.9,1.2-0.9
		c0.8,0,1.6,0.2,2.6,0.6c1,0.4,1.8,1,2.6,1.8c0.8,0.8,1.2,1.7,1.2,2.8c0,0.5-0.1,1.1-0.4,1.9s-0.6,1.6-1,2.5
		c1.1-1.3,2.2-2.6,3.3-3.8s2.1-2.3,3-3.3c0.9-1,1.8-1.8,2.5-2.4c0.7-0.6,1.2-0.9,1.5-0.9c0.1,0,0.2,0,0.3,0c0.1,0,0.3,0,0.4,0.1
		c0.4,0.1,0.9,0.4,1.4,0.8c0.5,0.4,1,0.8,1.5,1.3c0.5,0.5,0.8,1.1,1.1,1.7c0.3,0.6,0.5,1.2,0.5,1.9c0,0.5-0.3,1.4-0.9,2.7
		c-0.6,1.3-1.3,2.8-2.1,4.5c-0.6,1.2-1.2,2.5-1.9,3.9c-0.7,1.4-1.2,2.7-1.8,3.9c-0.5,1.3-1,2.4-1.3,3.5c-0.4,1.1-0.5,1.9-0.5,2.6
		c0,0.3,0,0.4,0.1,0.4c0.5,0,1.2-0.4,1.9-1.1s1.5-1.7,2.4-2.9c0.9-1.2,1.7-2.5,2.6-4c0.9-1.5,1.7-2.9,2.5-4.4
		c0.8-1.4,1.5-2.8,2.1-4.1c0.6-1.3,1.1-2.3,1.4-3V478.1z"/>
</g>
</svg>
