<?xml version="1.0" encoding="utf-8"?>
<!-- Generator: Adobe Illustrator 22.1.0, SVG Export Plug-In . SVG Version: 6.00 Build 0)  -->
<svg version="1.1" id="Layer_1" xmlns="http://www.w3.org/2000/svg" xmlns:xlink="http://www.w3.org/1999/xlink" x="0px" y="0px"
	 viewBox="0 0 532 226" style="enable-background:new 0 0 532 226;" xml:space="preserve">
<style type="text/css">
	.st0{fill:#117EC1;}
	.st1{fill:#97A9AF;}
	.st2{fill-rule:evenodd;clip-rule:evenodd;fill:#117EC1;}
	.st3{fill:#FFFFFF;}
	.st4{opacity:0.8;}
</style>
<g>
	<g>
		<path class="st3" d="M49.7,90.3c-5.9,0-11.3-1.1-16.1-3.4c-4.8-2.3-9-5.2-12.4-8.9c-3.4-3.7-6.1-7.9-8-12.7
			c-1.9-4.7-2.8-9.6-2.8-14.7c0-5.1,1-10,3-14.8c2-4.7,4.7-8.9,8.3-12.5c3.5-3.6,7.7-6.5,12.6-8.7c4.9-2.2,10.2-3.2,15.9-3.2
			c5.9,0,11.3,1.1,16.1,3.4c4.8,2.3,8.9,5.3,12.4,9c3.4,3.7,6.1,8,7.9,12.7c1.9,4.8,2.8,9.6,2.8,14.6c0,5.1-1,10-3,14.7
			c-2,4.7-4.7,8.9-8.2,12.5c-3.5,3.6-7.7,6.5-12.5,8.7C60.8,89.2,55.5,90.3,49.7,90.3z M32,50.8c0,2.6,0.4,5.2,1.1,7.6
			c0.7,2.4,1.8,4.6,3.3,6.5c1.5,1.9,3.3,3.4,5.5,4.6c2.2,1.2,4.9,1.8,7.9,1.8s5.7-0.6,8-1.8c2.3-1.2,4.1-2.8,5.5-4.7
			c1.4-1.9,2.5-4.1,3.2-6.6c0.7-2.5,1-5,1-7.6c0-2.6-0.4-5.2-1.1-7.6c-0.7-2.4-1.8-4.6-3.3-6.5c-1.5-1.9-3.4-3.4-5.6-4.5
			c-2.2-1.1-4.8-1.7-7.8-1.7c-3.1,0-5.7,0.6-7.9,1.8c-2.2,1.2-4.1,2.7-5.5,4.7c-1.5,1.9-2.5,4.1-3.2,6.6C32.4,45.7,32,48.2,32,50.8z
			"/>
		<path class="st3" d="M96.3,89.6V11.8H132c3.8,0,7.3,0.8,10.5,2.4c3.2,1.6,6,3.6,8.3,6.1c2.3,2.5,4.1,5.4,5.4,8.7
			c1.3,3.3,2,6.5,2,9.8c0,4.5-1,8.8-3,12.7c-2,3.9-4.7,7.1-8.2,9.6l16.4,28.6h-24.1l-13.7-23.9h-8v23.9H96.3z M117.6,47.1h13.5
			c1.3,0,2.5-0.7,3.7-2.2c1.1-1.5,1.7-3.5,1.7-6.1c0-2.7-0.7-4.8-2-6.2c-1.3-1.4-2.6-2.1-3.9-2.1h-12.9V47.1z"/>
		<path class="st3" d="M219.9,83.1c-5.6,4.7-11.9,7-19.2,7c-5,0-9.9-0.9-14.5-2.7c-4.6-1.8-8.6-4.4-12.1-7.8
			C170.8,76.2,168,72,166,67c-2-5-3.1-10.6-3.1-17c0-5.5,1-10.6,3.1-15.3c2-4.7,4.9-8.8,8.4-12.3c3.6-3.5,7.8-6.2,12.7-8.2
			c4.9-2,10.1-3,15.7-3c3.5,0,6.9,0.4,10.1,1.2c3.2,0.8,6.2,1.9,8.9,3.4c2.7,1.5,5.2,3.3,7.4,5.4c2.2,2.1,4,4.4,5.4,7.1l-15.9,12.2
			c-1.5-3.1-3.8-5.5-6.9-7.4c-3.1-1.9-6.3-2.8-9.8-2.8c-2.6,0-4.9,0.5-7,1.5c-2.1,1-3.9,2.4-5.5,4.3c-1.5,1.8-2.7,4-3.6,6.5
			c-0.9,2.5-1.3,5.3-1.3,8.3c0,3.1,0.4,5.8,1.3,8.3c0.9,2.5,2.1,4.6,3.7,6.4c1.6,1.8,3.5,3.2,5.6,4.2c2.2,1,4.6,1.5,7.3,1.5
			c6.2,0,11.7-2.6,16.4-7.7h-13.5V48.2h32v41.4h-17.6V83.1z"/>
		<path class="st3" d="M279.9,71.3c2.5,0,4.6-0.5,6.4-1.6c1.8-1.1,3.2-2.5,4.3-4.3c1.1-1.8,1.9-3.9,2.4-6.2c0.5-2.3,0.8-4.8,0.8-7.3
			v-40H315v40c0,5.4-0.7,10.5-2.1,15.2c-1.4,4.7-3.5,8.8-6.5,12.2c-2.9,3.4-6.6,6.1-11,8.1c-4.4,2-9.6,3-15.6,3
			c-6.2,0-11.5-1-15.9-3.1c-4.4-2.1-8.1-4.9-10.9-8.4c-2.8-3.5-4.9-7.6-6.2-12.2c-1.3-4.6-2-9.6-2-14.7v-40h21.4v40
			c0,2.6,0.3,5,0.8,7.4c0.5,2.4,1.3,4.5,2.4,6.2c1.1,1.8,2.5,3.2,4.2,4.3C275.3,70.8,277.4,71.3,279.9,71.3z"/>
		<path class="st3" d="M325.1,89.6V11.8h21.4V71h35.3v18.6H325.1z"/>
		<path class="st3" d="M387,89.6V11.8h21.4V71h35.3v18.6H387z"/>
		<path class="st3" d="M483,90.3c-5.9,0-11.3-1.1-16.1-3.4c-4.8-2.3-9-5.2-12.4-8.9c-3.4-3.7-6.1-7.9-8-12.7
			c-1.9-4.7-2.8-9.6-2.8-14.7c0-5.1,1-10,3-14.8c2-4.7,4.7-8.9,8.3-12.5c3.5-3.6,7.7-6.5,12.6-8.7c4.9-2.2,10.2-3.2,15.9-3.2
			c5.9,0,11.3,1.1,16.1,3.4c4.8,2.3,8.9,5.3,12.4,9c3.4,3.7,6.1,8,7.9,12.7c1.9,4.8,2.8,9.6,2.8,14.6c0,5.1-1,10-3,14.7
			c-2,4.7-4.7,8.9-8.2,12.5c-3.5,3.6-7.7,6.5-12.5,8.7C494.1,89.2,488.8,90.3,483,90.3z M465.4,50.8c0,2.6,0.4,5.2,1.1,7.6
			c0.7,2.4,1.8,4.6,3.3,6.5c1.5,1.9,3.3,3.4,5.5,4.6c2.2,1.2,4.9,1.8,7.9,1.8s5.7-0.6,8-1.8c2.3-1.2,4.1-2.8,5.5-4.7
			c1.4-1.9,2.5-4.1,3.2-6.6c0.7-2.5,1-5,1-7.6c0-2.6-0.4-5.2-1.1-7.6c-0.7-2.4-1.8-4.6-3.3-6.5c-1.5-1.9-3.4-3.4-5.6-4.5
			c-2.2-1.1-4.8-1.7-7.8-1.7c-3.1,0-5.7,0.6-7.9,1.8c-2.2,1.2-4.1,2.7-5.5,4.7c-1.5,1.9-2.5,4.1-3.2,6.6
			C465.7,45.7,465.4,48.2,465.4,50.8z"/>
	</g>
	<g>
		<g>
			<path class="st3" d="M36.4,136.3h19.5l27,77.8H61.1l-4.7-15.2H35.7l-4.6,15.2H9.3L36.4,136.3z M53,184.6l-6.9-24.1l-7.2,24.1H53z
				"/>
			<path class="st3" d="M83.4,198.2l36.4-43.3H85v-18.6h59.4v15.9l-34.2,43.3h34.9v18.6H83.4V198.2z"/>
			<path class="st3" d="M187.1,195.8c2.5,0,4.6-0.5,6.4-1.6c1.8-1.1,3.2-2.5,4.3-4.3c1.1-1.8,1.9-3.9,2.4-6.2
				c0.5-2.3,0.8-4.8,0.8-7.3v-40h21.4v40c0,5.4-0.7,10.5-2.1,15.2c-1.4,4.7-3.5,8.8-6.5,12.2c-2.9,3.4-6.6,6.1-11,8.1
				c-4.4,2-9.6,3-15.6,3c-6.2,0-11.5-1-15.9-3.1c-4.4-2.1-8.1-4.9-10.9-8.4c-2.8-3.5-4.9-7.6-6.2-12.2c-1.3-4.6-2-9.6-2-14.7v-40
				h21.4v40c0,2.6,0.3,5,0.8,7.4c0.5,2.4,1.3,4.5,2.4,6.2c1.1,1.8,2.5,3.2,4.2,4.3C182.5,195.3,184.6,195.8,187.1,195.8z"/>
			<path class="st3" d="M232.3,214.1v-77.8h21.4v59.2H289v18.6H232.3z"/>
		</g>
	</g>
</g>
</svg>
