<!-- Generator: Adobe Illustrator 22.1.0, SVG Export Plug-In  -->
<svg version="1.1"
	 xmlns="http://www.w3.org/2000/svg" xmlns:xlink="http://www.w3.org/1999/xlink" xmlns:a="http://ns.adobe.com/AdobeSVGViewerExtensions/3.0/"
	 x="0px" y="0px" width="588.4px" height="215.7px" viewBox="0 0 588.4 215.7" style="enable-background:new 0 0 588.4 215.7;"
	 xml:space="preserve">
<style type="text/css">
	.st0{fill:#FFFFFF;}
</style>
<defs>
</defs>
<g>
	<g>
		<g>
			<path class="st0" d="M62.9,42.3l-3.4,11.1h-7.4l12.6-39.3h9.2l12.8,39.3h-7.7l-3.6-11.1H62.9z M74.1,36.9L71,27.2
				c-0.8-2.4-1.4-5.1-2-7.4h-0.1c-0.6,2.3-1.2,5-1.9,7.4l-3,9.7H74.1z"/>
			<path class="st0" d="M110.1,49.5H110c-1.7,2.7-4.7,4.6-8.8,4.6c-6.4,0-11.9-5.5-11.9-14.4c0-10.4,6.7-15.3,12.7-15.3
				c4,0,6.8,1.8,8.3,4.4l0.1,0.1l0.2-3.8h6.9c-0.1,2.6-0.2,5.3-0.2,8.2V65h-7.2V49.5z M110.1,36.8c0-0.6-0.1-1.2-0.2-1.8
				c-0.6-2.7-2.9-5-6.1-5c-4.7,0-7.2,3.9-7.2,9.3c0,5.2,2.5,9.1,7.1,9.1c2.9,0,5.3-1.9,6.1-4.7c0.2-0.6,0.4-1.5,0.4-2.2V36.8z"/>
			<path class="st0" d="M150.4,44.9c0,3.4,0.1,6.2,0.2,8.5h-6.2l-0.4-4.3h-0.2c-1.2,2-4,4.9-9.2,4.9s-9.9-3.1-9.9-12.4V25h7.2v15.5
				c0,4.7,1.5,7.8,5.3,7.8c2.9,0,4.8-2,5.5-3.9c0.3-0.6,0.4-1.4,0.4-2.2V25h7.2V44.9z"/>
			<path class="st0" d="M158.2,53.5V25h7.2v28.4H158.2z M170.5,12.7l-7.1,8.6h-5l5.1-8.6H170.5z"/>
			<path class="st0" d="M188.8,21c-2.4,0-4-1.8-4-3.9c0-2.2,1.6-3.9,4-3.9c2.5,0,4,1.7,4,3.9C192.8,19.2,191.3,21,188.8,21L188.8,21
				z M185.2,53.5V25h7.2v28.4H185.2z"/>
			<path class="st0" d="M200.1,33.5c0-3.3-0.1-6-0.2-8.5h6.2l0.4,4.3h0.2c1.3-2.2,4.4-4.9,9.1-4.9c5,0,10.1,3.2,10.1,12.2v16.9h-7.2
				v-16c0-4.1-1.5-7.2-5.4-7.2c-2.9,0-4.8,2-5.6,4.2c-0.2,0.6-0.4,1.5-0.4,2.3v16.8h-7.2V33.5z"/>
			<path class="st0" d="M237.1,21c-2.4,0-4-1.8-4-3.9c0-2.2,1.6-3.9,4-3.9c2.5,0,4,1.7,4,3.9C241.2,19.2,239.6,21,237.1,21L237.1,21
				z M233.5,53.5V25h7.2v28.4H233.5z"/>
			<path class="st0" d="M269.4,52.6c-1.5,0.7-4.5,1.5-8.1,1.5c-8.9,0-14.6-5.7-14.6-14.5c0-8.5,5.8-15.1,15.8-15.1
				c2.6,0,5.3,0.6,6.9,1.3l-1.3,5.4c-1.2-0.6-2.9-1.1-5.4-1.1c-5.5,0-8.8,4-8.7,9.2c0,5.8,3.8,9.2,8.7,9.2c2.5,0,4.3-0.5,5.7-1.1
				L269.4,52.6z"/>
			<path class="st0" d="M278.2,21c-2.4,0-4-1.8-4-3.9c0-2.2,1.6-3.9,4-3.9c2.5,0,4,1.7,4,3.9C282.3,19.2,280.8,21,278.2,21L278.2,21
				z M274.7,53.5V25h7.2v28.4H274.7z"/>
			<path class="st0" d="M311.7,46.6c0,2.6,0.1,5.1,0.5,6.8h-6.5l-0.5-3.2H305c-1.7,2.2-4.7,3.8-8.4,3.8c-5.7,0-8.9-4.1-8.9-8.5
				c0-7.1,6.4-10.8,16.9-10.7v-0.5c0-1.9-0.8-5-5.8-5c-2.8,0-5.7,0.9-7.6,2.1l-1.4-4.7c2.1-1.3,5.8-2.5,10.3-2.5
				c9.1,0,11.7,5.8,11.7,12V46.6z M304.7,39.6c-5.1-0.1-9.9,1-9.9,5.3c0,2.8,1.8,4.1,4.1,4.1c2.9,0,5-1.9,5.7-3.9
				c0.2-0.5,0.2-1.1,0.2-1.6V39.6z"/>
			<path class="st0" d="M331.4,12h7.2v41.5h-7.2V12z"/>
			<path class="st0" d="M368.4,46.6c0,2.6,0.1,5.1,0.5,6.8h-6.5l-0.5-3.2h-0.2c-1.7,2.2-4.7,3.8-8.4,3.8c-5.7,0-8.9-4.1-8.9-8.5
				c0-7.1,6.4-10.8,16.9-10.7v-0.5c0-1.9-0.8-5-5.8-5c-2.8,0-5.7,0.9-7.6,2.1l-1.4-4.7c2.1-1.3,5.8-2.5,10.3-2.5
				c9.1,0,11.7,5.8,11.7,12V46.6z M361.4,39.6c-5.1-0.1-9.9,1-9.9,5.3c0,2.8,1.8,4.1,4.1,4.1c2.9,0,5-1.9,5.7-3.9
				c0.2-0.5,0.2-1.1,0.2-1.6V39.6z"/>
			<path class="st0" d="M388.4,14.6c2.6-0.5,6.2-0.8,11-0.8c5.3,0,9,1.1,11.6,3.2c2.3,1.9,3.9,5,3.9,8.7c0,3.7-1.2,6.8-3.3,8.9
				c-2.9,2.9-7.4,4.3-12.4,4.3c-1.3,0-2.5-0.1-3.5-0.3v14.9h-7.1V14.6z M395.5,32.9c0.9,0.3,2,0.4,3.5,0.4c5.4,0,8.6-2.7,8.6-7.2
				c0-4.3-3-6.7-8-6.7c-2,0-3.4,0.2-4.1,0.3V32.9z"/>
			<path class="st0" d="M441.6,46.6c0,2.6,0.1,5.1,0.5,6.8h-6.5l-0.5-3.2h-0.2c-1.7,2.2-4.7,3.8-8.4,3.8c-5.7,0-8.9-4.1-8.9-8.5
				c0-7.1,6.4-10.8,16.9-10.7v-0.5c0-1.9-0.8-5-5.8-5c-2.8,0-5.7,0.9-7.6,2.1l-1.4-4.7c2.1-1.3,5.8-2.5,10.3-2.5
				c9.1,0,11.7,5.8,11.7,12V46.6z M434.6,39.6c-5.1-0.1-9.9,1-9.9,5.3c0,2.8,1.8,4.1,4.1,4.1c2.9,0,5-1.9,5.7-3.9
				c0.2-0.5,0.2-1.1,0.2-1.6V39.6z"/>
			<path class="st0" d="M457,17.7V25h6.8v5.4H457v12.5c0,3.5,0.9,5.3,3.7,5.3c1.3,0,2-0.1,2.8-0.3l0.1,5.4c-1.1,0.4-3,0.8-5.2,0.8
				c-2.7,0-4.8-0.9-6.2-2.3c-1.6-1.6-2.3-4.3-2.3-8V30.4h-4V25h4v-5.3L457,17.7z"/>
			<path class="st0" d="M469.3,34.2c0-3.9-0.1-6.7-0.2-9.2h6.2l0.3,5.4h0.2c1.4-4,4.7-6,7.8-6c0.7,0,1.1,0.1,1.7,0.2v6.7
				c-0.6-0.1-1.3-0.2-2.2-0.2c-3.4,0-5.8,2.2-6.4,5.4c-0.1,0.6-0.2,1.4-0.2,2.2v14.8h-7.2V34.2z"/>
			<path class="st0" d="M493.6,21c-2.4,0-4-1.8-4-3.9c0-2.2,1.6-3.9,4-3.9c2.5,0,4,1.7,4,3.9C497.7,19.2,496.1,21,493.6,21L493.6,21
				z M490.1,53.5V25h7.2v28.4H490.1z"/>
			<path class="st0" d="M527.1,46.6c0,2.6,0.1,5.1,0.5,6.8h-6.5l-0.5-3.2h-0.2c-1.7,2.2-4.7,3.8-8.4,3.8c-5.7,0-8.9-4.1-8.9-8.5
				c0-7.1,6.4-10.8,16.9-10.7v-0.5c0-1.9-0.8-5-5.8-5c-2.8,0-5.7,0.9-7.6,2.1l-1.4-4.7c2.1-1.3,5.8-2.5,10.3-2.5
				c9.1,0,11.7,5.8,11.7,12V46.6z M520.1,39.6c-5.1-0.1-9.9,1-9.9,5.3c0,2.8,1.8,4.1,4.1,4.1c2.9,0,5-1.9,5.7-3.9
				c0.2-0.5,0.2-1.1,0.2-1.6V39.6z"/>
			<path class="st0" d="M531.3,60.5c1.6-4.4,3.2-10.6,3.9-15.4l7.5-0.6c-1.7,5.5-4.3,11.8-6.5,15.5L531.3,60.5z"/>
			<path class="st0" d="M62.9,117.3l-3.4,11.1h-7.4l12.6-39.3h9.2l12.8,39.3h-7.7l-3.6-11.1H62.9z M74.1,111.9l-3.1-9.7
				c-0.8-2.4-1.4-5.1-2-7.4h-0.1c-0.6,2.3-1.2,5-1.9,7.4l-3,9.7H74.1z"/>
			<path class="st0" d="M110.1,124.6H110c-1.7,2.7-4.7,4.6-8.8,4.6c-6.4,0-11.9-5.5-11.9-14.4c0-10.4,6.7-15.3,12.7-15.3
				c4,0,6.8,1.8,8.3,4.4l0.1,0.1l0.2-3.8h6.9c-0.1,2.6-0.2,5.3-0.2,8.2v31.7h-7.2V124.6z M110.1,111.8c0-0.6-0.1-1.2-0.2-1.8
				c-0.6-2.7-2.9-5-6.1-5c-4.7,0-7.2,3.9-7.2,9.3c0,5.2,2.5,9.1,7.1,9.1c2.9,0,5.3-1.9,6.1-4.7c0.2-0.6,0.4-1.5,0.4-2.2V111.8z"/>
			<path class="st0" d="M150.4,120c0,3.4,0.1,6.2,0.2,8.5h-6.2l-0.4-4.3h-0.2c-1.2,2-4,4.9-9.2,4.9s-9.9-3.1-9.9-12.4v-16.7h7.2
				v15.5c0,4.7,1.5,7.8,5.3,7.8c2.9,0,4.8-2,5.5-3.9c0.3-0.6,0.4-1.4,0.4-2.2v-17.2h7.2V120z"/>
			<path class="st0" d="M158.2,128.5v-28.4h7.2v28.4H158.2z M170.5,87.8l-7.1,8.6h-5l5.1-8.6H170.5z"/>
			<path class="st0" d="M188.8,96c-2.4,0-4-1.8-4-3.9c0-2.2,1.6-3.9,4-3.9c2.5,0,4,1.7,4,3.9C192.8,94.2,191.3,96,188.8,96L188.8,96
				z M185.2,128.5v-28.4h7.2v28.4H185.2z"/>
			<path class="st0" d="M200.1,108.5c0-3.3-0.1-6-0.2-8.5h6.2l0.4,4.3h0.2c1.3-2.2,4.4-4.9,9.1-4.9c5,0,10.1,3.2,10.1,12.2v16.9
				h-7.2v-16c0-4.1-1.5-7.2-5.4-7.2c-2.9,0-4.8,2-5.6,4.2c-0.2,0.6-0.4,1.5-0.4,2.3v16.7h-7.2V108.5z"/>
			<path class="st0" d="M237.1,96c-2.4,0-4-1.8-4-3.9c0-2.2,1.6-3.9,4-3.9c2.5,0,4,1.7,4,3.9C241.2,94.2,239.6,96,237.1,96L237.1,96
				z M233.5,128.5v-28.4h7.2v28.4H233.5z"/>
			<path class="st0" d="M269.4,127.6c-1.5,0.7-4.5,1.5-8.1,1.5c-8.9,0-14.6-5.7-14.6-14.5c0-8.5,5.8-15.1,15.8-15.1
				c2.6,0,5.3,0.6,6.9,1.3l-1.3,5.4c-1.2-0.6-2.9-1.1-5.4-1.1c-5.5,0-8.8,4-8.7,9.2c0,5.8,3.8,9.2,8.7,9.2c2.5,0,4.3-0.5,5.7-1.1
				L269.4,127.6z"/>
			<path class="st0" d="M278.2,96c-2.4,0-4-1.8-4-3.9c0-2.2,1.6-3.9,4-3.9c2.5,0,4,1.7,4,3.9C282.3,94.2,280.8,96,278.2,96L278.2,96
				z M274.7,128.5v-28.4h7.2v28.4H274.7z"/>
			<path class="st0" d="M311.7,121.7c0,2.6,0.1,5.1,0.5,6.8h-6.5l-0.5-3.2H305c-1.7,2.2-4.7,3.8-8.4,3.8c-5.7,0-8.9-4.1-8.9-8.5
				c0-7.1,6.4-10.8,16.9-10.7v-0.5c0-1.9-0.8-5-5.8-5c-2.8,0-5.7,0.9-7.6,2.1l-1.4-4.7c2.1-1.3,5.8-2.5,10.3-2.5
				c9.1,0,11.7,5.8,11.7,12V121.7z M304.7,114.6c-5.1-0.1-9.9,1-9.9,5.3c0,2.8,1.8,4.1,4.1,4.1c2.9,0,5-1.9,5.7-3.9
				c0.2-0.5,0.2-1.1,0.2-1.6V114.6z"/>
			<path class="st0" d="M319.3,109.2c0-3.9-0.1-6.7-0.2-9.2h6.2l0.3,5.4h0.2c1.4-4,4.7-6,7.8-6c0.7,0,1.1,0.1,1.7,0.2v6.7
				c-0.6-0.1-1.3-0.2-2.2-0.2c-3.4,0-5.8,2.2-6.4,5.4c-0.1,0.6-0.2,1.4-0.2,2.2v14.8h-7.2V109.2z"/>
			<path class="st0" d="M352,129.1c-8,0-14.2-5.5-14.2-14.6c0-9.3,6.1-15.1,14.7-15.1c8.5,0,14.1,6,14.1,14.6
				C366.6,124.5,359.2,129.1,352,129.1L352,129.1z M352.2,123.9c4.1,0,6.9-4,6.9-9.7c0-4.4-2-9.6-6.9-9.6c-5.1,0-7.1,5-7.1,9.7
				C345.1,119.8,347.9,123.9,352.2,123.9L352.2,123.9z"/>
			<path class="st0" d="M372.5,108.5c0-3.3-0.1-6-0.2-8.5h6.2l0.4,4.3h0.2c1.3-2.2,4.4-4.9,9.1-4.9c5,0,10.1,3.2,10.1,12.2v16.9H391
				v-16c0-4.1-1.5-7.2-5.4-7.2c-2.9,0-4.8,2-5.6,4.2c-0.2,0.6-0.4,1.5-0.4,2.3v16.7h-7.2V108.5z"/>
			<path class="st0" d="M417.9,87h7.2v41.5h-7.2V87z"/>
			<path class="st0" d="M445.4,129.1c-8,0-14.2-5.5-14.2-14.6c0-9.3,6.1-15.1,14.7-15.1c8.5,0,14.1,6,14.1,14.6
				C459.9,124.5,452.6,129.1,445.4,129.1L445.4,129.1z M445.6,123.9c4.1,0,6.9-4,6.9-9.7c0-4.4-2-9.6-6.9-9.6c-5.1,0-7.1,5-7.1,9.7
				C438.5,119.8,441.3,123.9,445.6,123.9L445.6,123.9z"/>
			<path class="st0" d="M465.5,121.8c1.6,1,4.7,2.1,7.2,2.1c3.2,0,4.6-1.3,4.6-3.2c0-1.9-1.2-2.9-4.7-4.1c-5.5-1.9-7.8-4.9-7.8-8.3
				c0-5,4.1-8.9,10.7-8.9c3.2,0,5.9,0.8,7.6,1.7l-1.5,5c-1.2-0.7-3.5-1.6-6-1.6c-2.6,0-4,1.3-4,3c0,1.8,1.3,2.6,5,4
				c5.2,1.8,7.5,4.4,7.6,8.6c0,5.2-4,8.9-11.6,8.9c-3.4,0-6.5-0.8-8.6-2L465.5,121.8z"/>
			<path class="st0" d="M80.4,199.4c0,6-1.2,10.2-4.2,12.9c-2.9,2.6-7.1,3.4-11,3.4c-3.6,0-7.5-0.8-9.9-2.3l1.6-5.4
				c1.8,1.1,4.8,2.2,8.3,2.2c4.7,0,8.2-2.5,8.2-8.6v-2.5h-0.1c-1.6,2.5-4.5,4.2-8.3,4.2c-7.1,0-12.1-5.8-12.1-13.9
				c0-9.3,6.1-15,12.9-15c4.4,0,6.9,2.1,8.2,4.4h0.1l0.3-3.8h6.2c-0.1,1.9-0.2,4.3-0.2,8.2V199.4z M73.2,186.5
				c0-0.7-0.1-1.3-0.2-1.9c-0.8-2.6-2.8-4.6-5.8-4.6c-4,0-7,3.5-7,9.3c0,4.8,2.5,8.8,6.9,8.8c2.7,0,5-1.8,5.8-4.4
				c0.2-0.7,0.3-1.7,0.3-2.5V186.5z"/>
			<path class="st0" d="M100.6,204.2c-8,0-14.2-5.5-14.2-14.6c0-9.3,6.1-15.1,14.7-15.1c8.5,0,14.1,6,14.1,14.6
				C115.2,199.5,107.8,204.2,100.6,204.2L100.6,204.2z M100.8,199c4.1,0,6.9-4,6.9-9.7c0-4.4-2-9.6-6.9-9.6c-5.1,0-7.1,5-7.1,9.7
				C93.7,194.8,96.5,199,100.8,199L100.8,199z"/>
			<path class="st0" d="M121.1,162h7.2v17h0.1c1.8-2.7,4.8-4.6,9.1-4.6c6.9,0,11.9,5.8,11.8,14.4c0,10.2-6.5,15.3-12.9,15.3
				c-3.7,0-6.9-1.4-9-4.9h-0.1l-0.4,4.3h-6.1c0.1-1.9,0.2-5.1,0.2-7.9V162z M128.2,191.8c0,0.6,0.1,1.2,0.2,1.7c0.8,2.9,3.3,5,6.4,5
				c4.5,0,7.2-3.6,7.2-9.3c0-5-2.4-9.1-7.2-9.1c-2.9,0-5.6,2.1-6.4,5.3c-0.1,0.5-0.2,1.2-0.2,1.9V191.8z"/>
			<path class="st0" d="M158.8,171c-2.4,0-4-1.8-4-3.9c0-2.2,1.6-3.9,4-3.9c2.5,0,4,1.7,4,3.9C162.8,169.3,161.3,171,158.8,171
				L158.8,171z M155.2,203.5v-28.4h7.2v28.4H155.2z"/>
			<path class="st0" d="M175.2,191.3c0.2,5.1,4.2,7.4,8.8,7.4c3.3,0,5.7-0.5,7.9-1.3l1.1,4.9c-2.5,1-5.8,1.8-9.9,1.8
				c-9.2,0-14.6-5.7-14.6-14.4c0-7.9,4.8-15.3,13.9-15.3c9.2,0,12.3,7.6,12.3,13.8c0,1.3-0.1,2.4-0.2,3H175.2z M187.7,186.3
				c0.1-2.6-1.1-6.9-5.9-6.9c-4.4,0-6.3,4-6.6,6.9H187.7z"/>
			<path class="st0" d="M200.3,184.3c0-3.9-0.1-6.7-0.2-9.2h6.2l0.3,5.4h0.2c1.4-4,4.7-6,7.8-6c0.7,0,1.1,0.1,1.7,0.2v6.7
				c-0.6-0.1-1.3-0.2-2.2-0.2c-3.4,0-5.8,2.2-6.4,5.4c-0.1,0.6-0.2,1.4-0.2,2.2v14.8h-7.2V184.3z"/>
			<path class="st0" d="M221,183.6c0-3.3-0.1-6-0.2-8.5h6.2l0.4,4.3h0.2c1.3-2.2,4.4-4.9,9.1-4.9c5,0,10.1,3.2,10.1,12.2v16.9h-7.2
				v-16c0-4.1-1.5-7.2-5.4-7.2c-2.9,0-4.8,2-5.6,4.2c-0.2,0.6-0.4,1.5-0.4,2.3v16.8H221V183.6z"/>
			<path class="st0" d="M266.9,204.2c-8,0-14.2-5.5-14.2-14.6c0-9.3,6.1-15.1,14.7-15.1c8.5,0,14.1,6,14.1,14.6
				C281.5,199.5,274.1,204.2,266.9,204.2L266.9,204.2z M267.1,199c4.1,0,6.9-4,6.9-9.7c0-4.4-2-9.6-6.9-9.6c-5.1,0-7.1,5-7.1,9.7
				C260,194.8,262.8,199,267.1,199L267.1,199z"/>
			<path class="st0" d="M287.1,196.9c1.6,1,4.7,2.1,7.2,2.1c3.2,0,4.6-1.3,4.6-3.2c0-1.9-1.2-2.9-4.7-4.1c-5.5-1.9-7.8-4.9-7.8-8.3
				c0-5,4.1-8.9,10.7-8.9c3.2,0,5.9,0.8,7.6,1.7l-1.5,5c-1.2-0.7-3.5-1.6-6-1.6c-2.6,0-4,1.3-4,3c0,1.8,1.3,2.6,5,4
				c5.2,1.8,7.5,4.4,7.6,8.6c0,5.2-4,8.9-11.6,8.9c-3.4,0-6.5-0.8-8.6-2L287.1,196.9z"/>
			<path class="st0" d="M350,162v33.5c0,2.9,0.1,6.1,0.2,8h-6.4l-0.4-4.5h-0.1c-1.7,3.2-5.1,5.1-9.2,5.1c-6.8,0-12.2-5.8-12.2-14.5
				c-0.1-9.5,5.9-15.2,12.7-15.2c3.9,0,6.7,1.6,8,3.7h0.1V162H350z M342.8,187c0-0.6-0.1-1.3-0.2-1.9c-0.6-2.7-2.9-5-6.2-5
				c-4.6,0-7.2,4.1-7.2,9.3c0,5.3,2.6,9,7.1,9c2.9,0,5.5-2,6.2-5.1c0.2-0.6,0.2-1.3,0.2-2.1V187z"/>
			<path class="st0" d="M362.8,191.3c0.2,5.1,4.2,7.4,8.8,7.4c3.3,0,5.7-0.5,7.9-1.3l1.1,4.9c-2.5,1-5.8,1.8-9.9,1.8
				c-9.2,0-14.6-5.7-14.6-14.4c0-7.9,4.8-15.3,13.9-15.3c9.2,0,12.3,7.6,12.3,13.8c0,1.3-0.1,2.4-0.2,3H362.8z M375.3,186.3
				c0.1-2.6-1.1-6.9-5.9-6.9c-4.4,0-6.3,4-6.6,6.9H375.3z"/>
			<path class="st0" d="M387.8,162h7.2v41.5h-7.2V162z"/>
			<path class="st0" d="M415.2,164.7c2.6-0.5,6.2-0.8,11-0.8c5.3,0,9,1.1,11.6,3.2c2.3,1.9,3.9,5,3.9,8.7c0,3.7-1.2,6.8-3.3,8.9
				c-2.9,2.9-7.4,4.3-12.4,4.3c-1.3,0-2.5-0.1-3.5-0.3v14.9h-7.1V164.7z M422.3,183c0.9,0.3,2,0.4,3.5,0.4c5.4,0,8.6-2.7,8.6-7.2
				c0-4.3-3-6.7-8-6.7c-2,0-3.4,0.2-4.1,0.3V183z"/>
			<path class="st0" d="M451.5,192.4l-3.4,11.1h-7.4l12.6-39.3h9.2l12.8,39.3h-7.7l-3.6-11.1H451.5z M462.8,187l-3.1-9.7
				c-0.8-2.4-1.4-5.1-2-7.4h-0.1c-0.6,2.3-1.2,5-1.9,7.4l-3,9.7H462.8z"/>
			<path class="st0" d="M480.7,203.5v-39.3h8.2l10.2,16.9c2.6,4.4,4.9,8.9,6.7,13.2l0.1-0.1c-0.5-5.2-0.6-10.3-0.6-16.3v-13.7h6.7
				v39.3h-7.5l-10.3-17.3c-2.5-4.3-5.1-9.1-7-13.5l-0.2,0.1c0.3,5.1,0.4,10.3,0.4,16.8v14.1H480.7z"/>
			<path class="st0" d="M583.9,204.2c-2.6,0-4.4-2-4.4-4.6c0-2.7,1.9-4.6,4.4-4.6c2.6,0,4.4,1.9,4.4,4.6
				C588.4,202.2,586.6,204.2,583.9,204.2L583.9,204.2z"/>
		</g>
	</g>
	<path class="st0" d="M14.4,16.5c1.6,0.5,2.9,1.5,3.9,2.9c1,1.5,1.5,3.2,1.5,5.1c0,2.7-0.9,5-2.8,6.8c-1.9,1.9-4.1,2.8-6.8,2.8
		c-3.1,0-5.6-1-7.5-3.1C0.9,29,0,26.2,0,22.6C0,17,1.9,12,5.7,7.8C9.4,3.6,14.3,1,20.2,0v3.2c-2,2.1-3.4,4.2-4.4,6.2
		c-1,2-1.4,4.1-1.4,6.2V16.5z M42.8,16.5c1.6,0.5,2.9,1.5,3.9,2.9c1,1.5,1.4,3.2,1.4,5.1c0,2.7-0.9,5-2.8,6.8
		c-1.9,1.9-4.1,2.8-6.8,2.8c-3.1,0-5.6-1-7.4-3.1c-1.8-2.1-2.8-4.9-2.8-8.5C28.4,17,30.2,12,34,7.8C37.8,3.6,42.6,1,48.5,0v3.2
		c-1.9,2.1-3.4,4.2-4.3,6.2c-1,2-1.4,4.1-1.4,6.2V16.5z"/>
	<path class="st0" d="M530.1,195.9c-1.6-0.5-2.9-1.4-3.9-2.9c-0.9-1.5-1.4-3.2-1.4-5.2c0-2.7,0.9-4.9,2.8-6.8
		c1.9-1.8,4.1-2.8,6.8-2.8c3.1,0,5.6,1,7.4,3.1c1.8,2,2.8,4.9,2.8,8.4c0,5.7-1.9,10.6-5.7,14.9c-3.8,4.3-8.6,6.9-14.6,7.9v-3.3
		c2-2.1,3.4-4.2,4.4-6.2c1-2,1.4-4.1,1.4-6.1V195.9z M558.4,195.9c-1.6-0.5-2.9-1.4-3.9-2.9c-1-1.5-1.4-3.2-1.4-5.2
		c0-2.6,0.9-4.9,2.8-6.7c1.9-1.9,4.1-2.8,6.8-2.8c3.1,0,5.6,1,7.4,3.1c1.8,2,2.7,4.9,2.7,8.4c0,5.7-1.9,10.6-5.7,14.9
		c-3.8,4.3-8.6,6.9-14.5,7.9v-3.3c1.9-2.1,3.4-4.2,4.3-6.2c1-2,1.4-4.1,1.4-6.1V195.9z"/>
</g>
</svg>
