<!-- Generator: Adobe Illustrator 22.1.0, SVG Export Plug-In  -->
<svg version="1.1"
	 xmlns="http://www.w3.org/2000/svg" xmlns:xlink="http://www.w3.org/1999/xlink" xmlns:a="http://ns.adobe.com/AdobeSVGViewerExtensions/3.0/"
	 x="0px" y="0px" width="345.5px" height="67.5px" viewBox="0 0 345.5 67.5" style="enable-background:new 0 0 345.5 67.5;"
	 xml:space="preserve">
<style type="text/css">
	.st0{fill:#FFFFFF;}
</style>
<defs>
</defs>
<g>
	<path class="st0" d="M70.6,29c0.8,0,1.4,0.2,1.8,0.5c0.4,0.3,0.6,0.7,0.6,1.2c0,0.5-0.2,0.9-0.7,1.2c-0.4,0.3-1.1,0.5-2,0.5
		c-0.6,0-1.1,0-1.5,0s-0.9,0-1.5,0.1c-1,1.8-2,3.7-3,5.6c-1,1.9-1.8,3.8-2.6,5.7c-0.8,1.9-1.4,3.7-1.9,5.5c-0.5,1.8-0.7,3.5-0.7,5
		c0,0.9,0.1,1.7,0.2,2.5c0.2,0.7,0.3,1.4,0.5,1.9c0.1,0.4,0.2,0.8,0.3,1.1c0.1,0.3,0.2,0.6,0.2,0.8c0,0.6-0.2,1.1-0.5,1.4
		s-1,0.5-1.9,0.5c-1,0-2-0.3-2.9-0.8c-0.9-0.5-1.7-1.2-2.3-2.1c-0.7-0.9-1.2-1.9-1.6-3c-0.4-1.1-0.6-2.3-0.6-3.4
		c0-1.4,0.2-2.8,0.5-4.4c0.3-1.6,0.8-3.2,1.4-4.8s1.3-3.3,2-5c0.8-1.7,1.6-3.4,2.4-5.1c-2.3,0.5-4.6,1.1-6.8,1.8
		c-2.2,0.7-4.2,1.4-6.2,2.1c-1.5,3.1-2.7,6.4-3.7,9.7c-1,3.3-1.5,6.6-1.5,9.9c0,1.1,0.2,2.2,0.5,3.1c0.3,1,0.6,1.8,0.9,2.5
		c0.2,0.5,0.3,1,0.5,1.4c0.1,0.4,0.2,0.8,0.2,1.2c0,0.7-0.2,1.2-0.7,1.6s-1.2,0.5-2.4,0.5c-1.3,0-2.4-0.3-3.4-1
		c-1-0.7-1.9-1.5-2.6-2.6c-0.7-1-1.3-2.2-1.7-3.5c-0.4-1.3-0.6-2.5-0.7-3.8v-0.3c0-0.6,0-1.3-0.1-2.1c-0.1-0.9-0.2-1.7-0.5-2.5
		c-0.2-0.8-0.6-1.5-1.1-2.1c-0.5-0.6-1.2-0.9-2-0.9c-0.2,0-0.6-0.2-1-0.5c-0.4-0.4-0.8-0.8-1.3-1.3c-0.4-0.5-0.8-1.1-1.1-1.7
		c-0.3-0.6-0.5-1.2-0.5-1.8c0-0.6,0.3-1.3,0.9-2.1c0.6-0.8,1.5-1.5,2.7-2.3s2.6-1.6,4.2-2.3s3.5-1.5,5.6-2.2
		c1.1-2.4,2.2-4.6,3.4-6.8c1.2-2.2,2.4-4.2,3.5-6c1.1-1.9,2.2-3.6,3.3-5.1c1-1.5,1.9-2.8,2.7-3.9l1.4-2.2c-2,0.3-4.4,1-7.3,2.1
		c-2.8,1.1-5.8,2.5-8.9,4.1c-3.1,1.6-6.1,3.5-9.1,5.5c-3,2.1-5.7,4.2-8.1,6.4c-2.4,2.2-4.3,4.4-5.8,6.7s-2.2,4.4-2.2,6.5
		c0,0.5,0.1,1.1,0.3,1.6c0.2,0.5,0.4,1,0.6,1.4c0.2,0.5,0.5,1,0.6,1.4c0.2,0.4,0.2,0.7,0.1,1c-0.1,0.3-0.3,0.5-0.7,0.6
		s-1,0.2-1.9,0.2c-1,0-1.9-0.2-2.7-0.5c-0.9-0.3-1.6-0.8-2.3-1.5c-0.7-0.6-1.2-1.4-1.6-2.3c-0.4-0.9-0.6-2-0.6-3.1
		c0-1.2,0.5-2.5,1.4-4.1c1-1.6,2.3-3.3,4-5.1s3.7-3.7,5.9-5.6c2.3-1.9,4.7-3.8,7.4-5.6s5.4-3.6,8.3-5.2s5.8-3.1,8.7-4.3
		c2.9-1.2,5.7-2.2,8.5-2.9c2.8-0.7,5.4-1.1,7.9-1.1c0.6,0,1.3,0.2,2.1,0.5c0.7,0.3,1.4,0.7,2,1.3c0.6,0.5,1.1,1.1,1.5,1.9
		c0.4,0.7,0.6,1.5,0.6,2.2c0,0.7-0.4,1.7-1.2,3c-0.8,1.3-1.8,3-3,4.9c-0.6,0.8-1.1,1.7-1.6,2.5c-0.5,0.8-1.1,1.6-1.6,2.4
		c-0.5,0.8-1.1,1.7-1.7,2.7S48,30,47.4,31.2c1.8-0.3,3.7-0.7,5.7-1c2-0.3,4.1-0.5,6.2-0.7l1.8-3.4c0.9-1.6,1.7-3.2,2.6-4.7
		c0.8-1.5,1.6-3,2.2-4.3c0.6-1.3,1.1-2.6,1.5-3.7s0.6-2,0.6-2.8c0-0.4,0.2-0.6,0.6-0.6c0.4-0.1,0.9,0,1.5,0.1s1.2,0.4,1.9,0.8
		c0.7,0.4,1.4,0.8,1.9,1.3c0.6,0.5,1.1,1.1,1.5,1.7c0.4,0.6,0.6,1.2,0.6,1.9c0,0.5-0.2,1.2-0.5,2c-0.3,0.8-0.7,1.7-1.2,2.7
		c-0.5,1-1.1,2.1-1.8,3.4s-1.5,2.5-2.3,3.8l-0.8,1.3c0.2,0,0.4,0,0.6,0C70.2,29,70.4,29,70.6,29z M28.6,46.1
		c0.4,0.2,0.7,0.4,1.1,0.7s0.6,0.5,0.8,0.8c0.1-0.6,0.3-1.2,0.5-1.8c0.2-0.6,0.3-1.2,0.6-1.8c-0.6,0.4-1.1,0.8-1.6,1.1
		C29.4,45.5,29,45.8,28.6,46.1z"/>
	<path class="st0" d="M100.5,35c0.1-0.3,0.4-0.4,0.8-0.4c0.4,0,0.8,0.1,1.2,0.2c0.4,0.2,0.7,0.4,1,0.7c0.3,0.3,0.3,0.6,0.2,0.8
		c-0.4,0.7-0.9,1.8-1.6,3.2c-0.7,1.4-1.6,2.9-2.7,4.6c-1.1,1.7-2.3,3.4-3.7,5.2c-1.4,1.8-2.9,3.4-4.6,4.8s-3.4,2.6-5.4,3.6
		c-1.9,0.9-3.9,1.4-6,1.4c-1.8,0-3.3-0.4-4.6-1.1s-2.3-1.7-3.2-2.8c-0.8-1.1-1.5-2.4-1.9-3.7c-0.4-1.3-0.6-2.6-0.6-3.9
		c0-2.5,0.6-4.9,1.8-7.3c1.2-2.4,2.8-4.6,4.7-6.5c2-1.9,4.2-3.5,6.6-4.6c2.5-1.2,5-1.8,7.5-1.8c1.7,0,2.9,0.4,3.6,1.1s1.1,1.7,1.1,3
		c0,0.9-0.2,2-0.7,3.2c-0.5,1.2-1.1,2.4-1.9,3.7c-0.8,1.3-1.7,2.5-2.8,3.8c-1.1,1.2-2.2,2.4-3.4,3.4c-1.2,1-2.4,1.9-3.6,2.6
		c-1.2,0.7-2.4,1.2-3.6,1.5c-0.1,0.7-0.2,1.3-0.2,2c0,0.8,0.1,1.5,0.4,2c0.3,0.5,0.8,0.8,1.4,0.8c1.6,0,3.1-0.4,4.6-1.2
		c1.5-0.8,3-1.8,4.3-3c1.4-1.2,2.7-2.6,3.9-4.1c1.2-1.5,2.3-3,3.3-4.4s1.8-2.7,2.4-3.9C99.8,36.4,100.2,35.6,100.5,35z M91,31
		c-0.8,0-1.8,0.4-2.8,1.2c-1,0.8-2,1.9-3,3.2c-1,1.3-1.9,2.8-2.8,4.5c-0.9,1.7-1.6,3.3-2.2,4.9c1.3-0.6,2.6-1.6,3.9-2.8
		c1.3-1.2,2.5-2.5,3.6-3.8c1.1-1.3,1.9-2.7,2.6-3.9s1-2.3,1-3.1C91.2,31.1,91.2,31,91,31z M80.7,21.7c0.2,0,0.6-0.2,1.2-0.6
		c0.6-0.4,1.3-0.8,2-1.4c0.8-0.6,1.6-1.2,2.4-1.9c0.8-0.7,1.6-1.4,2.3-2c0.7-0.7,1.3-1.2,1.7-1.8c0.4-0.5,0.7-0.9,0.7-1.2
		c0-0.3,0.3-0.4,1-0.3c0.6,0.1,1.3,0.3,2.1,0.7s1.4,0.8,2.1,1.2c0.6,0.5,1,0.9,1,1.3c0,0.3-0.3,0.8-0.8,1.4
		c-0.5,0.6-1.3,1.2-2.1,1.9c-0.9,0.7-1.8,1.4-2.9,2.1s-2.2,1.4-3.3,2c-1.1,0.6-2.1,1.1-3,1.4c-1,0.4-1.8,0.6-2.4,0.6
		c-0.5,0-0.9-0.2-1.2-0.6c-0.3-0.4-0.5-0.8-0.7-1.2s-0.2-0.8-0.2-1.2S80.6,21.7,80.7,21.7z"/>
	<path class="st0" d="M105.4,59c-1.7,0-3.2-0.4-4.5-1.1s-2.3-1.7-3.2-2.8c-0.8-1.1-1.5-2.4-1.9-3.7c-0.4-1.3-0.6-2.6-0.6-3.9
		c0-2.5,0.6-4.9,1.8-7.3c1.2-2.4,2.8-4.6,4.7-6.5c2-1.9,4.2-3.5,6.7-4.7c2.5-1.2,5-1.8,7.5-1.8c1.7,0,2.9,0.5,3.5,1.5
		c0.6,1,0.9,2.1,0.9,3.4c0,1.1-0.2,2.2-0.5,3.3c-0.3,1-0.5,1.8-0.7,2.3c0,0,0,0.1,0,0.1s0,0,0,0.1v0.1c-0.1,0.3-0.4,0.5-0.7,0.5
		c-0.4,0.1-0.8,0.1-1.2,0s-0.8-0.2-1.1-0.5s-0.4-0.5-0.3-0.7v0.1c0.2-0.6,0.3-1.2,0.5-1.8c0.1-0.5,0.3-1.1,0.4-1.7
		c0.1-0.6,0.2-1.2,0.2-1.7c0-0.4,0-0.6-0.1-0.9c0-0.2-0.1-0.3-0.3-0.3c-0.8,0-1.7,0.4-2.6,1.1c-0.9,0.7-1.9,1.6-2.8,2.8
		c-0.9,1.2-1.8,2.5-2.6,4c-0.8,1.5-1.6,3-2.2,4.5c-0.7,1.5-1.2,3-1.5,4.5c-0.4,1.5-0.6,2.8-0.6,3.9c0,0.8,0.1,1.5,0.4,2
		c0.3,0.5,0.7,0.8,1.4,0.8c1.6,0,3.2-0.4,4.7-1.2c1.5-0.8,3-1.8,4.3-3.1c1.4-1.3,2.7-2.6,3.9-4.1c1.2-1.5,2.3-3,3.2-4.4
		c0.9-1.4,1.7-2.7,2.3-3.9c0.6-1.2,1.1-2,1.4-2.6c0.4-0.6,0.8-1.1,1.3-1.2c0.5-0.2,0.9-0.2,1.3-0.1c0.4,0.1,0.7,0.5,0.8,0.9
		c0.2,0.5,0.1,1.1-0.2,1.7c-0.4,0.7-0.9,1.8-1.7,3.2c-0.8,1.4-1.7,3-2.8,4.6s-2.4,3.4-3.8,5.2c-1.4,1.8-3,3.4-4.6,4.9
		s-3.4,2.7-5.2,3.6C109.2,58.6,107.3,59,105.4,59z"/>
	<path class="st0" d="M150.8,23.6c0,0.3-0.3,0.7-0.9,1.2c-0.6,0.5-1.5,1.1-2.7,1.6c-1.2,0.5-2.8,1-4.7,1.4c-1.9,0.4-4.2,0.6-6.8,0.6
		c-0.3,0.7-0.6,1.4-1,2.1c-0.3,0.7-0.7,1.4-1,2.1c-1,2-1.9,4.1-2.9,6.1c-1,2.1-1.8,4-2.6,5.9c-0.8,1.8-1.4,3.5-1.9,5
		c-0.5,1.5-0.7,2.8-0.7,3.7c0,0.8,0.3,1.3,0.8,1.3c1,0,2.1-0.4,3.2-1.2c1.1-0.8,2.3-1.9,3.5-3.1c1.2-1.3,2.3-2.7,3.5-4.2
		c1.1-1.5,2.2-3,3.1-4.5s1.7-2.8,2.4-4c0.7-1.2,1.1-2.1,1.4-2.6c0.1-0.2,0.4-0.4,0.8-0.4c0.4,0,0.8,0.1,1.2,0.2
		c0.4,0.2,0.7,0.4,1,0.6c0.3,0.3,0.3,0.5,0.2,0.8c-0.4,0.7-0.9,1.8-1.7,3.2c-0.8,1.4-1.7,2.9-2.8,4.6s-2.3,3.4-3.7,5.2
		c-1.3,1.8-2.8,3.3-4.2,4.8c-1.5,1.4-3,2.6-4.6,3.6c-1.6,0.9-3.1,1.4-4.7,1.4c-0.6,0-1.4-0.2-2.2-0.6s-1.6-0.9-2.4-1.6
		s-1.4-1.6-1.9-2.6c-0.5-1-0.7-2.2-0.7-3.6c0-0.8,0.2-1.9,0.7-3.3c0.5-1.4,1.1-3.1,1.8-4.9c0.8-1.8,1.6-3.8,2.6-5.9
		c1-2.1,2-4.2,2.9-6.3l1.1-2.4c-1.6-0.2-2.9-0.6-4.2-0.9s-2.2-0.8-3.1-1.1c-0.8-0.4-1.5-0.8-1.9-1.1s-0.7-0.7-0.7-0.9
		c0-0.5,0.1-0.9,0.2-1.1c0.2-0.2,0.4-0.4,0.7-0.4c0.3-0.1,0.7,0,1.2,0.1c0.5,0.1,1.1,0.2,1.8,0.4c0.8,0.2,1.9,0.4,3.1,0.6
		c1.3,0.2,2.8,0.4,4.5,0.6c1.3-2.8,2.3-5.2,3.2-7.3c0.8-2.1,1.2-3.6,1.2-4.5c0-0.6,0.4-0.8,1.1-0.7c0.7,0.1,1.5,0.3,2.4,0.8
		s1.7,1.1,2.4,1.8c0.7,0.7,1.1,1.5,1.1,2.2c0,0.8-0.2,1.9-0.7,3.3c-0.5,1.4-1.1,3-1.9,4.8c2.1-0.1,4-0.2,5.6-0.5s3-0.6,4-0.8
		l-0.1,0.1c1.1-0.3,2-0.4,2.7-0.3C150.5,22.6,150.8,23,150.8,23.6z"/>
	<path class="st0" d="M172.1,35c0.1-0.3,0.4-0.5,0.8-0.5c0.4,0,0.8,0.1,1.2,0.3s0.7,0.5,0.9,0.8c0.2,0.3,0.3,0.6,0.2,1
		c-0.2,0.5-0.6,1.2-1.1,2c-0.5,0.8-1.1,1.8-1.8,2.8c-0.7,1-1.5,2.1-2.5,3.2s-2,2.1-3.1,3c-1.1,0.9-2.3,1.8-3.6,2.4s-2.7,1.1-4.2,1.4
		c-1.6,2.2-3.4,4-5.4,5.5c-2,1.4-4.1,2.1-6.3,2.1c-1.2,0-2.3-0.2-3.4-0.7c-1.1-0.5-2.1-1.1-3-2s-1.6-2-2.1-3.4
		c-0.5-1.3-0.8-2.9-0.8-4.7c0-1.7,0.3-3.4,1-5.2c0.7-1.8,1.4-3.4,2.3-4.9c0.9-1.5,1.7-2.7,2.7-3.7c0.9-1,1.6-1.4,2.1-1.4
		c0.4,0,0.7,0,1.2,0.1c0.4,0.1,0.8,0.2,1.2,0.3c0.6-0.8,1.3-1.6,2-2.4c0.7-0.7,1.5-1.4,2.3-1.9s1.7-1,2.6-1.3
		c0.9-0.3,1.8-0.5,2.7-0.5c1.3,0,2.4,0.2,3.3,0.5c0.9,0.3,1.6,0.7,2.1,1.3c0.5,0.5,0.9,1.2,1.1,2c0.2,0.8,0.3,1.6,0.3,2.5
		c0,4.6-1,9.1-3.1,13.3c1.3-0.7,2.5-1.6,3.6-2.7c1.1-1.1,2.2-2.2,3.1-3.3c0.9-1.1,1.7-2.2,2.3-3.2C171.4,36.4,171.8,35.6,172.1,35z
		 M147.4,54.9c1.2,0,2.4-0.3,3.5-1c1.1-0.7,2.1-1.5,3-2.7c-1.3-0.4-2.6-0.9-3.8-1.6c-1.2-0.7-2.2-1.6-3-2.5
		c-0.5,1.1-0.8,2.2-1.1,3.2c-0.3,1-0.5,1.9-0.5,2.7c0,0.6,0.1,1.1,0.4,1.4C146.2,54.8,146.7,54.9,147.4,54.9z M153.6,44.9
		c0,0.8,0.2,1.5,0.6,2.1c0.4,0.6,1.1,0.9,2.1,1.1c0.7-1.2,1.3-2.5,1.9-3.8c0.6-1.3,1-2.6,1.4-3.8c0.4-1.3,0.7-2.5,0.9-3.6
		c0.2-1.1,0.3-2.1,0.3-3c0-1.4-0.2-2.1-0.5-2.1c-0.4,0-0.9,0.5-1.6,1.4s-1.5,2-2.3,3.4s-1.4,2.8-2,4.3
		C153.9,42.2,153.6,43.6,153.6,44.9z"/>
	<path class="st0" d="M191.6,35c0.1-0.3,0.4-0.4,0.8-0.4c0.4,0,0.8,0.1,1.2,0.2s0.7,0.4,1,0.6c0.3,0.3,0.3,0.5,0.2,0.8
		c-0.3,0.7-0.8,1.8-1.5,3.2c-0.7,1.4-1.5,2.9-2.4,4.6c-0.9,1.7-2,3.4-3,5.2c-1.1,1.8-2.2,3.4-3.4,4.8s-2.3,2.6-3.5,3.6
		c-1.2,0.9-2.3,1.4-3.3,1.4c-1,0-1.9-0.2-2.8-0.6c-0.8-0.4-1.5-0.9-2.1-1.5c-0.6-0.6-1-1.3-1.4-2.1c-0.3-0.8-0.5-1.6-0.5-2.4
		c0-1,0.2-2.3,0.6-3.7c0.4-1.4,0.9-2.8,1.4-4.1c0.6-1.5,1.3-3.1,2.1-4.7c-0.3-0.2-0.6-0.4-0.9-0.6c-0.3-0.2-0.6-0.5-0.9-0.7
		c-0.3,0.6-0.6,1.2-0.9,1.8c-0.3,0.7-0.9,1.6-1.6,2.8c-0.1,0.2-0.4,0.4-0.8,0.3c-0.4,0-0.8-0.2-1.2-0.4c-0.4-0.2-0.7-0.5-1-0.7
		c-0.2-0.3-0.3-0.5-0.1-0.8v0.1c0.5-0.9,1-1.7,1.3-2.3c0.3-0.6,0.6-1.2,0.8-1.7c0.2-0.5,0.4-0.9,0.6-1.2c0.2-0.4,0.4-0.7,0.5-1.1
		c-0.2-0.4-0.3-0.9-0.4-1.5c-0.1-0.5-0.1-1.1-0.1-1.7c0-1.2,0.1-2.3,0.4-3.4c0.3-1.1,0.7-2.1,1.1-3c0.5-0.9,1-1.6,1.5-2.2
		c0.6-0.5,1.1-0.8,1.7-0.8c0.5,0,1.2,0.1,1.9,0.2c0.7,0.1,1.4,0.3,2.1,0.6c0.7,0.3,1.2,0.6,1.7,1.1c0.5,0.4,0.7,1,0.7,1.6
		c0,0.6-0.2,1.2-0.5,1.8c-0.3,0.6-0.7,1.3-1.1,2c-0.5,0.8-0.9,1.7-1.4,2.6c-0.4,0.9-0.6,1.8-0.6,2.6c0,0.6,0.1,1.1,0.2,1.6
		c0.2,0.4,0.4,0.8,0.6,1.1c0.3,0.3,0.6,0.6,0.9,0.8s0.6,0.4,0.9,0.6c0.6,0.3,1.1,0.6,1.5,1c0.4,0.3,0.6,0.8,0.6,1.5
		c0,0.4-0.2,1.1-0.5,1.9c-0.4,0.8-0.8,1.8-1.3,2.8c-0.3,0.7-0.7,1.5-1,2.3c-0.4,0.8-0.7,1.6-1,2.3s-0.5,1.5-0.7,2.1
		c-0.2,0.7-0.3,1.2-0.3,1.7c0,0.4,0.1,0.6,0.3,0.6c0.5,0,1.2-0.4,2-1.2s1.6-1.9,2.5-3.1s1.8-2.7,2.7-4.2c0.9-1.6,1.8-3.1,2.6-4.6
		c0.8-1.5,1.5-2.9,2.1-4.1C190.8,36.7,191.3,35.8,191.6,35L191.6,35z"/>
	<path class="st0" d="M264.4,0c4.8,0,8.8,0.4,12,1.3c3.2,0.9,5.7,2,7.6,3.2c1.9,1.3,3.3,2.6,4.1,4c0.8,1.4,1.2,2.6,1.2,3.6
		c0,1-0.3,1.8-0.9,2.5c-0.6,0.7-1.4,1.1-2.4,1.1c-0.7,0-1.2-0.1-1.5-0.3c-0.3-0.2-0.5-0.5-0.6-0.8s-0.1-0.7,0-1.1
		c0.1-0.4,0.2-0.8,0.3-1.2c0.1-0.2,0.1-0.4,0.1-0.6c0-0.6-0.2-1.2-0.7-1.8c-0.4-0.6-1.1-1.2-2-1.7c-0.9-0.5-1.9-1-3.2-1.3
		c-1.3-0.3-2.7-0.5-4.3-0.5c-6.6,0-12.9,0.5-18.8,1.4s-11.4,2.1-16.5,3.6c-5.1,1.4-9.7,3-13.9,4.6c-4.2,1.6-7.9,3.2-11,4.5
		c-0.6,0.3-1.1,0.5-1.4,0.6c-0.3,0.1-0.5,0.3-0.7,0.3c-0.2,0.1-0.4,0.2-0.6,0.3c-0.2,0.1-0.6,0.2-1.1,0.5c2.9,0.6,5.5,1.4,7.8,2.7
		c2.3,1.2,4,2.7,5.1,4.3c0.8-1.4,1.5-2.8,2.2-4.1s1.3-2.4,1.8-3.5c0.5-1,0.9-1.9,1.2-2.5c0.3-0.7,0.5-1.1,0.5-1.4
		c0-0.7,0.4-1,1.1-0.9c0.7,0.1,1.5,0.4,2.3,0.9c0.8,0.5,1.6,1.2,2.3,2c0.7,0.8,1.1,1.5,1.1,2.3c0,0.8-0.2,1.9-0.7,3.2
		c-0.5,1.3-1.1,2.7-1.8,4.3c-0.8,1.6-1.6,3.3-2.6,5.1c-1,1.8-2,3.6-2.9,5.5c-1,1.9-2,3.7-3,5.5c-1,1.8-1.8,3.5-2.6,5.1
		c-0.8,1.6-1.4,3-1.9,4.3c-0.5,1.3-0.7,2.3-0.7,3c0,1.3,0.1,2.5,0.3,3.5c0.2,1,0.3,1.8,0.5,2.5l-0.1-0.1c0.1,0.6,0.3,1.2,0.3,1.6
		c0.1,0.5,0.1,0.8,0,1.1c-0.1,0.3-0.3,0.5-0.6,0.6c-0.3,0.1-0.8,0.2-1.4,0.2c-0.7,0-1.4-0.3-2.3-0.8c-0.9-0.5-1.7-1.2-2.4-2.1
		c-0.8-0.9-1.4-2-1.9-3.4c-0.5-1.3-0.8-2.8-0.8-4.4c0-1,0.3-2.2,0.8-3.8c0.5-1.6,1.2-3.3,2-5.2c0.8-1.9,1.8-4,2.9-6.1
		s2.2-4.3,3.3-6.4c0.1-0.3,0.1-0.5,0.2-0.8c0.1-0.2,0.1-0.5,0.1-0.7c0-0.9-0.3-1.7-0.9-2.5c-0.6-0.8-1.4-1.5-2.4-2.2
		c-1-0.7-2.2-1.2-3.5-1.7c-1.3-0.5-2.7-0.9-4.1-1.3s-2.9-0.6-4.3-0.8c-1.4-0.2-2.8-0.3-4.1-0.3c-0.8,0-1.7-0.2-2.5-0.6
		s-1.5-0.8-2.2-1.4s-1.1-1.2-1.5-1.8c-0.4-0.7-0.6-1.2-0.6-1.8c0-0.7,0.3-1.4,0.8-1.9c0.6-0.5,1.5-0.8,2.8-0.8
		c0.5,0,1.6-0.3,3.3-0.9c1.7-0.6,3.9-1.4,6.6-2.3c2.3-0.8,4.8-1.7,7.6-2.7c2.8-1,5.7-2,8.9-3c3.1-1,6.4-2,9.8-2.9
		c3.4-0.9,6.8-1.8,10.3-2.5c3.5-0.7,6.9-1.3,10.3-1.8C257.8,0.2,261.1,0,264.4,0z"/>
	<path class="st0" d="M264.3,35c0.1-0.3,0.4-0.4,0.8-0.4c0.4,0,0.8,0.1,1.2,0.2s0.7,0.4,1,0.7c0.3,0.3,0.3,0.6,0.2,0.8
		c-0.4,0.7-0.9,1.8-1.6,3.2c-0.7,1.4-1.6,2.9-2.7,4.6s-2.3,3.4-3.7,5.2c-1.4,1.8-2.9,3.4-4.6,4.8c-1.7,1.4-3.4,2.6-5.4,3.6
		c-1.9,0.9-3.9,1.4-6,1.4c-1.8,0-3.3-0.4-4.6-1.1c-1.3-0.7-2.3-1.7-3.2-2.8c-0.8-1.1-1.5-2.4-1.9-3.7c-0.4-1.3-0.6-2.6-0.6-3.9
		c0-2.5,0.6-4.9,1.8-7.3c1.2-2.4,2.8-4.6,4.7-6.5c2-1.9,4.2-3.5,6.6-4.6c2.5-1.2,5-1.8,7.5-1.8c1.7,0,2.9,0.4,3.6,1.1
		c0.7,0.7,1.1,1.7,1.1,3c0,0.9-0.2,2-0.7,3.2c-0.5,1.2-1.1,2.4-1.9,3.7c-0.8,1.3-1.8,2.5-2.8,3.8c-1.1,1.2-2.2,2.4-3.4,3.4
		s-2.4,1.9-3.6,2.6c-1.2,0.7-2.4,1.2-3.6,1.5c-0.1,0.7-0.2,1.3-0.2,2c0,0.8,0.1,1.5,0.4,2c0.3,0.5,0.8,0.8,1.4,0.8
		c1.6,0,3.1-0.4,4.6-1.2c1.5-0.8,3-1.8,4.3-3c1.4-1.2,2.7-2.6,3.9-4.1c1.2-1.5,2.3-3,3.3-4.4c1-1.4,1.8-2.7,2.4-3.9
		C263.5,36.4,264,35.6,264.3,35z M254.8,31c-0.8,0-1.8,0.4-2.8,1.2c-1,0.8-2,1.9-3,3.2c-1,1.3-1.9,2.8-2.8,4.5
		c-0.9,1.7-1.6,3.3-2.2,4.9c1.3-0.6,2.6-1.6,3.9-2.8c1.3-1.2,2.5-2.5,3.6-3.8c1.1-1.3,1.9-2.7,2.6-3.9c0.7-1.3,1-2.3,1-3.1
		C255,31.1,254.9,31,254.8,31z M244.5,21.7c0.2,0,0.6-0.2,1.2-0.6s1.3-0.8,2-1.4c0.8-0.6,1.6-1.2,2.4-1.9c0.8-0.7,1.6-1.4,2.3-2
		c0.7-0.7,1.3-1.2,1.7-1.8s0.7-0.9,0.7-1.2c0-0.3,0.3-0.4,1-0.3c0.6,0.1,1.3,0.3,2.1,0.7s1.4,0.8,2.1,1.2c0.6,0.5,1,0.9,1,1.3
		c0,0.3-0.3,0.8-0.8,1.4c-0.5,0.6-1.3,1.2-2.1,1.9s-1.8,1.4-2.9,2.1s-2.2,1.4-3.3,2c-1.1,0.6-2.1,1.1-3,1.4s-1.7,0.6-2.4,0.6
		c-0.5,0-0.9-0.2-1.2-0.6s-0.5-0.8-0.7-1.2c-0.1-0.4-0.2-0.8-0.2-1.2C244.2,21.9,244.3,21.7,244.5,21.7z"/>
	<path class="st0" d="M284.2,35c0.1-0.3,0.4-0.4,0.8-0.4s0.8,0.1,1.2,0.2c0.4,0.2,0.7,0.4,1,0.6c0.3,0.3,0.3,0.5,0.2,0.8
		c-0.3,0.7-0.8,1.8-1.5,3.2c-0.7,1.4-1.5,2.9-2.4,4.6s-2,3.4-3,5.2c-1.1,1.8-2.2,3.4-3.4,4.8c-1.1,1.4-2.3,2.6-3.5,3.6
		c-1.2,0.9-2.3,1.4-3.3,1.4c-1,0-1.9-0.2-2.8-0.6c-0.8-0.4-1.5-0.9-2.1-1.5s-1-1.3-1.4-2.1c-0.3-0.8-0.5-1.6-0.5-2.4
		c0-1,0.2-2.3,0.6-3.7c0.4-1.4,0.9-2.8,1.4-4.1c0.6-1.5,1.3-3.1,2.1-4.7c-0.3-0.2-0.6-0.4-0.9-0.6c-0.3-0.2-0.6-0.5-0.9-0.7
		c-0.3,0.6-0.6,1.2-0.9,1.8c-0.3,0.7-0.9,1.6-1.6,2.8c-0.1,0.2-0.4,0.4-0.8,0.3c-0.4,0-0.8-0.2-1.2-0.4c-0.4-0.2-0.7-0.5-1-0.7
		c-0.2-0.3-0.3-0.5-0.1-0.8v0.1c0.5-0.9,1-1.7,1.3-2.3c0.3-0.6,0.6-1.2,0.8-1.7c0.2-0.5,0.4-0.9,0.6-1.2c0.2-0.4,0.4-0.7,0.5-1.1
		c-0.2-0.4-0.3-0.9-0.4-1.5c-0.1-0.5-0.1-1.1-0.1-1.7c0-1.2,0.1-2.3,0.4-3.4c0.3-1.1,0.7-2.1,1.1-3c0.5-0.9,1-1.6,1.5-2.2
		s1.1-0.8,1.8-0.8c0.5,0,1.2,0.1,1.9,0.2c0.7,0.1,1.4,0.3,2.1,0.6c0.7,0.3,1.2,0.6,1.7,1.1c0.5,0.4,0.7,1,0.7,1.6
		c0,0.6-0.2,1.2-0.5,1.8s-0.7,1.3-1.1,2c-0.5,0.8-0.9,1.7-1.4,2.6s-0.6,1.8-0.6,2.6c0,0.6,0.1,1.1,0.2,1.6c0.2,0.4,0.4,0.8,0.6,1.1
		c0.3,0.3,0.6,0.6,0.9,0.8c0.3,0.2,0.6,0.4,0.9,0.6c0.6,0.3,1.1,0.6,1.5,1s0.6,0.8,0.6,1.5c0,0.4-0.2,1.1-0.5,1.9
		c-0.4,0.8-0.8,1.8-1.3,2.8c-0.3,0.7-0.7,1.5-1,2.3c-0.4,0.8-0.7,1.6-1,2.3c-0.3,0.7-0.5,1.5-0.7,2.1c-0.2,0.7-0.3,1.2-0.3,1.7
		c0,0.4,0.1,0.6,0.3,0.6c0.5,0,1.2-0.4,2-1.2c0.8-0.8,1.6-1.9,2.5-3.1c0.9-1.3,1.8-2.7,2.7-4.2c0.9-1.6,1.8-3.1,2.6-4.6
		s1.5-2.9,2.1-4.1C283.4,36.7,283.9,35.8,284.2,35L284.2,35z"/>
	<path class="st0" d="M278.2,48.6c0-1.5,0.3-3.1,0.8-4.7c0.5-1.6,1.2-3.3,2.1-4.9c0.9-1.6,2-3.1,3.2-4.5s2.6-2.7,4-3.8
		s2.9-1.9,4.5-2.6c1.6-0.6,3.1-1,4.7-1c1.3,0,2.5,0.2,3.4,0.6s1.7,0.8,2.3,1.4c0.6,0.6,1.1,1.2,1.4,1.9c0.3,0.7,0.5,1.4,0.7,2
		c0.1,0.7,0.2,1.2,0.1,1.8s-0.1,0.9-0.2,1.1h0.1c-0.1,0.3-0.3,0.4-0.7,0.4c-0.3,0-0.7-0.1-1-0.2c-0.3-0.1-0.6-0.3-0.9-0.5
		c-0.3-0.2-0.4-0.3-0.3-0.5c0-0.1,0-0.3,0-0.6s-0.1-0.6-0.3-1s-0.5-0.6-1-0.9c-0.4-0.3-1.1-0.4-1.9-0.4c-0.8,0-1.8,0.4-2.7,1.1
		c-1,0.7-1.9,1.7-2.9,2.9c-1,1.2-1.9,2.5-2.8,4c-0.9,1.5-1.7,3-2.3,4.6c-0.7,1.5-1.2,3-1.6,4.5c-0.4,1.4-0.6,2.7-0.6,3.7
		c0,1.3,0.4,1.9,1.1,1.9c0.9,0,1.8-0.4,2.7-1.2s1.8-1.8,2.7-3c0.9-1.2,1.7-2.5,2.4-4c0.7-1.4,1.4-2.8,2-4.1s1-2.5,1.3-3.4
		c0.3-1,0.5-1.6,0.5-2s0.2-0.5,0.5-0.6c0.4-0.1,0.8,0,1.3,0.1c0.5,0.1,1.1,0.3,1.7,0.6c0.6,0.3,1.2,0.6,1.7,0.9
		c0.5,0.3,1,0.7,1.3,1.1s0.5,0.7,0.5,1c0,0.4-0.2,1-0.6,1.9c-0.4,0.9-0.8,1.9-1.3,3c-0.4,0.8-0.7,1.6-1.1,2.4
		c-0.4,0.8-0.7,1.7-1,2.5c-0.3,0.8-0.5,1.6-0.7,2.3s-0.3,1.3-0.3,1.7c0,0.2,0,0.3-0.1,0.3c0.5,0,1.1-0.4,1.9-1.2
		c0.8-0.8,1.6-1.9,2.5-3.2c0.9-1.3,1.8-2.7,2.7-4.3c0.9-1.6,1.8-3.1,2.5-4.5c0.8-1.5,1.5-2.8,2.1-4c0.6-1.2,1-2.1,1.3-2.6
		c0.1-0.3,0.4-0.4,0.8-0.4s0.8,0.1,1.2,0.2c0.4,0.2,0.7,0.4,1,0.7c0.3,0.3,0.3,0.6,0.2,0.8c-0.3,0.7-0.8,1.8-1.6,3.2
		c-0.7,1.4-1.6,3-2.5,4.7c-1,1.7-2,3.4-3.1,5.2c-1.1,1.8-2.2,3.4-3.4,4.9s-2.3,2.6-3.4,3.6c-1.1,0.9-2.1,1.4-3,1.4
		c-1,0-1.9-0.3-2.7-0.8c-0.8-0.5-1.4-1.1-1.9-1.7c-0.6-0.7-1.2-1.5-1.6-2.5c-0.4,0.5-0.9,1-1.5,1.6s-1.2,1.1-1.8,1.6
		c-0.7,0.5-1.3,0.9-2.1,1.2c-0.7,0.3-1.4,0.5-2.1,0.5c-1.4,0-2.6-0.3-3.6-0.9c-1-0.6-1.9-1.4-2.6-2.4c-0.7-1-1.2-2.1-1.6-3.4
		S278.2,49.8,278.2,48.6z"/>
	<path class="st0" d="M341.9,35c0.4-0.6,0.8-1.1,1.3-1.2c0.5-0.2,0.9-0.2,1.3-0.1c0.4,0.2,0.7,0.5,0.8,0.9c0.2,0.5,0.1,1-0.2,1.7
		c-0.4,0.7-0.9,1.8-1.5,3.2c-0.7,1.4-1.5,2.9-2.4,4.6c-0.9,1.7-1.9,3.4-3,5.2c-1.1,1.8-2.2,3.3-3.4,4.8c-1.2,1.4-2.4,2.6-3.6,3.6
		c-1.2,0.9-2.4,1.4-3.5,1.4c-1.7,0-3.2-0.6-4.3-1.9c-1.1-1.3-1.7-3-1.7-5.2c0-0.7,0.2-1.7,0.5-2.7c0.3-1.1,0.7-2.3,1.2-3.5
		s1.1-2.6,1.7-4c0.6-1.4,1.2-2.7,1.8-4c-1.2,1.4-2.4,2.8-3.7,4.4c-1.3,1.6-2.5,3.1-3.7,4.6c-1.1,1.5-2.2,2.9-3,4.2s-1.5,2.4-2,3.3
		c0,0.2-0.1,0.3-0.1,0.5c0,0.1,0,0.2,0,0.3l0.1,0.4c0,0.1,0.1,0.2,0.1,0.4c0,0.1,0,0.3,0.1,0.4V56c0.1,0.4,0.2,0.8,0.3,1.2
		c0.1,0.4,0.1,0.7,0,0.9c-0.1,0.3-0.2,0.5-0.5,0.6c-0.3,0.2-0.7,0.2-1.3,0.2c-0.7,0-1.4-0.2-2.1-0.5c-0.7-0.3-1.4-0.8-1.9-1.4
		c-0.6-0.6-1.1-1.4-1.5-2.2c-0.4-0.8-0.6-1.8-0.6-2.9c0-1,0.1-2,0.4-3s0.7-2.2,1.1-3.3c0.5-1.1,1-2.3,1.6-3.5
		c0.6-1.2,1.2-2.3,1.8-3.5c1-1.9,1.9-3.8,2.7-5.4s1.2-3,1.2-4.1c0-0.6,0.4-0.9,1.2-0.9c0.8,0,1.6,0.2,2.6,0.6c1,0.4,1.8,1,2.6,1.8
		c0.8,0.8,1.2,1.7,1.2,2.8c0,0.5-0.1,1.1-0.4,1.9c-0.3,0.7-0.6,1.6-1,2.5c1.1-1.3,2.2-2.6,3.3-3.8c1.1-1.2,2.1-2.3,3-3.3
		c0.9-1,1.8-1.8,2.5-2.4c0.7-0.6,1.2-0.9,1.5-0.9c0.1,0,0.2,0,0.3,0c0.1,0,0.3,0,0.4,0.1c0.4,0.1,0.9,0.4,1.4,0.8
		c0.5,0.4,1,0.8,1.5,1.3c0.5,0.5,0.8,1.1,1.1,1.7c0.3,0.6,0.5,1.2,0.5,1.9c0,0.5-0.3,1.4-0.9,2.7c-0.6,1.3-1.3,2.8-2.1,4.5
		c-0.6,1.2-1.2,2.5-1.9,3.9c-0.7,1.4-1.2,2.7-1.8,3.9c-0.5,1.3-1,2.4-1.3,3.5c-0.4,1.1-0.5,1.9-0.5,2.6c0,0.3,0,0.4,0.1,0.4
		c0.5,0,1.2-0.4,1.9-1.1s1.5-1.7,2.4-2.9s1.7-2.5,2.6-4c0.9-1.5,1.7-2.9,2.5-4.4c0.8-1.4,1.5-2.8,2.1-4.1c0.6-1.3,1.1-2.3,1.4-3V35z
		"/>
</g>
</svg>
