<!-- Generator: Adobe Illustrator 22.1.0, SVG Export Plug-In  -->
<svg version="1.1"
	 xmlns="http://www.w3.org/2000/svg" xmlns:xlink="http://www.w3.org/1999/xlink" xmlns:a="http://ns.adobe.com/AdobeSVGViewerExtensions/3.0/"
	 x="0px" y="0px" width="1624.4px" height="331.2px" viewBox="0 0 1624.4 331.2" style="enable-background:new 0 0 1624.4 331.2;"
	 xml:space="preserve">
<style type="text/css">
	.st0{fill:#FFFFFF;}
</style>
<defs>
</defs>
<g>
	<g>
		<g>
			<path class="st0" d="M110.2,122L127.4,6.4h14.4c10,0,18.4,0.6,25,1.9c6.6,1.3,12.4,3.4,17.3,6.2c8.8,5.1,15.7,12,20.6,20.8
				c4.9,8.8,7.4,18.5,7.4,29.1c0,9.3-1.7,17.7-5.2,25.4c-3.4,7.7-8.3,14-14.7,19c-6,4.7-12.7,8-20.2,10c-7.5,2-18.3,3-32.4,3H110.2z
				 M128.6,108h15.6c17,0,29.8-3.6,38.3-10.9c8.5-7.2,12.8-18.1,12.8-32.6c0-13.7-4.2-24.4-12.6-32.3c-8.4-7.9-19.9-11.8-34.6-11.8
				h-6.4L128.6,108z"/>
			<path class="st0" d="M285,99.7l-2.4,15.4c-4.4,2.9-8.7,5.1-13,6.5c-4.3,1.4-8.6,2.1-12.8,2.1c-9.6,0-17.4-3.4-23.6-10.1
				c-6.1-6.7-9.2-15.4-9.2-25.9c0-12.7,3.5-23.1,10.5-31.4c7-8.3,15.8-12.4,26.4-12.4c8.8,0,15.6,2.6,20.2,7.7
				c4.7,5.2,7,12.5,7,22.2v8.7h-48.3l-0.3,5v1.9c0,6.2,1.8,11.4,5.4,15.6c3.6,4.2,8,6.2,13.2,6.2c4.1,0,8.3-0.9,12.6-2.7
				C274.9,106.6,279.7,103.7,285,99.7z M242.2,71.8h32.1v-2.1c0-4.3-1.2-7.7-3.6-10.2c-2.4-2.5-5.6-3.8-9.7-3.8
				c-4.8,0-8.7,1.3-11.8,3.9C246.3,62.2,243.9,66.3,242.2,71.8z"/>
			<path class="st0" d="M300.6,113l3.6-14.2c5.1,4.1,9.5,7.1,13.1,8.9c3.6,1.8,7,2.7,10.1,2.7c3,0,5.4-0.7,7.4-2.2
				c1.9-1.5,2.9-3.4,2.9-5.6c0-3.5-4.5-8.5-13.6-14.8l-0.3-0.2c-7.1-5-11.6-9-13.6-12.1c-2-3-2.9-6.6-2.9-10.6
				c0-6.2,2.2-11.3,6.7-15.1c4.4-3.8,10.3-5.7,17.7-5.7c4.5,0,8.7,0.7,12.8,2c4,1.3,7.9,3.3,11.4,5.9l-1.2,15.4
				c-4.4-3.4-8.5-6-12.5-7.7c-4-1.7-7.7-2.6-11.2-2.6c-2.7,0-4.9,0.6-6.5,1.9c-1.7,1.2-2.5,2.9-2.5,4.8c0,3,3.5,6.9,10.5,11.7
				c3.2,2.2,5.7,4,7.6,5.4c4.7,3.6,8,7,9.9,10.1c1.9,3.1,2.8,6.7,2.8,10.7c0,6.4-2.3,11.6-7,15.7c-4.7,4.1-10.6,6.1-17.9,6.1
				c-4.6,0-9.1-0.8-13.5-2.5C310,119.3,305.4,116.6,300.6,113z"/>
			<path class="st0" d="M427.5,122.2c-4.7,0.5-8.6,0.8-11.7,1c-3.1,0.2-5.6,0.3-7.7,0.3c-12.4,0-22.2-3-29.3-8.9
				c-7.1-5.9-10.6-14.1-10.6-24.4c0-7.3,1.7-14.2,5.1-20.7c3.4-6.4,8.3-12,14.6-16.6c4.3-3.1,9.2-5.5,14.6-7
				c5.4-1.5,11.7-2.3,18.8-2.3h3.4l5.4-37.3h14.7L427.5,122.2z M414.5,110.5l7.8-54c-0.4,0-1,0-1.8-0.1c-0.8-0.1-1.4-0.1-1.8-0.1
				c-10.5,0-19,3-25.6,8.9c-6.5,6-9.8,13.6-9.8,22.9c0,6.9,2.1,12.5,6.4,16.8c4.3,4.3,9.8,6.4,16.7,6.4c1.6,0,3-0.1,4.3-0.2
				C412.2,111,413.4,110.8,414.5,110.5z"/>
			<path class="st0" d="M511.3,99.7l-2.4,15.4c-4.4,2.9-8.7,5.1-13,6.5c-4.3,1.4-8.6,2.1-12.8,2.1c-9.6,0-17.4-3.4-23.6-10.1
				c-6.1-6.7-9.2-15.4-9.2-25.9c0-12.7,3.5-23.1,10.5-31.4c7-8.3,15.8-12.4,26.4-12.4c8.8,0,15.6,2.6,20.2,7.7
				c4.7,5.2,7,12.5,7,22.2v8.7h-48.3l-0.3,5v1.9c0,6.2,1.8,11.4,5.4,15.6c3.6,4.2,8,6.2,13.2,6.2c4.1,0,8.3-0.9,12.6-2.7
				C501.3,106.6,506,103.7,511.3,99.7z M468.5,71.8h32.1v-2.1c0-4.3-1.2-7.7-3.6-10.2c-2.4-2.5-5.6-3.8-9.7-3.8
				c-4.8,0-8.7,1.3-11.8,3.9C472.6,62.2,470.2,66.3,468.5,71.8z"/>
			<path class="st0" d="M636.6,99.7l-2.4,15.4c-4.4,2.9-8.7,5.1-13,6.5c-4.3,1.4-8.6,2.1-12.8,2.1c-9.6,0-17.4-3.4-23.6-10.1
				c-6.1-6.7-9.2-15.4-9.2-25.9c0-12.7,3.5-23.1,10.5-31.4c7-8.3,15.8-12.4,26.4-12.4c8.8,0,15.6,2.6,20.2,7.7
				c4.7,5.2,7,12.5,7,22.2v8.7h-48.3l-0.3,5v1.9c0,6.2,1.8,11.4,5.4,15.6c3.6,4.2,8,6.2,13.2,6.2c4.1,0,8.3-0.9,12.6-2.7
				C626.5,106.6,631.3,103.7,636.6,99.7z M593.8,71.8h32.1v-2.1c0-4.3-1.2-7.7-3.6-10.2c-2.4-2.5-5.6-3.8-9.7-3.8
				c-4.8,0-8.7,1.3-11.8,3.9C597.9,62.2,595.5,66.3,593.8,71.8z"/>
			<path class="st0" d="M672.4,6.4h15L670,122h-15L672.4,6.4z"/>
			<path class="st0" d="M797.9,103.1l-1.4,14.9c-3.9,1.9-7.6,3.3-11.3,4.2c-3.7,0.9-7.3,1.4-11,1.4c-10.2,0-18.5-3-24.6-8.9
				c-6.2-5.9-9.3-13.9-9.3-23.7c0-13.7,4.5-24.9,13.5-33.7c9-8.8,20.4-13.2,34.3-13.2c2.4,0,4.9,0.2,7.6,0.5
				c2.6,0.3,5.2,0.8,7.8,1.4l-1.3,12.4c-2.3-0.4-4.3-0.8-6.2-1c-1.9-0.2-3.7-0.3-5.2-0.3c-10.1,0-18.5,3-25,9.1
				c-6.6,6.1-9.8,13.7-9.8,23.1c0,6.8,1.8,12.1,5.4,16c3.6,3.9,8.5,5.8,14.8,5.8c3.7,0,7.3-0.6,10.9-1.9
				C790.5,107.6,794.2,105.7,797.9,103.1z"/>
			<path class="st0" d="M814.1,89.5c0-12.7,3.6-23.5,10.8-32.3C832,48.4,840.6,44,850.6,44c9.4,0,16.8,3,22.2,9.1
				c5.4,6.1,8.1,14.4,8.1,25.1c0,13.1-3.6,23.9-10.7,32.4c-7.2,8.6-16.2,12.8-27,12.8c-9,0-16.1-3-21.3-9
				C816.6,108.4,814.1,100.1,814.1,89.5z M851.1,56.1c-5.8,0-10.8,3.4-15.1,10.2c-4.3,6.8-6.4,14.9-6.4,24.4
				c0,6.5,1.3,11.6,3.8,15.4c2.6,3.7,6,5.6,10.4,5.6c6.3,0,11.5-3.2,15.5-9.7c4.1-6.5,6.1-14.9,6.1-25.3c0-6.5-1.3-11.5-3.8-15.1
				C859.2,57.9,855.6,56.1,851.1,56.1z"/>
			<path class="st0" d="M907.8,122h-14.2l11.4-76.3h14.2L917.1,60c3.7-5.8,7.1-9.9,10.1-12.1c3-2.3,6.3-3.4,9.9-3.4
				c0.9,0,1.9,0.1,3,0.3c1.1,0.2,2.2,0.6,3.4,1l-3.8,13.7c-0.8-0.2-1.5-0.3-2.2-0.4c-0.7-0.1-1.4-0.1-2-0.1c-4.2,0-8.1,1.6-11.5,4.8
				c-3.4,3.2-6.7,8.2-9.8,15.1L907.8,122z"/>
			<path class="st0" d="M1009.8,122h-14.4l1.4-9.5c-3,3.7-6.1,6.5-9.4,8.3c-3.3,1.8-6.9,2.7-10.7,2.7c-7.4,0-13.5-2.9-18.5-8.7
				c-4.9-5.8-7.4-13.1-7.4-21.9c0-5.2,0.8-10.2,2.5-15.2c1.7-5,4.1-9.5,7.2-13.7c5-6.5,10.7-11.2,17.3-14c6.6-2.9,15-4.3,25.4-4.3
				h17.8L1009.8,122z M999,98.5l5.8-40.2c-0.4-0.1-0.9-0.1-1.5-0.1c-0.6,0-1.4,0-2.4,0c-10.1,0-18.4,3.1-24.8,9.3
				c-6.4,6.2-9.6,14.2-9.6,24c0,6,1.4,10.8,4.1,14.5c2.7,3.7,6.3,5.5,10.6,5.5c3.4,0,6.5-1.1,9.5-3.2
				C993.7,106,996.4,102.7,999,98.5z"/>
			<path class="st0" d="M1092.9,122h-69.2l0.2-1.5l50.1-61.6h-39.4l1.9-13.2h64.5v1.6l-49.7,61.4h44.5L1092.9,122z"/>
			<path class="st0" d="M1106.8,89.5c0-12.7,3.6-23.5,10.8-32.3c7.2-8.8,15.8-13.2,25.7-13.2c9.4,0,16.8,3,22.2,9.1
				c5.4,6.1,8.1,14.4,8.1,25.1c0,13.1-3.6,23.9-10.7,32.4c-7.2,8.6-16.2,12.8-27,12.8c-9,0-16.1-3-21.3-9S1106.8,100.1,1106.8,89.5z
				 M1143.8,56.1c-5.8,0-10.8,3.4-15.1,10.2c-4.3,6.8-6.4,14.9-6.4,24.4c0,6.5,1.3,11.6,3.8,15.4c2.6,3.7,6,5.6,10.4,5.6
				c6.3,0,11.5-3.2,15.5-9.7c4.1-6.5,6.1-14.9,6.1-25.3c0-6.5-1.3-11.5-3.8-15.1C1151.9,57.9,1148.4,56.1,1143.8,56.1z M1144.1,34.5
				h-8.8l19.4-28.8h14.7L1144.1,34.5z"/>
			<path class="st0" d="M1186.1,122l11.6-76.3h14.7l-1.9,12.2c4.7-4.7,9.3-8.3,13.8-10.6c4.5-2.3,8.9-3.5,13.3-3.5
				c5.7,0,10.2,1.8,13.3,5.5c3.2,3.7,4.8,8.8,4.8,15.5c0,1.7-0.1,3.5-0.2,5.4c-0.2,2-0.4,4-0.7,6.2l-6.8,45.5h-14.7l6.9-49.2
				c0.2-1.6,0.4-3.1,0.5-4.4c0.1-1.3,0.2-2.4,0.2-3.2c0-3-0.7-5.2-2.2-6.7s-3.7-2.3-6.6-2.3c-3.5,0-7.2,1.3-11.1,3.9
				c-3.9,2.6-7.8,6.4-11.9,11.6l-8.1,50.4H1186.1z"/>
			<path class="st0" d="M1376.5,122.2c-4.7,0.5-8.6,0.8-11.7,1c-3.1,0.2-5.6,0.3-7.7,0.3c-12.4,0-22.2-3-29.3-8.9
				c-7.1-5.9-10.6-14.1-10.6-24.4c0-7.3,1.7-14.2,5.1-20.7c3.4-6.4,8.3-12,14.6-16.6c4.3-3.1,9.2-5.5,14.6-7
				c5.4-1.5,11.7-2.3,18.8-2.3h3.4l5.4-37.3h14.7L1376.5,122.2z M1363.4,110.5l7.8-54c-0.4,0-1,0-1.8-0.1c-0.8-0.1-1.4-0.1-1.8-0.1
				c-10.5,0-19,3-25.6,8.9c-6.5,6-9.8,13.6-9.8,22.9c0,6.9,2.1,12.5,6.4,16.8c4.3,4.3,9.8,6.4,16.7,6.4c1.6,0,3-0.1,4.3-0.2
				C1361.1,111,1362.3,110.8,1363.4,110.5z"/>
			<path class="st0" d="M1456.9,99.7l-2.4,15.4c-4.4,2.9-8.7,5.1-13,6.5c-4.3,1.4-8.6,2.1-12.8,2.1c-9.6,0-17.4-3.4-23.6-10.1
				c-6.1-6.7-9.2-15.4-9.2-25.9c0-12.7,3.5-23.1,10.5-31.4c7-8.3,15.8-12.4,26.4-12.4c8.8,0,15.6,2.6,20.2,7.7
				c4.7,5.2,7,12.5,7,22.2v8.7h-48.3l-0.3,5v1.9c0,6.2,1.8,11.4,5.4,15.6c3.6,4.2,8,6.2,13.2,6.2c4.1,0,8.3-0.9,12.6-2.7
				C1446.8,106.6,1451.6,103.7,1456.9,99.7z M1414.1,71.8h32.1v-2.1c0-4.3-1.2-7.7-3.6-10.2c-2.4-2.5-5.6-3.8-9.7-3.8
				c-4.8,0-8.7,1.3-11.8,3.9C1418.2,62.2,1415.8,66.3,1414.1,71.8z"/>
			<path class="st0" d="M109,293.2l17.3-115.6h22.1c10.7,0,18.1,0.2,22.4,0.6c4.2,0.4,7.8,1,10.6,2c6.3,1.9,11.2,5.2,14.7,9.7
				c3.4,4.5,5.2,9.9,5.2,16.2c0,5.6-1.4,10.5-4.1,14.6c-2.7,4.1-6.7,7.3-11.9,9.6c6.7,2.8,11.9,6.6,15.5,11.6
				c3.6,5,5.4,10.7,5.4,17.1c0,4.8-1,9.3-3,13.4c-2,4.1-4.9,7.8-8.8,11c-4.2,3.5-9.4,6-15.5,7.6c-6.1,1.5-14.5,2.3-25.3,2.3H109z
				 M136.8,274.9h20.1c7.8,0,13.8-1.5,18.1-4.6c4.2-3.1,6.3-7.4,6.3-13c0-6.2-2.1-10.5-6.2-13.1c-4.1-2.6-11.4-3.8-21.9-3.8H142
				L136.8,274.9z M144.7,222.9h13.2c6.6,0,11.4-1.2,14.6-3.5c3.2-2.3,4.8-5.9,4.8-10.7c0-4.5-1.5-7.9-4.6-10.2
				c-3.1-2.3-7.6-3.4-13.7-3.4h-10.3L144.7,222.9z"/>
			<path class="st0" d="M205.7,293.2l55.1-115.6h28.3l19.5,115.6h-24.4l-3.9-25.2h-36.1l-11,25.2H205.7z M251.5,251h26.2l-6.6-44.1
				L251.5,251z"/>
			<path class="st0" d="M294.7,330.9l-5-18.8c0.5,0,1.2,0,2,0.1c0.9,0.1,1.5,0.1,1.9,0.1c4.8,0,8.6-0.5,11.5-1.5
				c2.9-1,5-2.6,6.4-4.7c1.5-2.2,2.7-5.2,3.7-9c1-3.8,2.1-10.1,3.4-19.1l14.8-100.4H359l-15.4,103.6l-0.1,0.2
				c-3.4,23.1-8,37.3-14,42.5c-2.8,2.4-6.5,4.3-11.1,5.5c-4.6,1.3-9.9,1.9-15.9,1.9c-1.5,0-3.9-0.1-7.1-0.3
				C295.1,330.9,294.8,330.9,294.7,330.9z"/>
			<path class="st0" d="M353.3,293.2l55.1-115.6h28.3l19.5,115.6h-24.4l-3.9-25.2h-36.1l-11,25.2H353.3z M399.1,251h26.2l-6.6-44.1
				L399.1,251z"/>
			<path class="st0" d="M602.5,286.7c-5.7,2.8-11.6,4.9-17.6,6.4c-6.1,1.4-12.3,2.1-18.6,2.1c-16.1,0-29.2-5-39.3-15.1
				c-10.1-10.1-15.2-23-15.2-39c0-9.3,1.7-17.9,5-25.7c3.4-7.8,8.4-14.8,15-21c7.1-6.5,15.1-11.3,24.2-14.3
				c9.1-3.1,19.8-4.6,32.2-4.6c5.3,0,10.5,0.3,15.5,1s10,1.7,14.8,3.2l-3.2,21.2c-5-1.2-9.6-2.1-13.9-2.7c-4.3-0.6-8.4-0.9-12.3-0.9
				c-15.9,0-28.5,4-37.8,11.9c-9.3,8-14,18.7-14,32.2c0,9.9,2.9,17.5,8.8,23.1c5.9,5.5,14.1,8.3,24.6,8.3c6.2,0,12.4-1.2,18.6-3.7
				c6.3-2.5,12.1-6,17.5-10.5L602.5,286.7z"/>
			<path class="st0" d="M613.4,293.2l55.1-115.6h28.3l19.5,115.6h-24.4L688,268h-36.1l-11,25.2H613.4z M659.2,251h26.2l-6.6-44.1
				L659.2,251z"/>
			<path class="st0" d="M723.7,293.2L741,177.6h25l-14.4,96.7h52.5l-2.7,18.9H723.7z"/>
			<path class="st0" d="M814.4,293.2l17.1-115.6h25.7l-17.3,115.6H814.4z"/>
			<path class="st0" d="M863,293.2l17.3-115.6h65.6l-3.1,20.2h-40.7l-4,26.8h35.5l-2.9,19.1h-35.5l-7.3,49.6H863z"/>
			<path class="st0" d="M949.9,242.7c0-9.1,1.4-17.4,4.2-25c2.8-7.5,7-14.4,12.7-20.6c6.3-6.9,13.8-12.3,22.3-15.9
				c8.5-3.7,17.5-5.5,27-5.5c6.8,0,13.1,0.8,18.7,2.5c5.6,1.7,10.7,4.2,15.2,7.6c6.3,4.7,11.2,10.7,14.6,18
				c3.4,7.3,5.1,15.4,5.1,24.1c0,8.9-1.4,17.3-4.2,25c-2.8,7.7-6.9,14.5-12.3,20.3c-6.6,7.2-14,12.6-22.4,16.2
				c-8.4,3.7-17.5,5.5-27.4,5.5c-6.9,0-13.1-0.8-18.7-2.5c-5.6-1.7-10.6-4.2-15-7.5c-6.2-4.7-11-10.8-14.5-18.3
				C951.7,259.3,949.9,251.3,949.9,242.7z M1015,197.2c-11.2,0-20.5,4.1-27.8,12.3c-7.4,8.2-11.1,18.5-11.1,30.9
				c0,10.2,2.5,18.3,7.6,24.2s12.1,8.8,20.9,8.8c11.3,0,20.7-4.1,28.1-12.4c7.4-8.3,11-18.9,11-31.9c0-9.3-2.7-16.9-8.1-22.8
				C1030.2,200.2,1023.3,197.2,1015,197.2z"/>
			<path class="st0" d="M1077.6,293.2l17.3-115.6h26.5c9.5,0,16.9,0.4,22.1,1.2c5.2,0.8,9.5,2,12.7,3.8c5.5,2.9,9.7,6.9,12.8,12
				c3.1,5.1,4.6,10.8,4.6,16.9c0,8-2.2,14.7-6.6,20.2c-4.4,5.5-10.6,9.1-18.4,10.8c3.3,1.8,7,6.3,11.2,13.7
				c4.2,7.4,10.1,19.7,17.5,37h-26.8c-2.1-4.3-4.8-10-8.3-17.1c-5-10.5-8.3-16.9-10-19.4c-2.4-3.6-5-6.2-7.9-7.8
				c-2.9-1.6-6.4-2.4-10.7-2.4c-1.1,0-2,0-2.6,0c-0.6,0-1.2,0.1-1.7,0.1l-6.9,46.5H1077.6z M1112.5,227.8l0.5,0.1
				c4.1,0.2,7.1,0.3,8.9,0.3c9.1,0,15.8-1.3,20-3.9c4.2-2.6,6.3-6.7,6.3-12.2c0-5.3-1.9-9.2-5.6-11.7c-3.7-2.5-9.5-3.8-17.3-3.8
				c-2.1,0-3.8,0-5,0.1c-1.2,0.1-2.3,0.1-3.3,0.2L1112.5,227.8z"/>
			<path class="st0" d="M1182.7,293.2l17.3-115.6h25.2l46.2,77.2l10.3-77.2h25.4L1290,293.2h-22.6l-48.1-80.2l-11.3,80.2H1182.7z"/>
			<path class="st0" d="M1313.2,293.2l17.1-115.6h25.7l-17.3,115.6H1313.2z"/>
			<path class="st0" d="M1350.4,293.2l55.1-115.6h28.3l19.5,115.6h-24.4l-3.9-25.2h-36.1l-11,25.2H1350.4z M1396.3,251h26.2
				l-6.6-44.1L1396.3,251z"/>
			<path class="st0" d="M1596.8,281c0-3.9,1.3-7.2,4-9.9c2.6-2.7,5.9-4,9.7-4c3.8,0,7.1,1.4,9.8,4c2.7,2.7,4.1,6,4.1,9.8
				c0,3.7-1.4,7-4.1,9.6c-2.7,2.7-6,4-9.8,4c-3.8,0-7-1.3-9.7-4C1598.2,288,1596.8,284.8,1596.8,281z"/>
		</g>
	</g>
	<path class="st0" d="M26.9,30.8c3.1,0.9,5.5,2.8,7.3,5.5c1.8,2.7,2.7,5.9,2.7,9.6c0,5-1.8,9.2-5.3,12.8c-3.5,3.5-7.7,5.3-12.7,5.3
		c-5.8,0-10.5-1.9-13.9-5.8C1.7,54.2,0,48.9,0,42.3c0-10.6,3.5-19.8,10.6-27.7C17.6,6.6,26.7,1.8,37.8,0v5.9
		c-3.7,3.9-6.4,7.8-8.2,11.6c-1.8,3.8-2.7,7.7-2.7,11.5V30.8z M79.8,30.8c3.1,0.9,5.5,2.8,7.3,5.5c1.8,2.7,2.7,5.9,2.7,9.6
		c0,5-1.7,9.2-5.2,12.8c-3.5,3.5-7.7,5.3-12.7,5.3c-5.8,0-10.4-1.9-13.8-5.8c-3.4-3.9-5.1-9.2-5.1-15.8c0-10.6,3.5-19.8,10.5-27.7
		C70.4,6.6,79.5,1.8,90.6,0v5.9c-3.6,3.9-6.3,7.8-8.1,11.6c-1.8,3.8-2.7,7.7-2.7,11.5V30.8z"/>
	<path class="st0" d="M1539.1,286.7c-3.1-0.9-5.5-2.8-7.3-5.5c-1.8-2.7-2.7-5.9-2.7-9.6c0-5,1.8-9.2,5.3-12.8
		c3.5-3.5,7.7-5.3,12.7-5.3c5.8,0,10.5,1.9,13.9,5.8c3.4,3.9,5.1,9.2,5.1,15.8c0,10.6-3.5,19.8-10.6,27.7
		c-7,7.9-16.1,12.8-27.2,14.5v-5.9c3.7-3.9,6.4-7.8,8.2-11.6c1.8-3.8,2.7-7.7,2.7-11.5V286.7z M1486.2,286.7
		c-3.1-0.9-5.5-2.8-7.3-5.5c-1.8-2.7-2.7-5.9-2.7-9.6c0-5,1.7-9.2,5.2-12.8c3.5-3.5,7.7-5.3,12.7-5.3c5.8,0,10.4,1.9,13.8,5.8
		c3.4,3.9,5.1,9.2,5.1,15.8c0,10.6-3.5,19.8-10.5,27.7c-7,7.9-16.1,12.8-27.2,14.5v-5.9c3.6-3.9,6.3-7.8,8.1-11.6
		c1.8-3.8,2.7-7.7,2.7-11.5V286.7z"/>
</g>
</svg>
