<!-- Generator: Adobe Illustrator 22.1.0, SVG Export Plug-In  -->
<svg version="1.1"
	 xmlns="http://www.w3.org/2000/svg" xmlns:xlink="http://www.w3.org/1999/xlink" xmlns:a="http://ns.adobe.com/AdobeSVGViewerExtensions/3.0/"
	 x="0px" y="0px" width="588.5px" height="215.9px" viewBox="0 0 588.5 215.9" style="enable-background:new 0 0 588.5 215.9;"
	 xml:space="preserve">
<style type="text/css">
	.st0{fill:#FFFFFF;}
</style>
<defs>
</defs>
<g>
	<g>
		<path class="st0" d="M63,42.4h12.3l3.6,11.1h8L73.9,14.1l0-0.1h-9.3L51.9,53.6h7.7L63,42.4z M68.4,22.4c0.2-0.8,0.4-1.5,0.5-2.2
			c0.1,0.4,0.2,0.7,0.3,1.1c0.5,1.9,1,4.1,1.6,6l3,9.5h-9.8l3-9.5C67.6,25.7,68,24,68.4,22.4z"/>
		<path class="st0" d="M110.3,28.5c-1.7-2.8-4.6-4.3-8.3-4.3c-6.4,0-12.8,5.3-12.8,15.4c0,8.4,5.1,14.5,12,14.5c3.8,0,7-1.6,8.8-4.4
			v15.3h7.4V33.3c0-2.9,0.1-5.4,0.2-8.2l0-0.1h-7.2L110.3,28.5z M110,36.8v4.7c0,0.8-0.1,1.6-0.3,2.2c-0.8,2.8-3.2,4.6-6,4.6
			c-4.2,0-6.9-3.5-6.9-9c0-5.6,2.7-9.2,7.1-9.2c3.3,0,5.4,2.4,6,4.9C109.9,35.5,110,36.2,110,36.8z"/>
		<path class="st0" d="M150.5,44.9v-20h-7.4v17.3c0,0.9-0.1,1.7-0.4,2.2c-0.7,1.7-2.5,3.8-5.4,3.8c-3.4,0-5.2-2.6-5.2-7.6V24.9h-7.4
			v16.8c0,7.9,3.6,12.5,10,12.5c5.5,0,8.3-3.4,9.2-4.9l0.3,4.2h6.5l0-0.1C150.7,51.1,150.5,48.3,150.5,44.9z"/>
		<rect x="158.1" y="24.9" class="st0" width="7.4" height="28.7"/>
		<polygon class="st0" points="170.8,12.6 163.4,12.6 158.3,21.3 158.2,21.5 163.4,21.5 		"/>
		<rect x="185.1" y="24.9" class="st0" width="7.4" height="28.7"/>
		<path class="st0" d="M188.8,21.1L188.8,21.1c2.5,0,4.2-1.7,4.2-4c-0.1-2.4-1.7-4-4.2-4c-2.4,0-4.2,1.7-4.2,4
			C184.7,19.4,186.4,21.1,188.8,21.1z"/>
		<path class="st0" d="M200,33.5v20.1h7.4V36.7c0-0.9,0.1-1.7,0.3-2.2c0.7-1.9,2.5-4.1,5.5-4.1c4.6,0,5.3,4.4,5.3,7.1v16.2h7.4v-17
			c0-9.1-5.3-12.3-10.2-12.3c-4.6,0-7.8,2.5-9.2,4.9l-0.3-4.2h-6.5l0,0.1C199.9,27.4,200,30.2,200,33.5z"/>
		<path class="st0" d="M237.1,21.1L237.1,21.1c2.5,0,4.2-1.7,4.2-4c-0.1-2.4-1.7-4-4.2-4c-2.4,0-4.2,1.7-4.2,4
			C233,19.4,234.8,21.1,237.1,21.1z"/>
		<rect x="233.4" y="24.9" class="st0" width="7.4" height="28.7"/>
		<path class="st0" d="M261.3,54.2c3.6,0,6.6-0.8,8.1-1.5l0.1,0l-1-5.6l-0.1,0.1c-1.8,0.7-3.6,1.1-5.6,1.1c-5.1,0-8.6-3.6-8.6-9
			c0-2.7,0.8-5.1,2.5-6.7c1.5-1.5,3.6-2.4,6.1-2.4c2.1,0,3.9,0.4,5.4,1.1l0.1,0.1l1.3-5.6l0-0.1l-0.1,0c-1.8-0.8-4.6-1.3-7-1.3
			c-9.5,0-15.9,6.1-15.9,15.2C246.5,48.4,252.3,54.2,261.3,54.2z"/>
		<rect x="274.6" y="24.9" class="st0" width="7.4" height="28.7"/>
		<path class="st0" d="M278.3,13.1c-2.4,0-4.2,1.7-4.2,4c0,2.3,1.8,4,4.1,4h0.1c2.4,0,4.2-1.7,4.2-4
			C282.4,14.7,280.7,13.1,278.3,13.1z"/>
		<path class="st0" d="M311.8,46.6V36.4c0-5.5-2.1-12.1-11.9-12.1c-3.9,0-7.7,0.9-10.3,2.5l-0.1,0l1.5,4.9l0.1-0.1
			c2-1.3,4.9-2.1,7.6-2.1c4.9,0,5.7,3,5.7,4.8v0.3c0,0-0.1,0-0.1,0c-6.5,0-11.3,1.4-14.1,4.2c-1.8,1.7-2.6,4-2.6,6.7
			c0,4.3,3.1,8.6,9.1,8.6c3.5,0,6.6-1.4,8.5-3.8l0.5,3.2h6.7l0-0.1C312,51.9,311.8,49.6,311.8,46.6z M298.8,48.8c-2.5,0-4-1.5-4-4
			c0-1.2,0.4-2.2,1.2-3c1.4-1.4,4.2-2.2,8.2-2.2c0.1,0,0.2,0,0.3,0v3.8c0,0.5,0,1-0.2,1.5C303.7,46.9,301.8,48.8,298.8,48.8z"/>
		<rect x="331.2" y="11.8" class="st0" width="7.4" height="41.7"/>
		<path class="st0" d="M361,34.8c-6.5,0-11.3,1.4-14.1,4.2c-1.8,1.7-2.6,4-2.6,6.7c0,4.3,3.1,8.6,9.1,8.6c3.5,0,6.6-1.4,8.5-3.8
			l0.5,3.2h6.7l0-0.1c-0.3-1.5-0.5-3.8-0.5-6.8V36.4c0-5.5-2.1-12.1-11.9-12.1c-3.9,0-7.7,0.9-10.3,2.5l-0.1,0l1.5,4.9l0.1-0.1
			c2-1.3,4.9-2.1,7.6-2.1c4.9,0,5.7,3,5.7,4.8v0.3C361.1,34.8,361,34.8,361,34.8z M355.6,48.8c-2.5,0-4-1.5-4-4c0-1.2,0.4-2.2,1.2-3
			c1.4-1.4,4.2-2.2,8.2-2.2c0.1,0,0.2,0,0.3,0v3.8c0,0.5,0,1-0.2,1.5C360.5,46.9,358.5,48.8,355.6,48.8z"/>
		<path class="st0" d="M411,16.9c-2.6-2.1-6.5-3.2-11.6-3.2c-4.2,0-7.9,0.3-11,0.8l-0.1,0v39h7.4V38.7c1.1,0.2,2.3,0.3,3.4,0.3
			c5.3,0,9.7-1.5,12.5-4.3c2.2-2.1,3.4-5.2,3.4-9C414.9,22.2,413.5,19,411,16.9z M399,33.1c-1.4,0-2.5-0.1-3.4-0.3v-13
			c0.5-0.1,1.8-0.3,4-0.3c5,0,7.9,2.4,7.9,6.5C407.5,30.5,404.3,33.1,399,33.1z"/>
		<path class="st0" d="M434.1,34.8c-6.5,0-11.3,1.4-14.1,4.2c-1.8,1.7-2.6,4-2.6,6.7c0,4.3,3.1,8.6,9.1,8.6c3.5,0,6.6-1.4,8.5-3.8
			l0.5,3.2h6.7l0-0.1c-0.3-1.5-0.5-3.8-0.5-6.8V36.4c0-5.5-2.1-12.1-11.9-12.1c-3.9,0-7.7,0.9-10.3,2.5l-0.1,0l1.5,4.9l0.1-0.1
			c2-1.3,4.9-2.1,7.6-2.1c4.9,0,5.7,3,5.7,4.8v0.3C434.2,34.8,434.2,34.8,434.1,34.8z M428.7,48.8c-2.5,0-4-1.5-4-4
			c0-1.2,0.4-2.2,1.2-3c1.4-1.4,4.2-2.2,8.2-2.2c0.1,0,0.2,0,0.3,0v3.8c0,0.5,0,1-0.2,1.5C433.6,46.9,431.6,48.8,428.7,48.8z"/>
		<path class="st0" d="M449.8,43.7c0,3.9,0.7,6.4,2.3,8.1c1.4,1.5,3.6,2.4,6.3,2.4c2.4,0,4.3-0.4,5.2-0.8l0.1,0l-0.1-5.7l-0.2,0
			c-0.8,0.2-1.4,0.3-2.8,0.3c-2.5,0-3.6-1.5-3.6-5.1V30.5h6.8v-5.6h-6.8v-7.3l-7.2,2l-0.1,0v5.3h-4v5.6h4V43.7z"/>
		<path class="st0" d="M469.2,34.2v19.4h7.4V38.7c0-0.8,0.1-1.5,0.2-2.1c0.6-3.3,3.1-5.3,6.3-5.3c0.8,0,1.5,0.1,2.1,0.2l0.1,0v-7
			l-0.1,0c-0.6-0.1-1-0.2-1.7-0.2c-3.5,0-6.5,2.3-7.9,5.9l-0.3-5.2l0-0.1h-6.4l0,0.1C469.1,27.4,469.2,30.1,469.2,34.2z"/>
		<rect x="489.9" y="24.9" class="st0" width="7.4" height="28.7"/>
		<path class="st0" d="M493.6,21.1L493.6,21.1c2.5,0,4.2-1.7,4.2-4c-0.1-2.4-1.7-4-4.2-4c-2.4,0-4.2,1.7-4.2,4
			C489.5,19.4,491.3,21.1,493.6,21.1z"/>
		<path class="st0" d="M527.2,46.6V36.4c0-5.5-2.1-12.1-11.9-12.1c-3.9,0-7.7,0.9-10.3,2.5l-0.1,0l1.5,4.9l0.1-0.1
			c2-1.3,4.9-2.1,7.6-2.1c4.9,0,5.7,3,5.7,4.8v0.3c0,0-0.1,0-0.1,0c-6.5,0-11.3,1.4-14.1,4.2c-1.8,1.7-2.6,4-2.6,6.7
			c0,4.3,3.1,8.6,9.1,8.6c3.5,0,6.6-1.4,8.5-3.8l0.5,3.2h6.7l0-0.1C527.3,51.9,527.2,49.6,527.2,46.6z M514.2,48.8c-2.5,0-4-1.5-4-4
			c0-1.2,0.4-2.2,1.2-3c1.4-1.4,4.2-2.2,8.2-2.2c0.1,0,0.2,0,0.3,0v3.8c0,0.5,0,1-0.2,1.5C519.1,46.9,517.2,48.8,514.2,48.8z"/>
		<path class="st0" d="M535.1,45.1c-0.7,4.7-2.3,10.9-3.9,15.4l-0.1,0.2l5.2-0.5l0-0.1c2.2-3.5,4.7-9.6,6.5-15.6l0.1-0.2L535.1,45.1
			L535.1,45.1z"/>
		<path class="st0" d="M63,117.5h12.3l3.6,11.1h8L73.9,89.1l0-0.1h-9.3l-12.7,39.6h7.7L63,117.5z M68.4,97.4
			c0.2-0.8,0.4-1.5,0.5-2.2c0.1,0.4,0.2,0.7,0.3,1.1c0.5,1.9,1,4.1,1.6,6l3,9.5h-9.8l3-9.5C67.6,100.7,68,99,68.4,97.4z"/>
		<path class="st0" d="M110.3,103.6c-1.7-2.8-4.6-4.3-8.3-4.3c-6.4,0-12.8,5.3-12.8,15.4c0,8.4,5.1,14.5,12,14.5
			c3.8,0,7-1.6,8.8-4.4v15.3h7.4v-31.9c0-2.9,0.1-5.4,0.2-8.2l0-0.1h-7.2L110.3,103.6z M110,111.8v4.7c0,0.8-0.1,1.6-0.3,2.2
			c-0.8,2.8-3.2,4.6-6,4.6c-4.2,0-6.9-3.5-6.9-9c0-5.6,2.7-9.2,7.1-9.2c3.3,0,5.4,2.4,6,4.9C109.9,110.6,110,111.2,110,111.8z"/>
		<path class="st0" d="M150.5,120v-20h-7.4v17.3c0,0.9-0.1,1.7-0.4,2.2c-0.7,1.7-2.5,3.8-5.4,3.8c-3.4,0-5.2-2.6-5.2-7.6V99.9h-7.4
			v16.8c0,7.9,3.6,12.5,10,12.5c5.5,0,8.3-3.4,9.2-4.9l0.3,4.2h6.5l0-0.1C150.7,126.2,150.5,123.4,150.5,120z"/>
		<rect x="158.1" y="99.9" class="st0" width="7.4" height="28.7"/>
		<polygon class="st0" points="158.3,96.3 158.2,96.5 163.4,96.5 170.8,87.6 163.4,87.6 		"/>
		<rect x="185.1" y="99.9" class="st0" width="7.4" height="28.7"/>
		<path class="st0" d="M188.8,96.1L188.8,96.1c2.5,0,4.2-1.7,4.2-4c-0.1-2.4-1.7-4-4.2-4c-2.4,0-4.2,1.7-4.2,4
			C184.7,94.4,186.4,96.1,188.8,96.1z"/>
		<path class="st0" d="M226,128.6v-17c0-9.1-5.3-12.3-10.2-12.3c-4.6,0-7.8,2.5-9.2,4.9l-0.3-4.2h-6.5l0,0.1
			c0.1,2.4,0.2,5.2,0.2,8.5v20.1h7.4v-16.9c0-0.9,0.1-1.7,0.3-2.2c0.7-1.9,2.5-4.1,5.5-4.1c4.6,0,5.3,4.4,5.3,7.1v16.2H226z"/>
		<path class="st0" d="M237.1,96.1L237.1,96.1c2.5,0,4.2-1.7,4.2-4c-0.1-2.4-1.7-4-4.2-4c-2.4,0-4.2,1.7-4.2,4
			C233,94.4,234.8,96.1,237.1,96.1z"/>
		<rect x="233.4" y="99.9" class="st0" width="7.4" height="28.7"/>
		<path class="st0" d="M269.4,127.7L269.4,127.7l-0.9-5.6l-0.1,0.1c-1.8,0.7-3.6,1.1-5.6,1.1c-5.1,0-8.6-3.6-8.6-9
			c0-2.7,0.8-5.1,2.5-6.7c1.5-1.5,3.6-2.4,6.1-2.4c2.1,0,3.9,0.4,5.4,1.1l0.1,0.1l1.3-5.6l0-0.1l-0.1,0c-1.8-0.8-4.6-1.3-7-1.3
			c-9.5,0-15.9,6.1-15.9,15.2c0,8.9,5.8,14.7,14.8,14.7C264.9,129.2,267.9,128.4,269.4,127.7z"/>
		<rect x="274.6" y="99.9" class="st0" width="7.4" height="28.7"/>
		<path class="st0" d="M278.3,88.1c-2.4,0-4.2,1.7-4.2,4c0,2.3,1.8,4,4.1,4h0.1c2.4,0,4.2-1.7,4.2-4
			C282.4,89.7,280.7,88.1,278.3,88.1z"/>
		<path class="st0" d="M311.8,121.7v-10.2c0-5.5-2.1-12.1-11.9-12.1c-3.9,0-7.7,0.9-10.3,2.5l-0.1,0l1.5,4.9l0.1-0.1
			c2-1.3,4.9-2.1,7.6-2.1c4.9,0,5.7,3,5.7,4.8v0.3c0,0-0.1,0-0.1,0c-6.5,0-11.3,1.4-14.1,4.2c-1.8,1.7-2.6,4-2.6,6.7
			c0,4.3,3.1,8.6,9.1,8.6c3.5,0,6.6-1.4,8.5-3.8l0.5,3.2h6.7l0-0.1C312,126.9,311.8,124.6,311.8,121.7z M298.8,123.9
			c-2.5,0-4-1.5-4-4c0-1.2,0.4-2.2,1.2-3c1.4-1.4,4.2-2.2,8.2-2.2c0.1,0,0.2,0,0.3,0v3.8c0,0.5,0,1-0.2,1.5
			C303.7,122,301.8,123.9,298.8,123.9z"/>
		<path class="st0" d="M326.6,128.6v-14.9c0-0.8,0.1-1.5,0.2-2.1c0.6-3.3,3.1-5.3,6.3-5.3c0.8,0,1.5,0.1,2.1,0.2l0.1,0v-7l-0.1,0
			c-0.6-0.1-1-0.2-1.7-0.2c-3.5,0-6.5,2.3-7.9,5.9l-0.3-5.2l0-0.1h-6.4l0,0.1c0.2,2.4,0.2,5,0.2,9.2v19.4H326.6z"/>
		<path class="st0" d="M366.7,114c0-8.8-5.7-14.7-14.2-14.7c-8.9,0-14.8,6.1-14.8,15.2c0,4.4,1.4,8.2,4.2,10.8
			c2.6,2.5,6.2,3.9,10.2,3.9h0.1C359.3,129.3,366.7,124.5,366.7,114z M352.2,123.8L352.2,123.8c-4.1,0-6.9-3.9-6.9-9.5
			c0-4.4,1.8-9.6,7-9.6c4.7,0,6.8,4.7,6.8,9.4C359,119.9,356.2,123.8,352.2,123.8z"/>
		<path class="st0" d="M388.1,99.3c-4.6,0-7.8,2.5-9.2,4.9l-0.3-4.2h-6.5l0,0.1c0.1,2.4,0.2,5.2,0.2,8.5v20.1h7.4v-16.9
			c0-0.9,0.1-1.7,0.3-2.2c0.7-1.9,2.5-4.1,5.5-4.1c4.6,0,5.3,4.4,5.3,7.1v16.2h7.4v-17C398.3,102.5,393,99.3,388.1,99.3z"/>
		<rect x="417.8" y="86.9" class="st0" width="7.4" height="41.7"/>
		<path class="st0" d="M445.8,99.3c-8.9,0-14.8,6.1-14.8,15.2c0,4.4,1.4,8.2,4.2,10.8c2.6,2.5,6.2,3.9,10.2,3.9h0.1
			c7.3,0,14.7-4.7,14.7-15.2C460.1,105.2,454.3,99.3,445.8,99.3z M445.6,123.8L445.6,123.8c-4.1,0-6.9-3.9-6.9-9.5
			c0-4.4,1.8-9.6,7-9.6c4.7,0,6.8,4.7,6.8,9.4C452.4,119.9,449.6,123.8,445.6,123.8z"/>
		<path class="st0" d="M472.6,116.7c3.6,1.3,4.6,2.2,4.6,4c0,2-1.6,3.1-4.4,3.1c-2.5,0-5.6-1.1-7.2-2.1l-0.1-0.1l-1.5,5.5l0.1,0
			c2.3,1.3,5.5,2,8.7,2c7.2,0,11.7-3.5,11.7-9.1c-0.1-4.2-2.4-6.9-7.7-8.8c-3.6-1.3-4.9-2.1-4.9-3.9c0-1.8,1.5-2.9,3.8-2.9
			c2.4,0,4.7,0.9,5.9,1.6l0.1,0.1l1.5-5.3l-0.1,0c-1.9-1.1-4.8-1.7-7.6-1.7c-6.4,0-10.9,3.7-10.9,9
			C464.7,110.9,466.1,114.5,472.6,116.7z"/>
		<path class="st0" d="M74,178.7c-1.2-2-3.6-4.3-8.2-4.3c-6.5,0-13,5.2-13,15.1c0,8.1,5.1,14,12.2,14c3.5,0,6.5-1.5,8.3-4.1v2.2
			c0,5.5-2.9,8.5-8,8.5c-4.2,0-7.4-1.6-8.2-2.1l-0.1-0.1l-1.6,5.7l0.1,0c2.4,1.4,6.2,2.3,10,2.3c4.8,0,8.5-1.2,11.1-3.5
			c2.9-2.6,4.2-6.7,4.2-13v-16.1c0-4,0.1-6.3,0.2-8.2l0-0.1h-6.5L74,178.7z M67.1,197.9c-4.7,0-6.8-4.3-6.8-8.6
			c0-5.5,2.8-9.2,6.9-9.2c2.8,0,4.9,1.7,5.7,4.5c0.2,0.5,0.2,1.1,0.2,1.9v4.6c0,1.1-0.1,1.9-0.3,2.5C72,196.1,69.7,197.9,67.1,197.9
			z"/>
		<path class="st0" d="M101,174.3c-8.9,0-14.8,6.1-14.8,15.2c0,4.4,1.4,8.2,4.2,10.8c2.6,2.5,6.2,3.9,10.2,3.9h0.1
			c7.3,0,14.7-4.7,14.7-15.2C115.3,180.3,109.6,174.3,101,174.3z M100.8,198.9L100.8,198.9c-4.1,0-6.9-3.9-6.9-9.5
			c0-4.4,1.8-9.6,7-9.6c4.7,0,6.8,4.7,6.8,9.4C107.6,194.9,104.8,198.9,100.8,198.9z"/>
		<path class="st0" d="M137.5,174.3c-4,0-7.2,1.6-9.1,4.4v-16.9h-7.4v33.7c0,3-0.1,6.2-0.2,7.9l0,0.1h6.4l0.3-4.2
			c1.9,3.1,5,4.8,9,4.8c6.3,0,13-4.8,13-15.4c0-4.6-1.4-8.7-4-11.3C143.3,175.5,140.5,174.3,137.5,174.3z M141.9,189.2
			c0,5.7-2.7,9.2-7.1,9.2c-3,0-5.5-2-6.2-4.9c-0.1-0.5-0.2-1.1-0.2-1.7v-4.6c0-0.7,0.1-1.4,0.2-1.8c0.7-3,3.3-5.2,6.2-5.2
			C139.1,180.2,141.9,183.7,141.9,189.2z"/>
		<rect x="155.1" y="175" class="st0" width="7.4" height="28.7"/>
		<path class="st0" d="M158.8,163.1c-2.4,0-4.2,1.7-4.2,4c0,2.3,1.8,4,4.1,4h0.1c2.4,0,4.2-1.7,4.2-4
			C162.9,164.8,161.2,163.1,158.8,163.1z"/>
		<path class="st0" d="M182.2,174.3c-9.6,0-14,8-14,15.4c0,8.9,5.7,14.5,14.8,14.5c4.7,0,8-1,10-1.8l0.1,0l-1.1-5.1l-0.1,0
			c-1.8,0.6-4.2,1.3-7.8,1.3c-4,0-8.4-1.9-8.6-7.1h19l0-0.1c0.1-0.5,0.2-1.5,0.2-3.1C194.6,181.9,191.4,174.3,182.2,174.3z
			 M187.6,186.2h-12.2c0.3-2.6,2-6.7,6.5-6.7c1.6,0,3,0.5,3.9,1.5C187.4,182.7,187.6,185.3,187.6,186.2z"/>
		<path class="st0" d="M214.5,174.3c-3.5,0-6.5,2.3-7.9,5.9l-0.3-5.2l0-0.1h-6.4l0,0.1c0.2,2.4,0.2,5,0.2,9.2v19.4h7.4v-14.9
			c0-0.8,0.1-1.5,0.2-2.1c0.6-3.3,3.1-5.3,6.3-5.3c0.8,0,1.5,0.1,2.1,0.2l0.1,0v-7l-0.1,0C215.6,174.4,215.2,174.3,214.5,174.3z"/>
		<path class="st0" d="M236.7,174.3c-4.6,0-7.8,2.5-9.2,4.9l-0.3-4.2h-6.5l0,0.1c0.1,2.4,0.2,5.2,0.2,8.5v20.1h7.4v-16.9
			c0-0.9,0.1-1.7,0.3-2.2c0.7-1.9,2.5-4.1,5.5-4.1c4.6,0,5.3,4.4,5.3,7.1v16.2h7.4v-17C246.9,177.6,241.6,174.3,236.7,174.3z"/>
		<path class="st0" d="M267.3,174.3c-8.9,0-14.8,6.1-14.8,15.2c0,4.4,1.4,8.2,4.2,10.8c2.6,2.5,6.2,3.9,10.2,3.9h0.1
			c7.3,0,14.7-4.7,14.7-15.2C281.6,180.3,275.8,174.3,267.3,174.3z M267.1,198.9L267.1,198.9c-4.1,0-6.9-3.9-6.9-9.5
			c0-4.4,1.8-9.6,7-9.6c4.7,0,6.8,4.7,6.8,9.4C273.9,194.9,271.1,198.9,267.1,198.9z"/>
		<path class="st0" d="M298.2,186.4c-3.6-1.3-4.9-2.1-4.9-3.9c0-1.8,1.5-2.9,3.8-2.9c2.4,0,4.7,0.9,5.9,1.6l0.1,0.1l1.5-5.3l-0.1,0
			c-1.9-1.1-4.8-1.7-7.6-1.7c-6.4,0-10.9,3.7-10.9,9c0,2.6,1.4,6.2,7.9,8.4c3.6,1.3,4.6,2.2,4.6,4c0,2-1.6,3.1-4.4,3.1
			c-2.5,0-5.6-1.1-7.2-2.1l-0.1-0.1l-1.5,5.5l0.1,0c2.3,1.3,5.5,2,8.7,2c7.2,0,11.7-3.5,11.7-9.1C305.9,191,303.5,188.3,298.2,186.4
			z"/>
		<path class="st0" d="M350.1,195.5v-33.6h-7.4v16c-1.5-2.2-4.4-3.6-8-3.6c-3.2,0-6.3,1.3-8.6,3.6c-2.8,2.8-4.3,7-4.3,11.7
			c0,8.5,5.2,14.7,12.3,14.7c4,0,7.5-1.9,9.2-5l0.3,4.4h6.6l0-0.1C350.2,201.7,350.1,198.6,350.1,195.5z M336.4,198.3
			c-4.2,0-7-3.5-7-8.9c0-5.6,2.8-9.2,7.1-9.2c3.4,0,5.5,2.5,6.1,4.9c0.1,0.5,0.2,1.3,0.2,1.9v4.3c0,0.8-0.1,1.5-0.2,2.1
			C341.8,196.3,339.3,198.3,336.4,198.3z"/>
		<path class="st0" d="M369.8,174.3c-9.6,0-14,8-14,15.4c0,8.9,5.7,14.5,14.8,14.5c4.7,0,8-1,10-1.8l0.1,0l-1.1-5.1l-0.1,0
			c-1.8,0.6-4.2,1.3-7.8,1.3c-4,0-8.4-1.9-8.6-7.1h19l0-0.1c0.1-0.5,0.2-1.5,0.2-3.1C382.1,181.9,378.9,174.3,369.8,174.3z
			 M375.1,186.2h-12.2c0.3-2.6,2-6.7,6.5-6.7c1.6,0,3,0.5,3.9,1.5C375,182.7,375.1,185.3,375.1,186.2z"/>
		<rect x="387.7" y="161.9" class="st0" width="7.4" height="41.7"/>
		<path class="st0" d="M437.8,167c-2.6-2.1-6.5-3.2-11.6-3.2c-4.2,0-7.9,0.3-11,0.8l-0.1,0v39h7.4v-14.9c1.1,0.2,2.3,0.3,3.4,0.3
			c5.3,0,9.7-1.5,12.5-4.3c2.2-2.1,3.4-5.2,3.4-9C441.7,172.3,440.3,169.1,437.8,167z M425.8,183.2c-1.4,0-2.5-0.1-3.4-0.3v-13
			c0.5-0.1,1.8-0.3,4-0.3c5,0,7.9,2.4,7.9,6.5C434.3,180.6,431.1,183.2,425.8,183.2z"/>
		<path class="st0" d="M462.6,164.1h-9.3l-12.7,39.6h7.7l3.4-11.1h12.3l3.6,11.1h8L462.6,164.1L462.6,164.1z M457.1,172.4
			c0.2-0.8,0.4-1.5,0.5-2.2c0.1,0.4,0.2,0.7,0.3,1.1c0.5,1.9,1,4.1,1.6,6l3,9.5h-9.8l3-9.5C456.3,175.8,456.7,174.1,457.1,172.4z"/>
		<path class="st0" d="M505.2,177.9c0,5.8,0.1,10.8,0.6,15.9c-1.7-4-4-8.5-6.6-12.8l-10.2-16.9l0-0.1h-8.4v39.6h6.9v-14.2
			c0-6.6-0.1-11.8-0.4-16.7l0,0c1.7,3.9,4,8.4,7,13.5l10.3,17.3l0,0.1h7.7v-39.6h-6.9V177.9z"/>
		<path class="st0" d="M583.9,194.8c-2.6,0-4.6,2-4.6,4.7s1.9,4.7,4.5,4.7h0.1c2.7,0,4.6-1.9,4.6-4.7
			C588.5,196.8,586.6,194.8,583.9,194.8z"/>
	</g>
	<path class="st0" d="M14.4,16.5c1.6,0.5,2.9,1.5,3.9,2.9c1,1.5,1.5,3.2,1.5,5.1c0,2.7-0.9,5-2.8,6.8c-1.9,1.9-4.1,2.8-6.8,2.8
		c-3.1,0-5.6-1-7.5-3.1C0.9,29,0,26.2,0,22.6C0,17,1.9,12,5.7,7.8C9.4,3.6,14.3,1,20.2,0v3.2c-2,2.1-3.4,4.2-4.4,6.2
		c-1,2-1.4,4.1-1.4,6.2V16.5z M42.8,16.5c1.6,0.5,2.9,1.5,3.9,2.9c1,1.5,1.4,3.2,1.4,5.1c0,2.7-0.9,5-2.8,6.8
		c-1.9,1.9-4.1,2.8-6.8,2.8c-3.1,0-5.6-1-7.4-3.1c-1.8-2.1-2.8-4.9-2.8-8.5C28.4,17,30.2,12,34,7.8C37.8,3.6,42.6,1,48.5,0v3.2
		c-1.9,2.1-3.4,4.2-4.3,6.2c-1,2-1.4,4.1-1.4,6.2V16.5z"/>
	<path class="st0" d="M530.1,195.9c-1.6-0.5-2.9-1.4-3.9-2.9c-0.9-1.5-1.4-3.2-1.4-5.2c0-2.7,0.9-4.9,2.8-6.8
		c1.9-1.8,4.1-2.8,6.8-2.8c3.1,0,5.6,1,7.4,3.1c1.8,2,2.8,4.9,2.8,8.4c0,5.7-1.9,10.6-5.7,14.9c-3.8,4.3-8.6,6.9-14.6,7.9v-3.3
		c2-2.1,3.4-4.2,4.4-6.2c1-2,1.4-4.1,1.4-6.1V195.9z M558.4,195.9c-1.6-0.5-2.9-1.4-3.9-2.9c-1-1.5-1.4-3.2-1.4-5.2
		c0-2.6,0.9-4.9,2.8-6.7c1.9-1.9,4.1-2.8,6.8-2.8c3.1,0,5.6,1,7.4,3.1c1.8,2,2.7,4.9,2.7,8.4c0,5.7-1.9,10.6-5.7,14.9
		c-3.8,4.3-8.6,6.9-14.5,7.9v-3.3c1.9-2.1,3.4-4.2,4.3-6.2c1-2,1.4-4.1,1.4-6.1V195.9z"/>
</g>
</svg>
