<!-- Generator: Adobe Illustrator 22.1.0, SVG Export Plug-In  -->
<svg version="1.1"
	 xmlns="http://www.w3.org/2000/svg" xmlns:xlink="http://www.w3.org/1999/xlink" xmlns:a="http://ns.adobe.com/AdobeSVGViewerExtensions/3.0/"
	 x="0px" y="0px" width="474.4px" height="232.2px" viewBox="0 0 474.4 232.2" style="enable-background:new 0 0 474.4 232.2;"
	 xml:space="preserve">
<style type="text/css">
	.st0{fill:#FFFFFF;}
</style>
<defs>
</defs>
<g>
	<g>
		<path class="st0" d="M91.2,38.4c-0.2-5.1-0.5-11.1-0.5-16.5h-0.2C89.3,26.7,87.6,32,85.9,37l-5.8,17h-5.5l-5.3-16.8
			c-1.5-5-2.9-10.4-4-15.3h-0.1c-0.2,5.1-0.4,11.4-0.7,16.8l-0.9,15.8H57l2.6-39.3h9.5l5.1,15.8c1.4,4.6,2.6,9.3,3.6,13.7H78
			c1-4.3,2.4-9.1,3.9-13.7l5.4-15.8h9.3L99,54.5h-7L91.2,38.4z"/>
		<path class="st0" d="M130.6,47.6c0,2.6,0.1,5.1,0.5,6.8h-6.5l-0.5-3.2h-0.2c-1.7,2.2-4.7,3.8-8.4,3.8c-5.7,0-8.9-4.1-8.9-8.5
			c0-7.1,6.4-10.8,16.9-10.7v-0.5c0-1.9-0.8-5-5.8-5c-2.8,0-5.7,0.9-7.6,2.1l-1.4-4.7c2.1-1.3,5.8-2.5,10.3-2.5
			c9.1,0,11.7,5.8,11.7,12V47.6z M123.6,40.6c-5.1-0.1-9.9,1-9.9,5.3c0,2.8,1.8,4.1,4.1,4.1c2.9,0,5-1.9,5.7-3.9
			c0.2-0.5,0.2-1.1,0.2-1.6V40.6z M128,13.7l-7.1,8.6h-5l5.1-8.6H128z"/>
		<path class="st0" d="M140.2,47.8c1.6,1,4.7,2.1,7.2,2.1c3.2,0,4.6-1.3,4.6-3.2c0-1.9-1.2-2.9-4.7-4.1c-5.5-1.9-7.8-4.9-7.8-8.3
			c0-5,4.1-8.9,10.7-8.9c3.2,0,5.9,0.8,7.6,1.7l-1.5,5c-1.2-0.7-3.5-1.6-6-1.6c-2.6,0-4,1.3-4,3c0,1.8,1.3,2.6,5,4
			c5.2,1.8,7.5,4.4,7.6,8.6c0,5.2-4,8.9-11.6,8.9c-3.4,0-6.5-0.8-8.6-2L140.2,47.8z"/>
		<path class="st0" d="M203.7,47.6c0,2.6,0.1,5.1,0.5,6.8h-6.5l-0.5-3.2H197c-1.7,2.2-4.7,3.8-8.4,3.8c-5.7,0-8.9-4.1-8.9-8.5
			c0-7.1,6.4-10.8,16.9-10.7v-0.5c0-1.9-0.8-5-5.8-5c-2.8,0-5.7,0.9-7.6,2.1l-1.4-4.7c2.1-1.3,5.8-2.5,10.3-2.5
			c9.1,0,11.7,5.8,11.7,12V47.6z M196.7,40.6c-5.1-0.1-9.9,1-9.9,5.3c0,2.8,1.8,4.1,4.1,4.1c2.9,0,5-1.9,5.7-3.9
			c0.2-0.5,0.2-1.1,0.2-1.6V40.6z"/>
		<path class="st0" d="M213.6,13h7.2v41.5h-7.2V13z"/>
		<path class="st0" d="M230.9,13h7.2v41.5h-7.2V13z"/>
		<path class="st0" d="M270.3,47.6c0,2.6,0.1,5.1,0.5,6.8h-6.5l-0.5-3.2h-0.2c-1.7,2.2-4.7,3.8-8.4,3.8c-5.7,0-8.9-4.1-8.9-8.5
			c0-7.1,6.4-10.8,16.9-10.7v-0.5c0-1.9-0.8-5-5.8-5c-2.8,0-5.7,0.9-7.6,2.1l-1.4-4.7c2.1-1.3,5.8-2.5,10.3-2.5
			c9.1,0,11.7,5.8,11.7,12V47.6z M263.3,40.6c-5.1-0.1-9.9,1-9.9,5.3c0,2.8,1.8,4.1,4.1,4.1c2.9,0,5-1.9,5.7-3.9
			c0.2-0.5,0.2-1.1,0.2-1.6V40.6z M267.7,13.7l-7.1,8.6h-5l5.1-8.6H267.7z"/>
		<path class="st0" d="M320.9,13v33.5c0,2.9,0.1,6.1,0.2,8h-6.4l-0.4-4.5h-0.1c-1.7,3.2-5.1,5.1-9.2,5.1c-6.8,0-12.2-5.8-12.2-14.5
			c-0.1-9.5,5.9-15.2,12.7-15.2c3.9,0,6.7,1.6,8,3.7h0.1V13H320.9z M313.7,37.9c0-0.6-0.1-1.3-0.2-1.9c-0.6-2.7-2.9-5-6.2-5
			c-4.6,0-7.2,4.1-7.2,9.3s2.6,9,7.1,9c2.9,0,5.5-2,6.2-5.1c0.2-0.6,0.2-1.3,0.2-2.1V37.9z"/>
		<path class="st0" d="M336,42.3c0.2,5.1,4.2,7.4,8.8,7.4c3.3,0,5.7-0.5,7.9-1.3l1.1,4.9c-2.5,1.1-5.8,1.8-9.9,1.8
			c-9.2,0-14.7-5.7-14.7-14.4c0-7.9,4.8-15.3,13.9-15.3c9.2,0,12.3,7.6,12.3,13.8c0,1.3-0.1,2.4-0.2,3H336z M348.5,37.2
			c0.1-2.6-1.1-6.9-5.9-6.9c-4.4,0-6.3,4-6.6,6.9H348.5z"/>
		<path class="st0" d="M403.2,45.9c0,3.4,0.1,6.2,0.2,8.5h-6.2l-0.3-4.3h-0.2c-1.2,2-4,4.9-9.2,4.9s-9.9-3.1-9.9-12.4V26h7.2v15.5
			c0,4.7,1.5,7.8,5.3,7.8c2.9,0,4.8-2,5.5-3.9c0.3-0.6,0.4-1.4,0.4-2.2V26h7.2V45.9z"/>
		<path class="st0" d="M413.3,34.5c0-3.3-0.1-6-0.2-8.5h6.2l0.3,4.3h0.2c1.3-2.2,4.4-4.9,9.1-4.9c5,0,10.1,3.2,10.1,12.2v16.9h-7.2
			V38.4c0-4.1-1.5-7.2-5.4-7.2c-2.9,0-4.8,2-5.6,4.2c-0.2,0.6-0.4,1.5-0.4,2.3v16.8h-7.2V34.5z"/>
		<path class="st0" d="M471.1,47.6c0,2.6,0.1,5.1,0.5,6.8h-6.5l-0.5-3.2h-0.2c-1.7,2.2-4.7,3.8-8.4,3.8c-5.7,0-8.9-4.1-8.9-8.5
			c0-7.1,6.4-10.8,16.9-10.7v-0.5c0-1.9-0.8-5-5.8-5c-2.8,0-5.7,0.9-7.6,2.1l-1.4-4.7c2.1-1.3,5.8-2.5,10.3-2.5
			c9.1,0,11.7,5.8,11.7,12V47.6z M464.1,40.6c-5.1-0.1-9.9,1-9.9,5.3c0,2.8,1.8,4.1,4.1,4.1c2.9,0,5-1.9,5.7-3.9
			c0.2-0.5,0.2-1.1,0.2-1.6V40.6z"/>
		<path class="st0" d="M57.7,94.2c0-3.9-0.1-6.7-0.2-9.2h6.2l0.3,5.4h0.2c1.4-4,4.7-6,7.8-6c0.7,0,1.1,0.1,1.7,0.2v6.7
			c-0.6-0.1-1.3-0.2-2.2-0.2c-3.4,0-5.8,2.2-6.4,5.4c-0.1,0.6-0.2,1.4-0.2,2.2v14.8h-7.2V94.2z"/>
		<path class="st0" d="M81.9,101.3c0.2,5.1,4.2,7.4,8.8,7.4c3.3,0,5.7-0.5,7.9-1.3l1,4.9c-2.5,1.1-5.8,1.8-9.9,1.8
			c-9.2,0-14.6-5.7-14.6-14.4c0-7.9,4.8-15.3,13.9-15.3c9.2,0,12.3,7.6,12.3,13.8c0,1.3-0.1,2.4-0.2,3H81.9z M94.3,96.3
			c0.1-2.6-1.1-6.9-5.9-6.9c-4.4,0-6.3,4-6.6,6.9H94.3z"/>
		<path class="st0" d="M105.7,93.5c0-3.3-0.1-6-0.2-8.5h6.2l0.3,4.3h0.2c1.3-2.2,4.4-4.9,9.1-4.9c5,0,10.1,3.2,10.1,12.2v16.9h-7.2
			V97.4c0-4.1-1.5-7.2-5.4-7.2c-2.9,0-4.8,2-5.6,4.2c-0.2,0.6-0.4,1.5-0.4,2.3v16.8h-7.2V93.5z"/>
		<path class="st0" d="M150.4,114.1c-8,0-14.2-5.5-14.2-14.6c0-9.3,6.1-15.1,14.7-15.1c8.5,0,14.1,6,14.1,14.6
			C165,109.5,157.6,114.1,150.4,114.1L150.4,114.1z M150.6,108.9c4.1,0,6.9-4,6.9-9.7c0-4.4-2-9.6-6.9-9.6c-5.1,0-7.1,5-7.1,9.7
			C143.5,104.8,146.3,108.9,150.6,108.9L150.6,108.9z"/>
		<path class="st0" d="M173.8,85.1l4.6,14.4c0.8,2.5,1.4,4.8,1.9,7.1h0.2c0.5-2.3,1.2-4.6,1.9-7.1l4.6-14.4h7.5l-10.9,28.4h-7.1
			L166,85.1H173.8z"/>
		<path class="st0" d="M219.4,106.7c0,2.6,0.1,5.1,0.5,6.8h-6.5l-0.5-3.2h-0.2c-1.7,2.2-4.7,3.8-8.4,3.8c-5.7,0-8.9-4.1-8.9-8.5
			c0-7.1,6.4-10.8,16.9-10.7v-0.5c0-1.9-0.8-5-5.8-5c-2.8,0-5.7,0.9-7.6,2.1l-1.4-4.7c2.1-1.3,5.8-2.5,10.3-2.5
			c9.1,0,11.7,5.8,11.7,12V106.7z M212.4,99.6c-5.1-0.1-9.9,1-9.9,5.3c0,2.8,1.8,4.1,4.1,4.1c2.9,0,5-1.9,5.7-3.9
			c0.2-0.5,0.2-1.1,0.2-1.6V99.6z"/>
		<path class="st0" d="M246.7,112.6c-1.5,0.7-4.5,1.5-8.1,1.5c-8.9,0-14.6-5.7-14.6-14.5c0-8.5,5.8-15.1,15.8-15.1
			c2.6,0,5.3,0.6,6.9,1.3l-1.3,5.4c-1.2-0.6-2.9-1.1-5.4-1.1c-5.5,0-8.8,4-8.7,9.2c0,5.8,3.8,9.2,8.7,9.2c2.5,0,4.3-0.5,5.7-1.1
			L246.7,112.6z"/>
		<path class="st0" d="M254.5,81c-2.4,0-4-1.8-4-3.9c0-2.2,1.6-3.9,4-3.9c2.5,0,4,1.7,4,3.9C258.5,79.2,257,81,254.5,81L254.5,81z
			 M250.9,113.5V85.1h7.2v28.4H250.9z"/>
		<path class="st0" d="M277.1,114.1c-8,0-14.2-5.5-14.2-14.6c0-9.3,6.1-15.1,14.7-15.1c8.5,0,14.1,6,14.1,14.6
			C291.7,109.5,284.3,114.1,277.1,114.1L277.1,114.1z M277.3,108.9c4.1,0,6.9-4,6.9-9.7c0-4.4-2-9.6-6.9-9.6c-5.1,0-7.1,5-7.1,9.7
			C270.3,104.8,273,108.9,277.3,108.9L277.3,108.9z M285.8,72.8l-7.1,8.6h-5l5.1-8.6H285.8z"/>
		<path class="st0" d="M296.4,93.5c0-3.3-0.1-6-0.2-8.5h6.2l0.4,4.3h0.2c1.3-2.2,4.4-4.9,9.1-4.9c5,0,10.1,3.2,10.1,12.2v16.9H315
			V97.4c0-4.1-1.5-7.2-5.4-7.2c-2.9,0-4.8,2-5.6,4.2c-0.2,0.6-0.4,1.5-0.4,2.3v16.8h-7.2V93.5z"/>
		<path class="st0" d="M339.6,93.5c0-3.3-0.1-6-0.2-8.5h6.1l0.4,4.2h0.2c1.3-2.2,3.9-4.8,8.8-4.8c3.7,0,6.7,2.1,7.9,5.3h0.1
			c1-1.6,2.2-2.7,3.4-3.6c1.6-1.1,3.4-1.7,5.8-1.7c4.7,0,9.5,3.2,9.5,12.3v16.8h-7V97.8c0-4.7-1.6-7.5-5.1-7.5c-2.5,0-4.3,1.8-5,3.8
			c-0.2,0.6-0.4,1.6-0.4,2.4v17h-7V97c0-4-1.6-6.8-4.9-6.8c-2.7,0-4.5,2.1-5.2,4c-0.2,0.8-0.4,1.6-0.4,2.4v16.8h-7V93.5z"/>
		<path class="st0" d="M400.3,114.1c-8,0-14.2-5.5-14.2-14.6c0-9.3,6.1-15.1,14.7-15.1c8.5,0,14.1,6,14.1,14.6
			C414.9,109.5,407.6,114.1,400.3,114.1L400.3,114.1z M400.5,108.9c4.1,0,6.9-4,6.9-9.7c0-4.4-2-9.6-6.9-9.6c-5.1,0-7.1,5-7.1,9.7
			C393.5,104.8,396.2,108.9,400.5,108.9L400.5,108.9z"/>
		<path class="st0" d="M419.6,94.2c0-3.9-0.1-6.7-0.2-9.2h6.2l0.3,5.4h0.2c1.4-4,4.7-6,7.8-6c0.7,0,1.1,0.1,1.7,0.2v6.7
			c-0.6-0.1-1.3-0.2-2.2-0.2c-3.4,0-5.8,2.2-6.4,5.4c-0.1,0.6-0.2,1.4-0.2,2.2v14.8h-7.2V94.2z"/>
		<path class="st0" d="M460.8,106.7c0,2.6,0.1,5.1,0.5,6.8h-6.5l-0.5-3.2h-0.2c-1.7,2.2-4.7,3.8-8.4,3.8c-5.7,0-8.9-4.1-8.9-8.5
			c0-7.1,6.4-10.8,16.9-10.7v-0.5c0-1.9-0.8-5-5.8-5c-2.8,0-5.7,0.9-7.6,2.1l-1.4-4.7c2.1-1.3,5.8-2.5,10.3-2.5
			c9.1,0,11.7,5.8,11.7,12V106.7z M453.8,99.6c-5.1-0.1-9.9,1-9.9,5.3c0,2.8,1.8,4.1,4.1,4.1c2.9,0,5-1.9,5.7-3.9
			c0.2-0.5,0.2-1.1,0.2-1.6V99.6z"/>
		<path class="st0" d="M467.2,72h7.2v41.5h-7.2V72z"/>
		<path class="st0" d="M83.1,164c0,3.4,0.1,6.2,0.2,8.5h-6.2l-0.4-4.3h-0.2c-1.2,2-4,4.9-9.2,4.9s-9.9-3.1-9.9-12.4v-16.7h7.2v15.5
			c0,4.7,1.5,7.8,5.3,7.8c2.9,0,4.8-2,5.5-3.9c0.3-0.6,0.4-1.4,0.4-2.2v-17.2h7.2V164z"/>
		<path class="st0" d="M89.7,152.6c0-3.3-0.1-6-0.2-8.5h6.2l0.4,4.3h0.2c1.3-2.2,4.4-4.9,9.1-4.9c5,0,10.1,3.2,10.1,12.2v16.9h-7.2
			v-16.1c0-4.1-1.5-7.2-5.4-7.2c-2.9,0-4.8,2-5.6,4.2c-0.2,0.6-0.3,1.5-0.3,2.3v16.8h-7.2V152.6z"/>
		<path class="st0" d="M144,165.7c0,2.6,0.1,5.1,0.5,6.8H138l-0.5-3.2h-0.2c-1.7,2.2-4.7,3.8-8.4,3.8c-5.7,0-8.9-4.1-8.9-8.5
			c0-7.1,6.4-10.8,16.9-10.7v-0.5c0-1.9-0.8-5-5.8-5c-2.8,0-5.7,0.9-7.6,2.1L122,146c2.1-1.3,5.8-2.5,10.3-2.5
			c9.1,0,11.7,5.8,11.7,12V165.7z M137,158.6c-5.1-0.1-9.9,1-9.9,5.3c0,2.8,1.8,4.1,4.1,4.1c2.9,0,5-1.9,5.7-3.9
			c0.2-0.5,0.2-1.1,0.2-1.6V158.6z"/>
		<path class="st0" d="M161.3,153.3c0-3.9-0.1-6.7-0.2-9.2h6.2l0.3,5.4h0.2c1.4-4,4.7-6,7.8-6c0.7,0,1.1,0.1,1.7,0.2v6.7
			c-0.6-0.1-1.3-0.2-2.2-0.2c-3.4,0-5.8,2.2-6.4,5.4c-0.1,0.6-0.2,1.4-0.2,2.2v14.8h-7.2V153.3z"/>
		<path class="st0" d="M185.5,160.3c0.2,5.1,4.2,7.4,8.8,7.4c3.3,0,5.7-0.5,7.9-1.3l1.1,4.9c-2.5,1.1-5.8,1.8-9.9,1.8
			c-9.2,0-14.6-5.7-14.6-14.4c0-7.9,4.8-15.3,13.9-15.3c9.2,0,12.3,7.6,12.3,13.8c0,1.3-0.1,2.4-0.2,3H185.5z M198,155.3
			c0.1-2.6-1.1-6.9-5.9-6.9c-4.4,0-6.3,4-6.6,6.9H198z"/>
		<path class="st0" d="M209.4,152.6c0-3.3-0.1-6-0.2-8.5h6.2l0.3,4.3h0.2c1.3-2.2,4.4-4.9,9.1-4.9c5,0,10.1,3.2,10.1,12.2v16.9h-7.2
			v-16.1c0-4.1-1.5-7.2-5.4-7.2c-2.9,0-4.8,2-5.6,4.2c-0.2,0.6-0.4,1.5-0.4,2.3v16.8h-7.2V152.6z"/>
		<path class="st0" d="M254,173.2c-8,0-14.2-5.5-14.2-14.6c0-9.3,6.1-15.1,14.7-15.1c8.5,0,14.1,6,14.1,14.6
			C268.6,168.5,261.3,173.2,254,173.2L254,173.2z M254.3,168c4.1,0,6.9-4,6.9-9.7c0-4.4-2-9.6-6.9-9.6c-5.1,0-7.1,5-7.1,9.7
			C247.2,163.8,250,168,254.3,168L254.3,168z"/>
		<path class="st0" d="M277.4,144.1l4.6,14.4c0.8,2.5,1.4,4.8,1.9,7.1h0.2c0.5-2.3,1.2-4.6,1.9-7.1l4.6-14.4h7.5l-10.9,28.4h-7.1
			l-10.6-28.4H277.4z"/>
		<path class="st0" d="M323.1,165.7c0,2.6,0.1,5.1,0.5,6.8h-6.5l-0.5-3.2h-0.2c-1.7,2.2-4.7,3.8-8.4,3.8c-5.7,0-8.9-4.1-8.9-8.5
			c0-7.1,6.4-10.8,16.9-10.7v-0.5c0-1.9-0.8-5-5.8-5c-2.8,0-5.7,0.9-7.6,2.1l-1.4-4.7c2.1-1.3,5.8-2.5,10.3-2.5
			c9.1,0,11.7,5.8,11.7,12V165.7z M316.1,158.6c-5.1-0.1-9.9,1-9.9,5.3c0,2.8,1.8,4.1,4.1,4.1c2.9,0,5-1.9,5.7-3.9
			c0.2-0.5,0.2-1.1,0.2-1.6V158.6z"/>
		<path class="st0" d="M350.4,171.7c-1.5,0.7-4.5,1.5-8.1,1.5c-8.9,0-14.6-5.7-14.6-14.5c0-8.5,5.8-15.1,15.8-15.1
			c2.6,0,5.3,0.6,6.9,1.3l-1.3,5.4c-1.2-0.6-2.9-1.1-5.4-1.1c-5.5,0-8.8,4-8.7,9.2c0,5.8,3.8,9.2,8.7,9.2c2.5,0,4.3-0.5,5.7-1.1
			L350.4,171.7z"/>
		<path class="st0" d="M358.1,140c-2.4,0-4-1.8-4-3.9c0-2.2,1.6-3.9,4-3.9c2.5,0,4,1.7,4,3.9C362.2,138.3,360.6,140,358.1,140
			L358.1,140z M354.6,172.5v-28.4h7.2v28.4H354.6z"/>
		<path class="st0" d="M380.8,173.2c-8,0-14.2-5.5-14.2-14.6c0-9.3,6.1-15.1,14.7-15.1c8.5,0,14.1,6,14.1,14.6
			C395.4,168.5,388,173.2,380.8,173.2L380.8,173.2z M381,168c4.1,0,6.9-4,6.9-9.7c0-4.4-2-9.6-6.9-9.6c-5.1,0-7.1,5-7.1,9.7
			C373.9,163.8,376.7,168,381,168L381,168z M389.5,131.8l-7.1,8.6h-5l5.1-8.6H389.5z"/>
		<path class="st0" d="M400.1,152.6c0-3.3-0.1-6-0.2-8.5h6.2l0.3,4.3h0.2c1.3-2.2,4.4-4.9,9.1-4.9c5,0,10.1,3.2,10.1,12.2v16.9h-7.2
			v-16.1c0-4.1-1.5-7.2-5.4-7.2c-2.9,0-4.8,2-5.6,4.2c-0.2,0.6-0.4,1.5-0.4,2.3v16.8h-7.2V152.6z"/>
		<path class="st0" d="M65.9,195.8v7.3h6.8v5.4h-6.8V221c0,3.5,0.9,5.3,3.7,5.3c1.3,0,2-0.1,2.8-0.3l0.1,5.4c-1.1,0.4-3,0.8-5.2,0.8
			c-2.7,0-4.8-0.9-6.2-2.3c-1.6-1.6-2.3-4.3-2.3-8v-13.3h-4v-5.4h4v-5.3L65.9,195.8z"/>
		<path class="st0" d="M89.1,232.2c-8,0-14.2-5.5-14.2-14.6c0-9.3,6.1-15.1,14.7-15.1c8.5,0,14.1,6,14.1,14.6
			C103.7,227.5,96.3,232.2,89.1,232.2L89.1,232.2z M89.3,227c4.1,0,6.9-4,6.9-9.7c0-4.4-2-9.6-6.9-9.6c-5.1,0-7.1,5-7.1,9.7
			C82.3,222.9,85,227,89.3,227L89.3,227z"/>
		<path class="st0" d="M116.6,195.8v7.3h6.8v5.4h-6.8V221c0,3.5,0.9,5.3,3.7,5.3c1.3,0,2-0.1,2.8-0.3l0.1,5.4
			c-1.1,0.4-3,0.8-5.2,0.8c-2.7,0-4.8-0.9-6.2-2.3c-1.6-1.6-2.3-4.3-2.3-8v-13.3h-4v-5.4h4v-5.3L116.6,195.8z"/>
		<path class="st0" d="M149.8,224.7c0,2.6,0.1,5.1,0.5,6.8h-6.5l-0.5-3.2h-0.2c-1.7,2.2-4.7,3.8-8.4,3.8c-5.7,0-8.9-4.1-8.9-8.5
			c0-7.1,6.4-10.8,16.9-10.7v-0.5c0-1.9-0.8-5-5.8-5c-2.8,0-5.7,0.9-7.6,2.1l-1.4-4.7c2.1-1.3,5.8-2.5,10.3-2.5
			c9.1,0,11.7,5.8,11.7,12V224.7z M142.8,217.7c-5.1-0.1-9.9,1-9.9,5.3c0,2.8,1.8,4.1,4.1,4.1c2.9,0,5-1.9,5.7-3.9
			c0.2-0.5,0.2-1.1,0.2-1.6V217.7z"/>
		<path class="st0" d="M156.2,190.1h7.2v41.5h-7.2V190.1z"/>
		<path class="st0" d="M239,232.2c-2.6,0-4.4-2-4.4-4.6c0-2.7,1.9-4.6,4.4-4.6c2.6,0,4.4,1.9,4.4,4.6
			C243.5,230.2,241.8,232.2,239,232.2L239,232.2z"/>
	</g>
</g>
<path class="st0" d="M14.4,16.5c1.6,0.5,2.9,1.5,3.9,2.9c1,1.5,1.5,3.2,1.5,5.1c0,2.7-0.9,5-2.8,6.8c-1.9,1.9-4.1,2.8-6.8,2.8
	c-3.1,0-5.6-1-7.5-3.1C0.9,29,0,26.2,0,22.6C0,17,1.9,12,5.7,7.8C9.4,3.6,14.3,1,20.2,0v3.2c-2,2.1-3.4,4.2-4.4,6.2
	c-1,2-1.4,4.1-1.4,6.2V16.5z M42.8,16.5c1.6,0.5,2.9,1.5,3.9,2.9c1,1.5,1.4,3.2,1.4,5.1c0,2.7-0.9,5-2.8,6.8
	c-1.9,1.9-4.1,2.8-6.8,2.8c-3.1,0-5.6-1-7.4-3.1c-1.8-2.1-2.8-4.9-2.8-8.5C28.4,17,30.2,12,34,7.8C37.8,3.6,42.6,1,48.5,0v3.2
	c-1.9,2.1-3.4,4.2-4.3,6.2c-1,2-1.4,4.1-1.4,6.2V16.5z"/>
<path class="st0" d="M176.1,206.9c-1.6-0.5-2.9-1.4-3.9-2.9c-0.9-1.5-1.4-3.2-1.4-5.2c0-2.7,0.9-4.9,2.8-6.8
	c1.9-1.8,4.1-2.8,6.8-2.8c3.1,0,5.6,1,7.4,3.1c1.8,2,2.8,4.9,2.8,8.4c0,5.7-1.9,10.6-5.7,14.9c-3.8,4.3-8.6,6.9-14.6,7.9v-3.3
	c2-2.1,3.4-4.2,4.4-6.2c1-2,1.4-4.1,1.4-6.1V206.9z M204.4,206.9c-1.6-0.5-2.9-1.4-3.9-2.9c-1-1.5-1.4-3.2-1.4-5.2
	c0-2.6,0.9-4.9,2.8-6.7c1.9-1.9,4.1-2.8,6.8-2.8c3.1,0,5.6,1,7.4,3.1c1.8,2,2.7,4.9,2.7,8.4c0,5.7-1.9,10.6-5.7,14.9
	c-3.8,4.3-8.6,6.9-14.5,7.9v-3.3c1.9-2.1,3.4-4.2,4.3-6.2c1-2,1.4-4.1,1.4-6.1V206.9z"/>
</svg>
