<?xml version="1.0" encoding="utf-8"?>
<!-- Generator: Adobe Illustrator 22.1.0, SVG Export Plug-In . SVG Version: 6.00 Build 0)  -->
<svg version="1.1" id="Layer_1" xmlns="http://www.w3.org/2000/svg" xmlns:xlink="http://www.w3.org/1999/xlink" x="0px" y="0px"
	 viewBox="0 0 37 37" style="enable-background:new 0 0 37 37;" xml:space="preserve">
<style type="text/css">
	.st0{fill:#117EC1;}
	.st1{fill:#97A9AF;}
	.st2{fill-rule:evenodd;clip-rule:evenodd;fill:#117EC1;}
	.st3{fill:#FFFFFF;}
	.st4{opacity:0.8;}
</style>
<g>
	<path class="st0" d="M18.5,35.2c-9.2,0-16.7-7.5-16.7-16.7S9.3,1.8,18.5,1.8s16.7,7.5,16.7,16.7S27.7,35.2,18.5,35.2z M18.5,3.4
		c-8.3,0-15.1,6.8-15.1,15.1s6.8,15.1,15.1,15.1s15.1-6.8,15.1-15.1S26.8,3.4,18.5,3.4z"/>
	<path class="st2" d="M15.9,18.6v9.7c0,0.1,0.1,0.3,0.3,0.3h3.6c0.1,0,0.3-0.1,0.3-0.3v-9.9h2.6c0.1,0,0.2-0.1,0.3-0.2l0.3-3
		c0-0.1-0.1-0.3-0.3-0.3H20v-2.1c0-0.5,0.4-0.9,0.9-0.9h2c0.1,0,0.3-0.1,0.3-0.3v-3c0-0.1-0.1-0.3-0.3-0.3h-3.4
		c-2,0-3.6,1.6-3.6,3.6v2.9h-1.8c-0.1,0-0.3,0.1-0.3,0.3v3c0,0.1,0.1,0.3,0.3,0.3h1.8V18.6z"/>
</g>
</svg>
