<?xml version="1.0" encoding="utf-8"?>
<!-- Generator: Adobe Illustrator 22.1.0, SVG Export Plug-In . SVG Version: 6.00 Build 0)  -->
<svg version="1.1" id="Layer_1" xmlns="http://www.w3.org/2000/svg" xmlns:xlink="http://www.w3.org/1999/xlink" x="0px" y="0px"
	 viewBox="0 0 203 64" style="enable-background:new 0 0 203 64;" xml:space="preserve">
<style type="text/css">
	.st0{fill:#117EC1;}
	.st1{fill:#97A9AF;}
	.st2{fill-rule:evenodd;clip-rule:evenodd;fill:#117EC1;}
	.st3{fill:#FFFFFF;}
	.st4{opacity:0.8;}
</style>
<g>
	<g>
		<path class="st0" d="M174.5,59.4l0.6-0.8v-0.8v-0.8l0.4-0.8v-0.8v-0.8V54v-0.8l-0.6-0.8l-0.8-0.6l-0.8-0.6l-0.6-0.8l-0.4-0.8
			L172,49l-0.4-0.8l-0.4-0.8l-0.2-0.8l-0.2-0.8l-0.8-0.8l-0.8-0.8l-0.6-1.2l-0.6-0.8l-0.8-0.6l-0.8-0.4l-0.8-0.8l-0.8-0.6l-0.8-0.8
			l-0.8-0.4l-0.8-0.8l-0.8-0.6l-0.4-0.8l-0.6-0.8v-0.8l-0.2-1.5v-0.8v-0.8v-0.8v-0.8V30l-0.2-0.8l-0.4-0.8l-0.2-0.8l-0.2-0.8
			l-0.8-0.8l-0.2-0.8l0.2-0.8l0.2-0.8l0.7,0.2v-0.8l-0.7-0.6l0.2-0.7v-0.8l-0.6-0.8l-0.8,0.4l-0.6-0.8l-0.2-0.8v-0.8l0.4-0.8V17
			l-0.2-0.8l-0.4-0.8l-0.6-0.8l-0.4-0.8l-0.6-0.8l-0.8-0.8l-0.2-0.8v-0.8l0.2-0.8l0.8-0.2V9.1V8.4l-0.8-0.8l-0.6-0.8l-0.2-0.8
			l-0.2-0.8l-0.2-1L153.7,4H147c-2.8,0-5.2,2.3-5.2,5.2v45.7c0,2.8,2.3,5.2,5.2,5.2h27.1L174.5,59.4z"/>
		<path class="st0" d="M192.7,4h-18.1l-0.1,0.2l-0.8,0.2l-0.9,1l-0.6,0.8v0.8L172,7.6v0.8l-0.6,0.8L171,9.9l0.6,0.8l0.8,0.6l0.4,0.8
			l0.2,0.8l-0.2,0.8l-0.2,0.8l-0.6,0.8l-0.4,0.8l0.4,0.8v0.8l-0.2,0.8l-0.2,0.8v0.8l0.2,0.8l0.2,0.8l0.8,0.8l0.2,1l-0.4,0.8
			l-0.4,0.8v0.8l0.4,0.8l0.2,0.8l-0.2,2.1l-0.2,0.8l-0.2,0.8v0.8l0.2,0.8v0.8v0.8l0.6,0.8l0.2,0.8v0.8l0.6,0.8l0.8,0.8l0.8,0.6
			l0.8,0.6l0.6,0.8l0.6,0.8l0.6,0.7l0.8,0.8l0.4,0.8l0.4,0.8l0.6,0.8l0.8,0.4l0.2,0.8v0.8l0.2,0.8l0.2,0.8V48v0.8l0.4,0.8l0.4-0.8
			h0.8l0.2,0.8v0.8l0.4,0.8l0.8-0.4l0.8,0.4v0.8v0.8l0.2,0.8v0.8l0.2,0.8l0.6,0.8l0.6,0.8h1.3l0.2,0.8V58v0.8v1V60h4.8
			c2.8,0,5.2-2.3,5.2-5.2V9.1C197.9,6.3,195.6,4,192.7,4z"/>
	</g>
	<g>
		<path class="st0" d="M14.9,26.4c-1.4,0-2.7-0.3-3.9-0.8c-1.2-0.5-2.2-1.3-3-2.2c-0.8-0.9-1.5-1.9-1.9-3.1s-0.7-2.3-0.7-3.6
			c0-1.2,0.2-2.4,0.7-3.6c0.5-1.2,1.1-2.2,2-3C9,9.2,10,8.5,11.2,8c1.2-0.5,2.5-0.8,3.9-0.8c1.4,0,2.7,0.3,3.9,0.8
			c1.2,0.6,2.2,1.3,3,2.2c0.8,0.9,1.5,1.9,1.9,3.1c0.5,1.2,0.7,2.3,0.7,3.5c0,1.2-0.2,2.4-0.7,3.6c-0.5,1.1-1.1,2.2-2,3
			C21,24.3,20,25,18.8,25.6C17.6,26.1,16.3,26.4,14.9,26.4z M10.6,16.8c0,0.6,0.1,1.3,0.3,1.9c0.2,0.6,0.4,1.1,0.8,1.6
			c0.4,0.5,0.8,0.8,1.3,1.1c0.5,0.3,1.2,0.4,1.9,0.4c0.7,0,1.4-0.1,1.9-0.4s1-0.7,1.3-1.1c0.3-0.5,0.6-1,0.8-1.6s0.3-1.2,0.3-1.8
			c0-0.6-0.1-1.3-0.3-1.9c-0.2-0.6-0.4-1.1-0.8-1.6c-0.4-0.5-0.8-0.8-1.4-1.1c-0.5-0.3-1.2-0.4-1.9-0.4c-0.7,0-1.4,0.1-1.9,0.4
			c-0.5,0.3-1,0.7-1.3,1.1c-0.4,0.5-0.6,1-0.8,1.6C10.7,15.5,10.6,16.2,10.6,16.8z"/>
		<path class="st0" d="M26.3,26.2V7.3h8.7c0.9,0,1.8,0.2,2.6,0.6c0.8,0.4,1.5,0.9,2,1.5s1,1.3,1.3,2.1c0.3,0.8,0.5,1.6,0.5,2.4
			c0,1.1-0.2,2.1-0.7,3.1c-0.5,1-1.1,1.7-2,2.3l4,7h-5.9l-3.3-5.8h-1.9v5.8H26.3z M31.5,15.9h3.3c0.3,0,0.6-0.2,0.9-0.5
			c0.3-0.4,0.4-0.9,0.4-1.5c0-0.7-0.2-1.2-0.5-1.5c-0.3-0.3-0.6-0.5-1-0.5h-3.1V15.9z"/>
		<path class="st0" d="M56.3,24.6c-1.3,1.1-2.9,1.7-4.7,1.7c-1.2,0-2.4-0.2-3.5-0.7c-1.1-0.4-2.1-1.1-2.9-1.9s-1.5-1.9-2-3.1
			c-0.5-1.2-0.7-2.6-0.7-4.1c0-1.3,0.2-2.6,0.7-3.7s1.2-2.1,2.1-3c0.9-0.8,1.9-1.5,3.1-2c1.2-0.5,2.5-0.7,3.8-0.7
			c0.9,0,1.7,0.1,2.5,0.3c0.8,0.2,1.5,0.5,2.2,0.8s1.3,0.8,1.8,1.3s1,1.1,1.3,1.7l-3.9,3c-0.4-0.7-0.9-1.3-1.7-1.8
			c-0.7-0.5-1.5-0.7-2.4-0.7c-0.6,0-1.2,0.1-1.7,0.4c-0.5,0.2-1,0.6-1.3,1c-0.4,0.4-0.7,1-0.9,1.6c-0.2,0.6-0.3,1.3-0.3,2
			c0,0.7,0.1,1.4,0.3,2c0.2,0.6,0.5,1.1,0.9,1.6c0.4,0.4,0.8,0.8,1.4,1c0.5,0.2,1.1,0.4,1.8,0.4c1.5,0,2.8-0.6,4-1.9h-3.3v-3.7h7.8
			v10.1h-4.3V24.6z"/>
		<path class="st0" d="M70.9,21.8c0.6,0,1.1-0.1,1.5-0.4c0.4-0.3,0.8-0.6,1-1.1c0.3-0.4,0.5-0.9,0.6-1.5c0.1-0.6,0.2-1.2,0.2-1.8
			V7.3h5.2V17c0,1.3-0.2,2.5-0.5,3.7c-0.3,1.1-0.9,2.1-1.6,3c-0.7,0.8-1.6,1.5-2.7,2c-1.1,0.5-2.3,0.7-3.8,0.7
			c-1.5,0-2.8-0.3-3.9-0.8c-1.1-0.5-2-1.2-2.7-2c-0.7-0.9-1.2-1.8-1.5-3c-0.3-1.1-0.5-2.3-0.5-3.6V7.3h5.2V17c0,0.6,0.1,1.2,0.2,1.8
			c0.1,0.6,0.3,1.1,0.6,1.5c0.3,0.4,0.6,0.8,1,1C69.8,21.6,70.3,21.8,70.9,21.8z"/>
		<path class="st0" d="M81.9,26.2V7.3h5.2v14.4h8.6v4.5H81.9z"/>
		<path class="st0" d="M96.9,26.2V7.3h5.2v14.4h8.6v4.5H96.9z"/>
		<path class="st0" d="M120.3,26.4c-1.4,0-2.7-0.3-3.9-0.8c-1.2-0.5-2.2-1.3-3-2.2c-0.8-0.9-1.5-1.9-1.9-3.1s-0.7-2.3-0.7-3.6
			c0-1.2,0.2-2.4,0.7-3.6c0.5-1.2,1.1-2.2,2-3c0.9-0.9,1.9-1.6,3.1-2.1c1.2-0.5,2.5-0.8,3.9-0.8c1.4,0,2.7,0.3,3.9,0.8
			c1.2,0.6,2.2,1.3,3,2.2c0.8,0.9,1.5,1.9,1.9,3.1c0.5,1.2,0.7,2.3,0.7,3.5c0,1.2-0.2,2.4-0.7,3.6c-0.5,1.1-1.1,2.2-2,3
			c-0.9,0.9-1.9,1.6-3.1,2.1C123,26.1,121.7,26.4,120.3,26.4z M116,16.8c0,0.6,0.1,1.3,0.3,1.9c0.2,0.6,0.4,1.1,0.8,1.6
			c0.4,0.5,0.8,0.8,1.3,1.1c0.5,0.3,1.2,0.4,1.9,0.4c0.7,0,1.4-0.1,1.9-0.4s1-0.7,1.3-1.1c0.3-0.5,0.6-1,0.8-1.6s0.3-1.2,0.3-1.8
			c0-0.6-0.1-1.3-0.3-1.9c-0.2-0.6-0.4-1.1-0.8-1.6c-0.4-0.5-0.8-0.8-1.4-1.1c-0.5-0.3-1.2-0.4-1.9-0.4c-0.7,0-1.4,0.1-1.9,0.4
			c-0.5,0.3-1,0.7-1.3,1.1c-0.4,0.5-0.6,1-0.8,1.6C116.1,15.5,116,16.2,116,16.8z"/>
	</g>
	<g>
		<g>
			<path class="st1" d="M12.4,35.5h5.3l7.3,21h-5.8l-1.3-4.1h-5.6L11,56.5H5.1L12.4,35.5z M16.9,48.5L15,42l-1.9,6.5H16.9z"/>
			<path class="st1" d="M25.1,52.2l9.8-11.7h-9.4v-5h16v4.3l-9.2,11.7h9.4v5H25.1V52.2z"/>
			<path class="st1" d="M53,51.5c0.7,0,1.2-0.1,1.7-0.4s0.9-0.7,1.2-1.2c0.3-0.5,0.5-1,0.6-1.7c0.1-0.6,0.2-1.3,0.2-2V35.5h5.8v10.8
				c0,1.5-0.2,2.8-0.6,4.1c-0.4,1.3-1,2.4-1.7,3.3c-0.8,0.9-1.8,1.7-3,2.2c-1.2,0.5-2.6,0.8-4.2,0.8c-1.7,0-3.1-0.3-4.3-0.8
				c-1.2-0.6-2.2-1.3-2.9-2.3c-0.8-0.9-1.3-2-1.7-3.3c-0.4-1.3-0.5-2.6-0.5-4V35.5h5.8v10.8c0,0.7,0.1,1.4,0.2,2
				c0.1,0.6,0.4,1.2,0.6,1.7c0.3,0.5,0.7,0.9,1.1,1.2S52.3,51.5,53,51.5z"/>
			<path class="st1" d="M65.2,56.5v-21h5.8v15.9h9.5v5H65.2z"/>
			<path class="st1" d="M104.9,51.1c0,0.9-0.2,1.8-0.6,2.4c-0.4,0.7-0.9,1.2-1.6,1.7c-0.7,0.4-1.5,0.8-2.4,1
				c-0.9,0.2-1.9,0.3-2.9,0.3H87v-21h12.2c0.7,0,1.4,0.2,2,0.5s1.1,0.7,1.5,1.2s0.7,1.1,1,1.7c0.2,0.6,0.3,1.3,0.3,2
				c0,1-0.3,1.9-0.8,2.8c-0.5,0.9-1.3,1.6-2.3,2c1.2,0.4,2.1,1,2.8,1.8C104.5,48.4,104.9,49.6,104.9,51.1z M92.8,40.4v3.2h3.9
				c0.4,0,0.8-0.1,1.1-0.3s0.5-0.6,0.5-1.3c0-0.6-0.1-1-0.4-1.2c-0.3-0.2-0.6-0.4-1-0.4H92.8z M99,49.9c0-0.5-0.1-0.9-0.4-1.3
				c-0.3-0.3-0.6-0.5-1.1-0.5h-4.8v3.5h4.5c0.5,0,0.9-0.1,1.2-0.4C98.9,50.9,99,50.5,99,49.9z"/>
			<path class="st1" d="M105.7,45.8c0-1.3,0.2-2.5,0.7-3.8c0.5-1.2,1.2-2.4,2.1-3.3c0.9-1,2-1.8,3.4-2.4c1.3-0.6,2.8-0.9,4.5-0.9
				c2,0,3.8,0.4,5.3,1.3c1.5,0.8,2.6,1.9,3.3,3.3l-4.4,3.1c-0.2-0.5-0.5-0.9-0.8-1.3c-0.3-0.3-0.7-0.6-1.1-0.8
				c-0.4-0.2-0.8-0.3-1.2-0.4c-0.4-0.1-0.8-0.1-1.2-0.1c-0.8,0-1.5,0.2-2.1,0.5c-0.6,0.3-1.1,0.7-1.5,1.3c-0.4,0.5-0.7,1.1-0.9,1.8
				s-0.3,1.3-0.3,2c0,0.7,0.1,1.4,0.3,2.1c0.2,0.7,0.5,1.3,0.9,1.8c0.4,0.5,0.9,0.9,1.5,1.2c0.6,0.3,1.3,0.5,2,0.5
				c0.4,0,0.8,0,1.2-0.1c0.4-0.1,0.8-0.2,1.2-0.4s0.7-0.5,1-0.8c0.3-0.3,0.5-0.7,0.7-1.2l4.7,2.8c-0.3,0.8-0.8,1.5-1.4,2.1
				c-0.6,0.6-1.4,1.1-2.2,1.5s-1.7,0.7-2.6,0.9c-0.9,0.2-1.8,0.3-2.7,0.3c-1.6,0-3-0.3-4.3-0.9c-1.3-0.6-2.4-1.4-3.3-2.5
				c-0.9-1-1.7-2.2-2.2-3.5C105.9,48.5,105.7,47.1,105.7,45.8z"/>
		</g>
	</g>
	<g>
		<path class="st1" d="M174.1,51.9l-0.8-0.6l-0.6-0.8l-0.4-0.8L172,49l-0.4-0.8l-0.4-0.8l-0.2-0.8l-0.2-0.8l-0.8-0.8l-0.8-0.8
			l-0.6-1.2l-0.6-0.8l-0.8-0.6l-0.8-0.4l-0.8-0.8l-0.8-0.6l-0.2-0.2c-7.2,6.2-13.3,13.1-18,20c0,0,0.1,0,0.1,0h27.1l0.3-0.7l0.6-0.8
			v-0.8v-0.8l0.4-0.8v-0.8v-0.8V54v-0.8l-0.6-0.8L174.1,51.9z"/>
		<path class="st1" d="M172.6,33.8l0.3,0.4l0.2,0.8v0.8l0.6,0.8l0.8,0.8l0.8,0.6l0.8,0.6l0.6,0.8l0.6,0.8l0.6,0.7l0.8,0.8l0.4,0.8
			l0.4,0.8l0.6,0.8l0.8,0.4l0.2,0.8v0.8l0.2,0.8l0.2,0.8V48v0.8l0.4,0.8l0.4-0.8h0.8l0.2,0.8v0.8l0.4,0.8l0.8-0.4l0.8,0.4v0.8v0.8
			l0.2,0.8v0.8l0.2,0.8l0.6,0.8l0.6,0.8h1.3l0.2,0.8V58v0.8v1V60h4.8c2.8,0,5.2-2.3,5.2-5.2V20C189.4,23.2,180.8,27.8,172.6,33.8z"
			/>
	</g>
</g>
</svg>
