<?xml version="1.0" encoding="utf-8"?>
<!-- Generator: Adobe Illustrator 22.1.0, SVG Export Plug-In . SVG Version: 6.00 Build 0)  -->
<svg version="1.1" id="Layer_1" xmlns="http://www.w3.org/2000/svg" xmlns:xlink="http://www.w3.org/1999/xlink" x="0px" y="0px"
	 viewBox="0 0 37 37" style="enable-background:new 0 0 37 37;" xml:space="preserve">
<style type="text/css">
	.st0{fill:#117EC1;}
	.st1{fill:#97A9AF;}
	.st2{fill-rule:evenodd;clip-rule:evenodd;fill:#117EC1;}
	.st3{fill:#FFFFFF;}
	.st4{opacity:0.8;}
</style>
<g>
	<path class="st0" d="M18.5,35.2c-9.2,0-16.7-7.5-16.7-16.7S9.3,1.8,18.5,1.8s16.7,7.5,16.7,16.7S27.7,35.2,18.5,35.2z M18.5,3.4
		c-8.3,0-15.1,6.8-15.1,15.1s6.8,15.1,15.1,15.1s15.1-6.8,15.1-15.1S26.8,3.4,18.5,3.4z"/>
	<g>
		<path class="st0" d="M28.1,12.4c-0.6,0.3-1.3,0.5-2,0.6c0.3-0.1,0.8-0.6,1-0.9c0.3-0.4,0.5-0.8,0.7-1.2c0,0,0-0.1,0-0.1
			c0,0-0.1,0-0.1,0c-0.7,0.4-1.5,0.7-2.3,0.9c-0.1,0-0.1,0-0.2,0c-0.1-0.1-0.1-0.1-0.2-0.2c-0.3-0.3-0.7-0.5-1.1-0.7
			c-0.5-0.2-1.2-0.3-1.7-0.3c-0.6,0-1.1,0.2-1.7,0.5c-0.5,0.3-1,0.6-1.3,1.1c-0.4,0.5-0.7,1-0.8,1.6c-0.1,0.6-0.1,1.1,0,1.7
			c0,0.1,0,0.1-0.1,0.1c-3.2-0.5-5.9-1.6-8.1-4.1c-0.1-0.1-0.1-0.1-0.2,0C9,12.7,9.4,15,10.6,16.1c0.2,0.1,0.3,0.3,0.5,0.4
			c-0.1,0-0.9-0.1-1.6-0.4c-0.1-0.1-0.1,0-0.1,0.1c0,0.2,0,0.3,0,0.5c0.2,1.4,1.2,2.8,2.5,3.3c0.2,0.1,0.3,0.1,0.5,0.2
			c-0.3,0.1-0.6,0.1-1.5,0c-0.1,0-0.2,0-0.1,0.1c0.7,1.8,2.1,2.4,3.2,2.7c0.1,0,0.3,0,0.4,0.1c0,0,0,0,0,0c-0.4,0.5-1.6,1-2.2,1.2
			c-1.1,0.4-2.2,0.5-3.3,0.4c-0.2,0-0.2,0-0.3,0c0,0,0,0.1,0.1,0.1c0.2,0.1,0.5,0.3,0.7,0.4c0.7,0.4,1.4,0.7,2.2,0.9
			c4,1.1,8.5,0.3,11.5-2.7c2.4-2.3,3.2-5.6,3.2-8.8c0-0.1,0.1-0.2,0.2-0.3c0.6-0.5,1.1-1,1.6-1.6C28.2,12.6,28.2,12.4,28.1,12.4
			C28.2,12.4,28.2,12.4,28.1,12.4C28.2,12.3,28.2,12.3,28.1,12.4z"/>
		<path class="st2" d="M14.5,26.5C14.4,26.5,14.1,26.5,14.5,26.5C14.5,26.5,14.4,26.5,14.5,26.5z"/>
		<path class="st2" d="M15.1,26.5C15.1,26.5,15.5,26.5,15.1,26.5C15.1,26.5,15.2,26.5,15.1,26.5z"/>
		<path class="st2" d="M22,10.5C22,10.5,22,10.5,22,10.5C22,10.5,22,10.5,22,10.5z"/>
	</g>
</g>
</svg>
