<?xml version="1.0" encoding="utf-8"?>
<!-- Generator: Adobe Illustrator 22.1.0, SVG Export Plug-In . SVG Version: 6.00 Build 0)  -->
<svg version="1.1" id="Layer_1" xmlns="http://www.w3.org/2000/svg" xmlns:xlink="http://www.w3.org/1999/xlink" x="0px" y="0px"
	 viewBox="0 0 37 37" style="enable-background:new 0 0 37 37;" xml:space="preserve">
<style type="text/css">
	.st0{fill:#117EC1;}
	.st1{fill:#97A9AF;}
	.st2{fill-rule:evenodd;clip-rule:evenodd;fill:#117EC1;}
	.st3{fill:#FFFFFF;}
	.st4{opacity:0.8;}
</style>
<g>
	<path class="st0" d="M18.5,35.2c-9.2,0-16.7-7.5-16.7-16.7S9.3,1.8,18.5,1.8s16.7,7.5,16.7,16.7S27.7,35.2,18.5,35.2z M18.5,3.4
		c-8.3,0-15.1,6.8-15.1,15.1s6.8,15.1,15.1,15.1s15.1-6.8,15.1-15.1S26.8,3.4,18.5,3.4z"/>
	<g>
		<path class="st0" d="M28.5,16c0-2.4-1.9-4.3-4.3-4.3H13.1c-2.4,0-4.3,1.9-4.3,4.3v5.2c0,2.4,1.9,4.3,4.3,4.3h11.2
			c2.4,0,4.3-1.9,4.3-4.3V16z M21.5,18.8L17,21.3c-0.2,0.1-0.4,0-0.4-0.3v-5c0-0.2,0.2-0.4,0.4-0.3l4.5,2.6
			C21.7,18.4,21.7,18.7,21.5,18.8z"/>
	</g>
</g>
</svg>
